solid contador rpm
facet normal 0.9914448613738197 -0.13052619221998144 -0.0
  outer loop
    vertex 761.400195585624 -107.65265266707146 0.0
    vertex 761.3661214119131 -107.911471712174 1.9999999999999998
    vertex 761.3661214119131 -107.911471712174 0.0
  endloop
endfacet
facet normal 0.9914448613738197 -0.13052619221998144 -0.0
  outer loop
    vertex 761.3661214119131 -107.911471712174 1.9999999999999998
    vertex 761.400195585624 -107.65265266707146 0.0
    vertex 761.400195585624 -107.65265266707146 1.9999999999999998
  endloop
endfacet
facet normal 0.6087614290087953 0.793353340291178 0.0
  outer loop
    vertex 761.6590146307266 -108.61857849336057 1.9999999999999998
    vertex 761.8661214119131 -108.77749711595848 0.0
    vertex 761.6590146307266 -108.61857849336057 0.0
  endloop
endfacet
facet normal 0.6087614290087953 0.793353340291178 0.0
  outer loop
    vertex 761.8661214119131 -108.77749711595848 0.0
    vertex 761.6590146307266 -108.61857849336057 1.9999999999999998
    vertex 761.8661214119131 -108.77749711595848 1.9999999999999998
  endloop
endfacet
facet normal -0.1305261922200664 0.9914448613738085 -0.0
  outer loop
    vertex 762.3661214119132 -108.91147171217405 1.9999999999999998
    vertex 762.6249404570158 -108.8773975384631 0.0
    vertex 762.3661214119132 -108.91147171217405 0.0
  endloop
endfacet
facet normal -0.1305261922200664 0.9914448613738085 -0.0
  outer loop
    vertex 762.6249404570158 -108.8773975384631 0.0
    vertex 762.3661214119132 -108.91147171217405 1.9999999999999998
    vertex 762.6249404570158 -108.8773975384631 1.9999999999999998
  endloop
endfacet
facet normal 0.38268343236500957 0.9238795325113202 0.0
  outer loop
    vertex 761.8661214119131 -108.77749711595848 1.9999999999999998
    vertex 762.1073023668107 -108.8773975384631 0.0
    vertex 761.8661214119131 -108.77749711595848 0.0
  endloop
endfacet
facet normal 0.38268343236500957 0.9238795325113202 0.0
  outer loop
    vertex 762.1073023668107 -108.8773975384631 0.0
    vertex 761.8661214119131 -108.77749711595848 1.9999999999999998
    vertex 762.1073023668107 -108.8773975384631 1.9999999999999998
  endloop
endfacet
facet normal 0.1305261922200664 0.9914448613738085 0.0
  outer loop
    vertex 762.1073023668107 -108.8773975384631 1.9999999999999998
    vertex 762.3661214119132 -108.91147171217405 0.0
    vertex 762.1073023668107 -108.8773975384631 0.0
  endloop
endfacet
facet normal 0.1305261922200664 0.9914448613738085 0.0
  outer loop
    vertex 762.3661214119132 -108.91147171217405 0.0
    vertex 762.1073023668107 -108.8773975384631 1.9999999999999998
    vertex 762.3661214119132 -108.91147171217405 1.9999999999999998
  endloop
endfacet
facet normal -0.3826834323651318 0.9238795325112695 -0.0
  outer loop
    vertex 762.6249404570158 -108.8773975384631 1.9999999999999998
    vertex 762.8661214119132 -108.77749711595848 0.0
    vertex 762.6249404570158 -108.8773975384631 0.0
  endloop
endfacet
facet normal -0.3826834323651318 0.9238795325112695 -0.0
  outer loop
    vertex 762.8661214119132 -108.77749711595848 0.0
    vertex 762.6249404570158 -108.8773975384631 1.9999999999999998
    vertex 762.8661214119132 -108.77749711595848 1.9999999999999998
  endloop
endfacet
facet normal -0.6087614290086284 0.7933533402913062 -0.0
  outer loop
    vertex 762.8661214119132 -108.77749711595848 1.9999999999999998
    vertex 763.0732281930998 -108.61857849336057 0.0
    vertex 762.8661214119132 -108.77749711595848 0.0
  endloop
endfacet
facet normal -0.6087614290086284 0.7933533402913062 -0.0
  outer loop
    vertex 763.0732281930998 -108.61857849336057 0.0
    vertex 762.8661214119132 -108.77749711595848 1.9999999999999998
    vertex 763.0732281930998 -108.61857849336057 1.9999999999999998
  endloop
endfacet
facet normal -0.7933533402912518 0.6087614290086991 -0.0
  outer loop
    vertex 763.2321468156977 -108.41147171217402 1.9999999999999998
    vertex 763.0732281930998 -108.61857849336057 0.0
    vertex 763.0732281930998 -108.61857849336057 1.9999999999999998
  endloop
endfacet
facet normal -0.7933533402912518 0.6087614290086991 -0.0
  outer loop
    vertex 763.0732281930998 -108.61857849336057 0.0
    vertex 763.2321468156977 -108.41147171217402 1.9999999999999998
    vertex 763.2321468156977 -108.41147171217402 0.0
  endloop
endfacet
facet normal -0.9238795325112642 0.3826834323651444 -0.0
  outer loop
    vertex 763.3320472382023 -108.17029075727653 1.9999999999999998
    vertex 763.2321468156977 -108.41147171217402 0.0
    vertex 763.2321468156977 -108.41147171217402 1.9999999999999998
  endloop
endfacet
facet normal -0.9238795325112642 0.3826834323651444 -0.0
  outer loop
    vertex 763.2321468156977 -108.41147171217402 0.0
    vertex 763.3320472382023 -108.17029075727653 1.9999999999999998
    vertex 763.3320472382023 -108.17029075727653 0.0
  endloop
endfacet
facet normal 0.1305261922200664 -0.9914448613738085 -0.0
  outer loop
    vertex 762.3661214119132 -106.91147171217396 1.9999999999999998
    vertex 762.1073023668107 -106.9455458858849 0.0
    vertex 762.3661214119132 -106.91147171217396 0.0
  endloop
endfacet
facet normal 0.1305261922200664 -0.9914448613738085 -0.0
  outer loop
    vertex 762.1073023668107 -106.9455458858849 0.0
    vertex 762.3661214119132 -106.91147171217396 1.9999999999999998
    vertex 762.1073023668107 -106.9455458858849 1.9999999999999998
  endloop
endfacet
facet normal 0.7933533402912518 -0.6087614290086991 -0.0
  outer loop
    vertex 761.6590146307266 -107.20436493098742 0.0
    vertex 761.5000960081287 -107.41147171217398 1.9999999999999998
    vertex 761.5000960081287 -107.41147171217398 0.0
  endloop
endfacet
facet normal 0.7933533402912518 -0.6087614290086991 -0.0
  outer loop
    vertex 761.5000960081287 -107.41147171217398 1.9999999999999998
    vertex 761.6590146307266 -107.20436493098742 0.0
    vertex 761.6590146307266 -107.20436493098742 1.9999999999999998
  endloop
endfacet
facet normal 0.6087614290086284 -0.7933533402913062 -0.0
  outer loop
    vertex 761.8661214119132 -107.04544630838951 1.9999999999999998
    vertex 761.6590146307266 -107.20436493098742 0.0
    vertex 761.8661214119132 -107.04544630838951 0.0
  endloop
endfacet
facet normal 0.6087614290086284 -0.7933533402913062 -0.0
  outer loop
    vertex 761.6590146307266 -107.20436493098742 0.0
    vertex 761.8661214119132 -107.04544630838951 1.9999999999999998
    vertex 761.6590146307266 -107.20436493098742 1.9999999999999998
  endloop
endfacet
facet normal 0.7933533402912518 0.6087614290086991 0.0
  outer loop
    vertex 761.5000960081287 -108.41147171217402 0.0
    vertex 761.6590146307266 -108.61857849336057 1.9999999999999998
    vertex 761.6590146307266 -108.61857849336057 0.0
  endloop
endfacet
facet normal 0.7933533402912518 0.6087614290086991 0.0
  outer loop
    vertex 761.6590146307266 -108.61857849336057 1.9999999999999998
    vertex 761.5000960081287 -108.41147171217402 0.0
    vertex 761.5000960081287 -108.41147171217402 1.9999999999999998
  endloop
endfacet
facet normal 0.9238795325112642 0.3826834323651444 0.0
  outer loop
    vertex 761.400195585624 -108.17029075727653 0.0
    vertex 761.5000960081287 -108.41147171217402 1.9999999999999998
    vertex 761.5000960081287 -108.41147171217402 0.0
  endloop
endfacet
facet normal 0.9238795325112642 0.3826834323651444 0.0
  outer loop
    vertex 761.5000960081287 -108.41147171217402 1.9999999999999998
    vertex 761.400195585624 -108.17029075727653 0.0
    vertex 761.400195585624 -108.17029075727653 1.9999999999999998
  endloop
endfacet
facet normal -0.9914448613738197 0.13052619221998144 -0.0
  outer loop
    vertex 763.3661214119132 -107.911471712174 1.9999999999999998
    vertex 763.3320472382023 -108.17029075727653 0.0
    vertex 763.3320472382023 -108.17029075727653 1.9999999999999998
  endloop
endfacet
facet normal -0.9914448613738197 0.13052619221998144 -0.0
  outer loop
    vertex 763.3320472382023 -108.17029075727653 0.0
    vertex 763.3661214119132 -107.911471712174 1.9999999999999998
    vertex 763.3661214119132 -107.911471712174 0.0
  endloop
endfacet
facet normal -0.6087614290087953 -0.793353340291178 -0.0
  outer loop
    vertex 763.0732281930998 -107.20436493098742 1.9999999999999998
    vertex 762.8661214119132 -107.04544630838951 0.0
    vertex 763.0732281930998 -107.20436493098742 0.0
  endloop
endfacet
facet normal -0.6087614290087953 -0.793353340291178 -0.0
  outer loop
    vertex 762.8661214119132 -107.04544630838951 0.0
    vertex 763.0732281930998 -107.20436493098742 1.9999999999999998
    vertex 762.8661214119132 -107.04544630838951 1.9999999999999998
  endloop
endfacet
facet normal -0.9914448613738197 -0.13052619221998144 -0.0
  outer loop
    vertex 763.3320472382023 -107.65265266707146 1.9999999999999998
    vertex 763.3661214119132 -107.911471712174 0.0
    vertex 763.3661214119132 -107.911471712174 1.9999999999999998
  endloop
endfacet
facet normal -0.9914448613738197 -0.13052619221998144 -0.0
  outer loop
    vertex 763.3661214119132 -107.911471712174 0.0
    vertex 763.3320472382023 -107.65265266707146 1.9999999999999998
    vertex 763.3320472382023 -107.65265266707146 0.0
  endloop
endfacet
facet normal 0.9238795325112642 -0.3826834323651444 -0.0
  outer loop
    vertex 761.5000960081287 -107.41147171217398 0.0
    vertex 761.400195585624 -107.65265266707146 1.9999999999999998
    vertex 761.400195585624 -107.65265266707146 0.0
  endloop
endfacet
facet normal 0.9238795325112642 -0.3826834323651444 -0.0
  outer loop
    vertex 761.400195585624 -107.65265266707146 1.9999999999999998
    vertex 761.5000960081287 -107.41147171217398 0.0
    vertex 761.5000960081287 -107.41147171217398 1.9999999999999998
  endloop
endfacet
facet normal 0.3826834323651318 -0.9238795325112695 -0.0
  outer loop
    vertex 762.1073023668107 -106.9455458858849 1.9999999999999998
    vertex 761.8661214119132 -107.04544630838951 0.0
    vertex 762.1073023668107 -106.9455458858849 0.0
  endloop
endfacet
facet normal 0.3826834323651318 -0.9238795325112695 -0.0
  outer loop
    vertex 761.8661214119132 -107.04544630838951 0.0
    vertex 762.1073023668107 -106.9455458858849 1.9999999999999998
    vertex 761.8661214119132 -107.04544630838951 1.9999999999999998
  endloop
endfacet
facet normal 0.0 0.0 -1.0
  outer loop
    vertex 761.400195585624 -107.65265266707146 1.9999999999999998
    vertex 761.400195585624 -108.17029075727653 1.9999999999999998
    vertex 761.3661214119131 -107.911471712174 1.9999999999999998
  endloop
endfacet
facet normal 0.0 0.0 -1.0
  outer loop
    vertex 761.400195585624 -108.17029075727653 1.9999999999999998
    vertex 761.400195585624 -107.65265266707146 1.9999999999999998
    vertex 761.5000960081287 -107.41147171217398 1.9999999999999998
  endloop
endfacet
facet normal 0.0 0.0 -1.0
  outer loop
    vertex 761.400195585624 -108.17029075727653 1.9999999999999998
    vertex 761.5000960081287 -107.41147171217398 1.9999999999999998
    vertex 761.5000960081287 -108.41147171217402 1.9999999999999998
  endloop
endfacet
facet normal 0.0 0.0 -1.0
  outer loop
    vertex 761.5000960081287 -108.41147171217402 1.9999999999999998
    vertex 761.5000960081287 -107.41147171217398 1.9999999999999998
    vertex 761.6590146307266 -107.20436493098742 1.9999999999999998
  endloop
endfacet
facet normal 0.0 0.0 -1.0
  outer loop
    vertex 761.5000960081287 -108.41147171217402 1.9999999999999998
    vertex 761.6590146307266 -107.20436493098742 1.9999999999999998
    vertex 761.6590146307266 -108.61857849336057 1.9999999999999998
  endloop
endfacet
facet normal 0.0 0.0 -1.0
  outer loop
    vertex 761.6590146307266 -108.61857849336057 1.9999999999999998
    vertex 761.6590146307266 -107.20436493098742 1.9999999999999998
    vertex 761.8661214119132 -107.04544630838951 1.9999999999999998
  endloop
endfacet
facet normal 0.0 0.0 -1.0
  outer loop
    vertex 761.6590146307266 -108.61857849336057 1.9999999999999998
    vertex 761.8661214119132 -107.04544630838951 1.9999999999999998
    vertex 761.8661214119131 -108.77749711595848 1.9999999999999998
  endloop
endfacet
facet normal 0.0 0.0 -1.0
  outer loop
    vertex 761.8661214119131 -108.77749711595848 1.9999999999999998
    vertex 761.8661214119132 -107.04544630838951 1.9999999999999998
    vertex 762.1073023668107 -108.8773975384631 1.9999999999999998
  endloop
endfacet
facet normal 0.0 0.0 -1.0
  outer loop
    vertex 762.1073023668107 -108.8773975384631 1.9999999999999998
    vertex 761.8661214119132 -107.04544630838951 1.9999999999999998
    vertex 762.1073023668107 -106.9455458858849 1.9999999999999998
  endloop
endfacet
facet normal 0.0 0.0 -1.0
  outer loop
    vertex 762.1073023668107 -108.8773975384631 1.9999999999999998
    vertex 762.1073023668107 -106.9455458858849 1.9999999999999998
    vertex 762.3661214119132 -106.91147171217396 1.9999999999999998
  endloop
endfacet
facet normal 0.0 0.0 -1.0
  outer loop
    vertex 762.1073023668107 -108.8773975384631 1.9999999999999998
    vertex 762.3661214119132 -106.91147171217396 1.9999999999999998
    vertex 762.3661214119132 -108.91147171217405 1.9999999999999998
  endloop
endfacet
facet normal 0.0 0.0 -1.0
  outer loop
    vertex 762.3661214119132 -108.91147171217405 1.9999999999999998
    vertex 762.3661214119132 -106.91147171217396 1.9999999999999998
    vertex 762.6249404570158 -106.9455458858849 1.9999999999999998
  endloop
endfacet
facet normal 0.0 0.0 -1.0
  outer loop
    vertex 762.3661214119132 -108.91147171217405 1.9999999999999998
    vertex 762.6249404570158 -106.9455458858849 1.9999999999999998
    vertex 762.6249404570158 -108.8773975384631 1.9999999999999998
  endloop
endfacet
facet normal 0.0 0.0 -1.0
  outer loop
    vertex 762.6249404570158 -108.8773975384631 1.9999999999999998
    vertex 762.6249404570158 -106.9455458858849 1.9999999999999998
    vertex 762.8661214119132 -107.04544630838951 1.9999999999999998
  endloop
endfacet
facet normal 0.0 0.0 -1.0
  outer loop
    vertex 762.6249404570158 -108.8773975384631 1.9999999999999998
    vertex 762.8661214119132 -107.04544630838951 1.9999999999999998
    vertex 762.8661214119132 -108.77749711595848 1.9999999999999998
  endloop
endfacet
facet normal 0.0 0.0 -1.0
  outer loop
    vertex 762.8661214119132 -108.77749711595848 1.9999999999999998
    vertex 762.8661214119132 -107.04544630838951 1.9999999999999998
    vertex 763.0732281930998 -108.61857849336057 1.9999999999999998
  endloop
endfacet
facet normal 0.0 0.0 -1.0
  outer loop
    vertex 763.0732281930998 -108.61857849336057 1.9999999999999998
    vertex 762.8661214119132 -107.04544630838951 1.9999999999999998
    vertex 763.0732281930998 -107.20436493098742 1.9999999999999998
  endloop
endfacet
facet normal 0.0 0.0 -1.0
  outer loop
    vertex 763.0732281930998 -108.61857849336057 1.9999999999999998
    vertex 763.0732281930998 -107.20436493098742 1.9999999999999998
    vertex 763.2321468156977 -107.41147171217398 1.9999999999999998
  endloop
endfacet
facet normal 0.0 0.0 -1.0
  outer loop
    vertex 763.0732281930998 -108.61857849336057 1.9999999999999998
    vertex 763.2321468156977 -107.41147171217398 1.9999999999999998
    vertex 763.2321468156977 -108.41147171217402 1.9999999999999998
  endloop
endfacet
facet normal 0.0 0.0 -1.0
  outer loop
    vertex 763.2321468156977 -108.41147171217402 1.9999999999999998
    vertex 763.2321468156977 -107.41147171217398 1.9999999999999998
    vertex 763.3320472382023 -107.65265266707146 1.9999999999999998
  endloop
endfacet
facet normal 0.0 0.0 -1.0
  outer loop
    vertex 763.2321468156977 -108.41147171217402 1.9999999999999998
    vertex 763.3320472382023 -107.65265266707146 1.9999999999999998
    vertex 763.3320472382023 -108.17029075727653 1.9999999999999998
  endloop
endfacet
facet normal 0.0 0.0 -1.0
  outer loop
    vertex 763.3320472382023 -108.17029075727653 1.9999999999999998
    vertex 763.3320472382023 -107.65265266707146 1.9999999999999998
    vertex 763.3661214119132 -107.911471712174 1.9999999999999998
  endloop
endfacet
facet normal -0.1305261922200664 -0.9914448613738085 -0.0
  outer loop
    vertex 762.6249404570158 -106.9455458858849 1.9999999999999998
    vertex 762.3661214119132 -106.91147171217396 0.0
    vertex 762.6249404570158 -106.9455458858849 0.0
  endloop
endfacet
facet normal -0.1305261922200664 -0.9914448613738085 -0.0
  outer loop
    vertex 762.3661214119132 -106.91147171217396 0.0
    vertex 762.6249404570158 -106.9455458858849 1.9999999999999998
    vertex 762.3661214119132 -106.91147171217396 1.9999999999999998
  endloop
endfacet
facet normal -0.9238795325112642 -0.3826834323651444 -0.0
  outer loop
    vertex 763.2321468156977 -107.41147171217398 1.9999999999999998
    vertex 763.3320472382023 -107.65265266707146 0.0
    vertex 763.3320472382023 -107.65265266707146 1.9999999999999998
  endloop
endfacet
facet normal -0.9238795325112642 -0.3826834323651444 -0.0
  outer loop
    vertex 763.3320472382023 -107.65265266707146 0.0
    vertex 763.2321468156977 -107.41147171217398 1.9999999999999998
    vertex 763.2321468156977 -107.41147171217398 0.0
  endloop
endfacet
facet normal -0.7933533402912518 -0.6087614290086991 -0.0
  outer loop
    vertex 763.0732281930998 -107.20436493098742 1.9999999999999998
    vertex 763.2321468156977 -107.41147171217398 0.0
    vertex 763.2321468156977 -107.41147171217398 1.9999999999999998
  endloop
endfacet
facet normal -0.7933533402912518 -0.6087614290086991 -0.0
  outer loop
    vertex 763.2321468156977 -107.41147171217398 0.0
    vertex 763.0732281930998 -107.20436493098742 1.9999999999999998
    vertex 763.0732281930998 -107.20436493098742 0.0
  endloop
endfacet
facet normal -0.38268343236500957 -0.9238795325113202 -0.0
  outer loop
    vertex 762.8661214119132 -107.04544630838951 1.9999999999999998
    vertex 762.6249404570158 -106.9455458858849 0.0
    vertex 762.8661214119132 -107.04544630838951 0.0
  endloop
endfacet
facet normal -0.38268343236500957 -0.9238795325113202 -0.0
  outer loop
    vertex 762.6249404570158 -106.9455458858849 0.0
    vertex 762.8661214119132 -107.04544630838951 1.9999999999999998
    vertex 762.6249404570158 -106.9455458858849 1.9999999999999998
  endloop
endfacet
facet normal 0.9914448613738197 0.13052619221998144 0.0
  outer loop
    vertex 761.3661214119131 -107.911471712174 0.0
    vertex 761.400195585624 -108.17029075727653 1.9999999999999998
    vertex 761.400195585624 -108.17029075727653 0.0
  endloop
endfacet
facet normal 0.9914448613738197 0.13052619221998144 0.0
  outer loop
    vertex 761.400195585624 -108.17029075727653 1.9999999999999998
    vertex 761.3661214119131 -107.911471712174 0.0
    vertex 761.3661214119131 -107.911471712174 1.9999999999999998
  endloop
endfacet
facet normal 0.7933533402912363 -0.6087614290087193 0.0
  outer loop
    vertex 794.1841408965738 -104.72949119683454 0.0
    vertex 793.4690070948833 -105.66147171217402 2.5
    vertex 793.4690070948833 -105.66147171217402 0.0
  endloop
endfacet
facet normal 0.7933533402912363 -0.6087614290087193 0.0
  outer loop
    vertex 793.4690070948833 -105.66147171217402 2.5
    vertex 794.1841408965738 -104.72949119683454 0.0
    vertex 794.1841408965738 -104.72949119683454 2.5
  endloop
endfacet
facet normal -0.0 -0.0 1.0
  outer loop
    vertex 790.1401943823937 -149.48791781607312 2.5
    vertex 793.0194551936124 -109.07615741513534 2.5
    vertex 792.8661214119132 -107.911471712174 2.5
  endloop
endfacet
facet normal -0.0 -0.0 1.0
  outer loop
    vertex 793.0194551936124 -109.07615741513534 2.5
    vertex 790.1401943823937 -149.48791781607312 2.5
    vertex 799.9545918747051 -140.88277572441817 2.5
  endloop
endfacet
facet normal -0.0 -0.0 1.0
  outer loop
    vertex 793.0194551936124 -109.07615741513534 2.5
    vertex 799.9545918747051 -140.88277572441817 2.5
    vertex 793.4690070948833 -110.161471712174 2.5
  endloop
endfacet
facet normal -0.0 -0.0 1.0
  outer loop
    vertex 793.4690070948833 -110.161471712174 2.5
    vertex 799.9545918747051 -140.88277572441817 2.5
    vertex 794.1841408965738 -111.09345222751347 2.5
  endloop
endfacet
facet normal -0.0 -0.0 1.0
  outer loop
    vertex 794.1841408965738 -111.09345222751347 2.5
    vertex 799.9545918747051 -140.88277572441817 2.5
    vertex 795.1161214119132 -111.80858602920398 2.5
  endloop
endfacet
facet normal -0.0 -0.0 1.0
  outer loop
    vertex 795.1161214119132 -111.80858602920398 2.5
    vertex 799.9545918747051 -140.88277572441817 2.5
    vertex 796.2014357089519 -112.2581379304748 2.5
  endloop
endfacet
facet normal -0.0 -0.0 1.0
  outer loop
    vertex 796.2014357089519 -112.2581379304748 2.5
    vertex 799.9545918747051 -140.88277572441817 2.5
    vertex 797.3661214119132 -112.41147171217402 2.5
  endloop
endfacet
facet normal -0.0 -0.0 1.0
  outer loop
    vertex 797.3661214119132 -112.41147171217402 2.5
    vertex 799.9545918747051 -140.88277572441817 2.5
    vertex 798.5308071148746 -112.2581379304748 2.5
  endloop
endfacet
facet normal -0.0 -0.0 1.0
  outer loop
    vertex 798.5308071148746 -112.2581379304748 2.5
    vertex 799.9545918747051 -140.88277572441817 2.5
    vertex 799.6161214119132 -111.80858602920398 2.5
  endloop
endfacet
facet normal -0.0 -0.0 1.0
  outer loop
    vertex 799.6161214119132 -111.80858602920398 2.5
    vertex 799.9545918747051 -140.88277572441817 2.5
    vertex 800.5481019272527 -111.09345222751347 2.5
  endloop
endfacet
facet normal -0.0 -0.0 1.0
  outer loop
    vertex 800.5481019272527 -111.09345222751347 2.5
    vertex 799.9545918747051 -140.88277572441817 2.5
    vertex 807.2073972228616 -130.03069375198498 2.5
  endloop
endfacet
facet normal -0.0 -0.0 1.0
  outer loop
    vertex 800.5481019272527 -111.09345222751347 2.5
    vertex 807.2073972228616 -130.03069375198498 2.5
    vertex 801.2632357289432 -110.161471712174 2.5
  endloop
endfacet
facet normal -0.0 -0.0 1.0
  outer loop
    vertex 801.2632357289432 -110.161471712174 2.5
    vertex 807.2073972228616 -130.03069375198498 2.5
    vertex 801.712787630214 -109.07615741513536 2.5
  endloop
endfacet
facet normal -0.0 -0.0 1.0
  outer loop
    vertex 801.712787630214 -109.07615741513536 2.5
    vertex 807.2073972228616 -130.03069375198498 2.5
    vertex 801.8661214119132 -107.911471712174 2.5
  endloop
endfacet
facet normal -0.0 -0.0 1.0
  outer loop
    vertex 801.8661214119132 -107.911471712174 2.5
    vertex 807.2073972228616 -130.03069375198498 2.5
    vertex 803.9425675158124 -80.13739874169357 2.5
  endloop
endfacet
facet normal -0.0 -0.0 1.0
  outer loop
    vertex 803.9425675158124 -80.13739874169357 2.5
    vertex 807.2073972228616 -130.03069375198498 2.5
    vertex 809.7143435138124 -91.8445534081174 2.5
  endloop
endfacet
facet normal -0.0 -0.0 1.0
  outer loop
    vertex 809.7143435138124 -91.8445534081174 2.5
    vertex 807.2073972228616 -130.03069375198498 2.5
    vertex 811.4043437282141 -117.67122335128138 2.5
  endloop
endfacet
facet normal -0.0 -0.0 1.0
  outer loop
    vertex 809.7143435138124 -91.8445534081174 2.5
    vertex 811.4043437282141 -117.67122335128138 2.5
    vertex 812.2594164222047 -104.64664200512475 2.5
  endloop
endfacet
facet normal -0.0 -0.0 1.0
  outer loop
    vertex 715.0178993100141 -123.97839001623059 2.5
    vertex 713.3278990956126 -98.15172007306664 2.5
    vertex 712.4728264016219 -111.17630141922325 2.5
  endloop
endfacet
facet normal -0.0 -0.0 1.0
  outer loop
    vertex 713.3278990956126 -98.15172007306664 2.5
    vertex 715.0178993100141 -123.97839001623059 2.5
    vertex 717.5248456009649 -85.79224967236306 2.5
  endloop
endfacet
facet normal -0.0 -0.0 1.0
  outer loop
    vertex 717.5248456009649 -85.79224967236306 2.5
    vertex 715.0178993100141 -123.97839001623059 2.5
    vertex 720.7896753080141 -135.68554468265444 2.5
  endloop
endfacet
facet normal -0.0 -0.0 1.0
  outer loop
    vertex 717.5248456009649 -85.79224967236306 2.5
    vertex 720.7896753080141 -135.68554468265444 2.5
    vertex 724.7776509491215 -74.94016769992983 2.5
  endloop
endfacet
facet normal -0.0 -0.0 1.0
  outer loop
    vertex 724.7776509491215 -74.94016769992983 2.5
    vertex 720.7896753080141 -135.68554468265444 2.5
    vertex 729.394817399669 -145.4999421749658 2.5
  endloop
endfacet
facet normal -0.0 -0.0 1.0
  outer loop
    vertex 724.7776509491215 -74.94016769992983 2.5
    vertex 729.394817399669 -145.4999421749658 2.5
    vertex 734.5920484414328 -66.33502560827489 2.5
  endloop
endfacet
facet normal -0.0 -0.0 1.0
  outer loop
    vertex 734.5920484414328 -66.33502560827489 2.5
    vertex 729.394817399669 -145.4999421749658 2.5
    vertex 740.2468993721023 -152.75274752312234 2.5
  endloop
endfacet
facet normal -0.0 -0.0 1.0
  outer loop
    vertex 734.5920484414328 -66.33502560827489 2.5
    vertex 740.2468993721023 -152.75274752312234 2.5
    vertex 746.2992031078567 -60.56324961027486 2.5
  endloop
endfacet
facet normal -0.0 -0.0 1.0
  outer loop
    vertex 746.2992031078567 -60.56324961027486 2.5
    vertex 740.2468993721023 -152.75274752312234 2.5
    vertex 752.6063697728059 -156.9496940284748 2.5
  endloop
endfacet
facet normal -0.0 -0.0 1.0
  outer loop
    vertex 746.2992031078567 -60.56324961027486 2.5
    vertex 752.6063697728059 -156.9496940284748 2.5
    vertex 759.1012917048639 -58.018176701882595 2.5
  endloop
endfacet
facet normal -0.0 -0.0 1.0
  outer loop
    vertex 759.1012917048639 -58.018176701882595 2.5
    vertex 752.6063697728059 -156.9496940284748 2.5
    vertex 765.6309511189625 -157.8047667224654 2.5
  endloop
endfacet
facet normal -0.0 -0.0 1.0
  outer loop
    vertex 759.1012917048639 -58.018176701882595 2.5
    vertex 765.6309511189625 -157.8047667224654 2.5
    vertex 772.1258730510207 -58.87324939587321 2.5
  endloop
endfacet
facet normal -0.0 -0.0 1.0
  outer loop
    vertex 772.1258730510207 -58.87324939587321 2.5
    vertex 765.6309511189625 -157.8047667224654 2.5
    vertex 778.4330397159698 -155.25969381407313 2.5
  endloop
endfacet
facet normal -0.0 -0.0 1.0
  outer loop
    vertex 772.1258730510207 -58.87324939587321 2.5
    vertex 778.4330397159698 -155.25969381407313 2.5
    vertex 784.4853434517241 -63.070195901225645 2.5
  endloop
endfacet
facet normal -0.0 -0.0 1.0
  outer loop
    vertex 784.4853434517241 -63.070195901225645 2.5
    vertex 778.4330397159698 -155.25969381407313 2.5
    vertex 790.1401943823937 -149.48791781607312 2.5
  endloop
endfacet
facet normal -0.0 -0.0 1.0
  outer loop
    vertex 784.4853434517241 -63.070195901225645 2.5
    vertex 790.1401943823937 -149.48791781607312 2.5
    vertex 792.8661214119132 -107.911471712174 2.5
  endloop
endfacet
facet normal -0.0 -0.0 1.0
  outer loop
    vertex 784.4853434517241 -63.070195901225645 2.5
    vertex 792.8661214119132 -107.911471712174 2.5
    vertex 795.3374254241575 -70.3230012493822 2.5
  endloop
endfacet
facet normal -0.0 -0.0 1.0
  outer loop
    vertex 795.3374254241575 -70.3230012493822 2.5
    vertex 792.8661214119132 -107.911471712174 2.5
    vertex 793.0194551936124 -106.74678600921264 2.5
  endloop
endfacet
facet normal -0.0 -0.0 1.0
  outer loop
    vertex 795.3374254241575 -70.3230012493822 2.5
    vertex 793.0194551936124 -106.74678600921264 2.5
    vertex 793.4690070948833 -105.66147171217402 2.5
  endloop
endfacet
facet normal -0.0 -0.0 1.0
  outer loop
    vertex 795.3374254241575 -70.3230012493822 2.5
    vertex 793.4690070948833 -105.66147171217402 2.5
    vertex 794.1841408965738 -104.72949119683454 2.5
  endloop
endfacet
facet normal -0.0 -0.0 1.0
  outer loop
    vertex 795.3374254241575 -70.3230012493822 2.5
    vertex 794.1841408965738 -104.72949119683454 2.5
    vertex 795.1161214119132 -104.01435739514403 2.5
  endloop
endfacet
facet normal -0.0 -0.0 1.0
  outer loop
    vertex 795.3374254241575 -70.3230012493822 2.5
    vertex 795.1161214119132 -104.01435739514403 2.5
    vertex 796.2014357089519 -103.5648054938732 2.5
  endloop
endfacet
facet normal -0.0 -0.0 1.0
  outer loop
    vertex 795.3374254241575 -70.3230012493822 2.5
    vertex 796.2014357089519 -103.5648054938732 2.5
    vertex 803.9425675158124 -80.13739874169357 2.5
  endloop
endfacet
facet normal -0.0 -0.0 1.0
  outer loop
    vertex 803.9425675158124 -80.13739874169357 2.5
    vertex 796.2014357089519 -103.5648054938732 2.5
    vertex 797.3661214119132 -103.41147171217399 2.5
  endloop
endfacet
facet normal -0.0 -0.0 1.0
  outer loop
    vertex 803.9425675158124 -80.13739874169357 2.5
    vertex 797.3661214119132 -103.41147171217399 2.5
    vertex 798.5308071148746 -103.5648054938732 2.5
  endloop
endfacet
facet normal -0.0 -0.0 1.0
  outer loop
    vertex 803.9425675158124 -80.13739874169357 2.5
    vertex 798.5308071148746 -103.5648054938732 2.5
    vertex 799.6161214119132 -104.01435739514403 2.5
  endloop
endfacet
facet normal -0.0 -0.0 1.0
  outer loop
    vertex 803.9425675158124 -80.13739874169357 2.5
    vertex 799.6161214119132 -104.01435739514403 2.5
    vertex 800.5481019272527 -104.72949119683454 2.5
  endloop
endfacet
facet normal -0.0 -0.0 1.0
  outer loop
    vertex 803.9425675158124 -80.13739874169357 2.5
    vertex 800.5481019272527 -104.72949119683454 2.5
    vertex 801.2632357289432 -105.66147171217402 2.5
  endloop
endfacet
facet normal -0.0 -0.0 1.0
  outer loop
    vertex 803.9425675158124 -80.13739874169357 2.5
    vertex 801.2632357289432 -105.66147171217402 2.5
    vertex 801.712787630214 -106.74678600921264 2.5
  endloop
endfacet
facet normal -0.0 -0.0 1.0
  outer loop
    vertex 803.9425675158124 -80.13739874169357 2.5
    vertex 801.712787630214 -106.74678600921264 2.5
    vertex 801.8661214119132 -107.911471712174 2.5
  endloop
endfacet
facet normal -0.3826834323650885 0.9238795325112873 0.0
  outer loop
    vertex 798.5308071148746 -112.2581379304748 2.5
    vertex 799.6161214119132 -111.80858602920398 0.0
    vertex 798.5308071148746 -112.2581379304748 0.0
  endloop
endfacet
facet normal -0.3826834323650885 0.9238795325112873 0.0
  outer loop
    vertex 799.6161214119132 -111.80858602920398 0.0
    vertex 798.5308071148746 -112.2581379304748 2.5
    vertex 799.6161214119132 -111.80858602920398 2.5
  endloop
endfacet
facet normal 0.8314102930496821 -0.5556590002969825 0.0
  outer loop
    vertex 807.2073972228616 -130.03069375198498 0.0
    vertex 799.9545918747051 -140.88277572441817 2.5
    vertex 799.9545918747051 -140.88277572441817 0.0
  endloop
endfacet
facet normal 0.8314102930496821 -0.5556590002969825 0.0
  outer loop
    vertex 799.9545918747051 -140.88277572441817 2.5
    vertex 807.2073972228616 -130.03069375198498 0.0
    vertex 807.2073972228616 -130.03069375198498 2.5
  endloop
endfacet
facet normal 0.5556590002969825 0.8314102930496822 0.0
  outer loop
    vertex 784.4853434517241 -63.070195901225645 2.5
    vertex 795.3374254241575 -70.3230012493822 0.0
    vertex 784.4853434517241 -63.070195901225645 0.0
  endloop
endfacet
facet normal 0.5556590002969825 0.8314102930496822 0.0
  outer loop
    vertex 795.3374254241575 -70.3230012493822 0.0
    vertex 784.4853434517241 -63.070195901225645 2.5
    vertex 795.3374254241575 -70.3230012493822 2.5
  endloop
endfacet
facet normal 0.7519101971323457 0.6592655424397645 0.0
  outer loop
    vertex 795.3374254241575 -70.3230012493822 0.0
    vertex 803.9425675158124 -80.13739874169357 2.5
    vertex 803.9425675158124 -80.13739874169357 0.0
  endloop
endfacet
facet normal 0.7519101971323457 0.6592655424397645 0.0
  outer loop
    vertex 803.9425675158124 -80.13739874169357 2.5
    vertex 795.3374254241575 -70.3230012493822 0.0
    vertex 795.3374254241575 -70.3230012493822 2.5
  endloop
endfacet
facet normal 0.8969199566234929 0.4421929346003979 0.0
  outer loop
    vertex 803.9425675158124 -80.13739874169357 0.0
    vertex 809.7143435138124 -91.8445534081174 2.5
    vertex 809.7143435138124 -91.8445534081174 0.0
  endloop
endfacet
facet normal 0.8969199566234929 0.4421929346003979 0.0
  outer loop
    vertex 809.7143435138124 -91.8445534081174 2.5
    vertex 803.9425675158124 -80.13739874169357 0.0
    vertex 803.9425675158124 -80.13739874169357 2.5
  endloop
endfacet
facet normal 0.9808061033010588 0.19498560902639167 0.0
  outer loop
    vertex 809.7143435138124 -91.8445534081174 0.0
    vertex 812.2594164222047 -104.64664200512475 2.5
    vertex 812.2594164222047 -104.64664200512475 0.0
  endloop
endfacet
facet normal 0.9808061033010588 0.19498560902639167 0.0
  outer loop
    vertex 812.2594164222047 -104.64664200512475 2.5
    vertex 809.7143435138124 -91.8445534081174 0.0
    vertex 809.7143435138124 -91.8445534081174 2.5
  endloop
endfacet
facet normal 0.9978519348973807 -0.06550966357381044 0.0
  outer loop
    vertex 812.2594164222047 -104.64664200512475 0.0
    vertex 811.4043437282141 -117.67122335128138 2.5
    vertex 811.4043437282141 -117.67122335128138 0.0
  endloop
endfacet
facet normal 0.9978519348973807 -0.06550966357381044 0.0
  outer loop
    vertex 811.4043437282141 -117.67122335128138 2.5
    vertex 812.2594164222047 -104.64664200512475 0.0
    vertex 812.2594164222047 -104.64664200512475 2.5
  endloop
endfacet
facet normal 0.946895806158737 -0.32154056086129457 0.0
  outer loop
    vertex 811.4043437282141 -117.67122335128138 0.0
    vertex 807.2073972228616 -130.03069375198498 2.5
    vertex 807.2073972228616 -130.03069375198498 0.0
  endloop
endfacet
facet normal 0.946895806158737 -0.32154056086129457 0.0
  outer loop
    vertex 807.2073972228616 -130.03069375198498 2.5
    vertex 811.4043437282141 -117.67122335128138 0.0
    vertex 811.4043437282141 -117.67122335128138 2.5
  endloop
endfacet
facet normal 0.3826834323650908 0.9238795325112865 0.0
  outer loop
    vertex 795.1161214119132 -111.80858602920398 2.5
    vertex 796.2014357089519 -112.2581379304748 0.0
    vertex 795.1161214119132 -111.80858602920398 0.0
  endloop
endfacet
facet normal 0.3826834323650908 0.9238795325112865 0.0
  outer loop
    vertex 796.2014357089519 -112.2581379304748 0.0
    vertex 795.1161214119132 -111.80858602920398 2.5
    vertex 796.2014357089519 -112.2581379304748 2.5
  endloop
endfacet
facet normal 0.6592655424397645 -0.7519101971323457 0.0
  outer loop
    vertex 799.9545918747051 -140.88277572441817 2.5
    vertex 790.1401943823937 -149.48791781607312 0.0
    vertex 799.9545918747051 -140.88277572441817 0.0
  endloop
endfacet
facet normal 0.6592655424397645 -0.7519101971323457 0.0
  outer loop
    vertex 790.1401943823937 -149.48791781607312 0.0
    vertex 799.9545918747051 -140.88277572441817 2.5
    vertex 790.1401943823937 -149.48791781607312 2.5
  endloop
endfacet
facet normal -0.8969199566234923 -0.4421929346003988 -0.0
  outer loop
    vertex 715.0178993100141 -123.97839001623059 2.5
    vertex 720.7896753080141 -135.68554468265444 0.0
    vertex 720.7896753080141 -135.68554468265444 2.5
  endloop
endfacet
facet normal -0.8969199566234923 -0.4421929346003988 -0.0
  outer loop
    vertex 720.7896753080141 -135.68554468265444 0.0
    vertex 715.0178993100141 -123.97839001623059 2.5
    vertex 715.0178993100141 -123.97839001623059 0.0
  endloop
endfacet
facet normal 0.4421929346003979 -0.8969199566234929 0.0
  outer loop
    vertex 790.1401943823937 -149.48791781607312 2.5
    vertex 778.4330397159698 -155.25969381407313 0.0
    vertex 790.1401943823937 -149.48791781607312 0.0
  endloop
endfacet
facet normal 0.4421929346003979 -0.8969199566234929 0.0
  outer loop
    vertex 778.4330397159698 -155.25969381407313 0.0
    vertex 790.1401943823937 -149.48791781607312 2.5
    vertex 778.4330397159698 -155.25969381407313 2.5
  endloop
endfacet
facet normal -0.06550966357381062 -0.9978519348973807 -0.0
  outer loop
    vertex 765.6309511189625 -157.8047667224654 2.5
    vertex 752.6063697728059 -156.9496940284748 0.0
    vertex 765.6309511189625 -157.8047667224654 0.0
  endloop
endfacet
facet normal -0.06550966357381062 -0.9978519348973807 -0.0
  outer loop
    vertex 752.6063697728059 -156.9496940284748 0.0
    vertex 765.6309511189625 -157.8047667224654 2.5
    vertex 752.6063697728059 -156.9496940284748 2.5
  endloop
endfacet
facet normal 0.19498560902639145 -0.9808061033010589 0.0
  outer loop
    vertex 778.4330397159698 -155.25969381407313 2.5
    vertex 765.6309511189625 -157.8047667224654 0.0
    vertex 778.4330397159698 -155.25969381407313 0.0
  endloop
endfacet
facet normal 0.19498560902639145 -0.9808061033010589 0.0
  outer loop
    vertex 765.6309511189625 -157.8047667224654 0.0
    vertex 778.4330397159698 -155.25969381407313 2.5
    vertex 765.6309511189625 -157.8047667224654 2.5
  endloop
endfacet
facet normal -0.3215405608612941 -0.946895806158737 -0.0
  outer loop
    vertex 752.6063697728059 -156.9496940284748 2.5
    vertex 740.2468993721023 -152.75274752312234 0.0
    vertex 752.6063697728059 -156.9496940284748 0.0
  endloop
endfacet
facet normal -0.3215405608612941 -0.946895806158737 -0.0
  outer loop
    vertex 740.2468993721023 -152.75274752312234 0.0
    vertex 752.6063697728059 -156.9496940284748 2.5
    vertex 740.2468993721023 -152.75274752312234 2.5
  endloop
endfacet
facet normal -0.5556590002969823 -0.8314102930496821 -0.0
  outer loop
    vertex 740.2468993721023 -152.75274752312234 2.5
    vertex 729.394817399669 -145.4999421749658 0.0
    vertex 740.2468993721023 -152.75274752312234 0.0
  endloop
endfacet
facet normal -0.5556590002969823 -0.8314102930496821 -0.0
  outer loop
    vertex 729.394817399669 -145.4999421749658 0.0
    vertex 740.2468993721023 -152.75274752312234 2.5
    vertex 729.394817399669 -145.4999421749658 2.5
  endloop
endfacet
facet normal -0.7519101971323456 -0.6592655424397647 -0.0
  outer loop
    vertex 720.7896753080141 -135.68554468265444 2.5
    vertex 729.394817399669 -145.4999421749658 0.0
    vertex 729.394817399669 -145.4999421749658 2.5
  endloop
endfacet
facet normal -0.7519101971323456 -0.6592655424397647 -0.0
  outer loop
    vertex 729.394817399669 -145.4999421749658 0.0
    vertex 720.7896753080141 -135.68554468265444 2.5
    vertex 720.7896753080141 -135.68554468265444 0.0
  endloop
endfacet
facet normal 0.7933533402912368 0.6087614290087188 0.0
  outer loop
    vertex 793.4690070948833 -110.161471712174 0.0
    vertex 794.1841408965738 -111.09345222751347 2.5
    vertex 794.1841408965738 -111.09345222751347 0.0
  endloop
endfacet
facet normal 0.7933533402912368 0.6087614290087188 0.0
  outer loop
    vertex 794.1841408965738 -111.09345222751347 2.5
    vertex 793.4690070948833 -110.161471712174 0.0
    vertex 793.4690070948833 -110.161471712174 2.5
  endloop
endfacet
facet normal -0.3826834323650908 -0.9238795325112865 -0.0
  outer loop
    vertex 799.6161214119132 -104.01435739514403 2.5
    vertex 798.5308071148746 -103.5648054938732 0.0
    vertex 799.6161214119132 -104.01435739514403 0.0
  endloop
endfacet
facet normal -0.3826834323650908 -0.9238795325112865 -0.0
  outer loop
    vertex 798.5308071148746 -103.5648054938732 0.0
    vertex 799.6161214119132 -104.01435739514403 2.5
    vertex 798.5308071148746 -103.5648054938732 2.5
  endloop
endfacet
facet normal -0.7933533402912339 0.6087614290087225 0.0
  outer loop
    vertex 801.2632357289432 -110.161471712174 2.5
    vertex 800.5481019272527 -111.09345222751347 0.0
    vertex 800.5481019272527 -111.09345222751347 2.5
  endloop
endfacet
facet normal -0.7933533402912339 0.6087614290087225 0.0
  outer loop
    vertex 800.5481019272527 -111.09345222751347 0.0
    vertex 801.2632357289432 -110.161471712174 2.5
    vertex 801.2632357289432 -110.161471712174 0.0
  endloop
endfacet
facet normal -0.6087614290087223 0.7933533402912339 0.0
  outer loop
    vertex 799.6161214119132 -111.80858602920398 2.5
    vertex 800.5481019272527 -111.09345222751347 0.0
    vertex 799.6161214119132 -111.80858602920398 0.0
  endloop
endfacet
facet normal -0.6087614290087223 0.7933533402912339 0.0
  outer loop
    vertex 800.5481019272527 -111.09345222751347 0.0
    vertex 799.6161214119132 -111.80858602920398 2.5
    vertex 800.5481019272527 -111.09345222751347 2.5
  endloop
endfacet
facet normal -0.9238795325112866 0.38268343236509056 0.0
  outer loop
    vertex 801.712787630214 -109.07615741513536 2.5
    vertex 801.2632357289432 -110.161471712174 0.0
    vertex 801.2632357289432 -110.161471712174 2.5
  endloop
endfacet
facet normal -0.9238795325112866 0.38268343236509056 0.0
  outer loop
    vertex 801.2632357289432 -110.161471712174 0.0
    vertex 801.712787630214 -109.07615741513536 2.5
    vertex 801.712787630214 -109.07615741513536 0.0
  endloop
endfacet
facet normal 0.32154056086129335 0.9468958061587373 0.0
  outer loop
    vertex 772.1258730510207 -58.87324939587321 2.5
    vertex 784.4853434517241 -63.070195901225645 0.0
    vertex 772.1258730510207 -58.87324939587321 0.0
  endloop
endfacet
facet normal 0.32154056086129335 0.9468958061587373 0.0
  outer loop
    vertex 784.4853434517241 -63.070195901225645 0.0
    vertex 772.1258730510207 -58.87324939587321 2.5
    vertex 784.4853434517241 -63.070195901225645 2.5
  endloop
endfacet
facet normal 0.13052619222005202 -0.9914448613738105 0.0
  outer loop
    vertex 797.3661214119132 -103.41147171217399 2.5
    vertex 796.2014357089519 -103.5648054938732 0.0
    vertex 797.3661214119132 -103.41147171217399 0.0
  endloop
endfacet
facet normal 0.13052619222005202 -0.9914448613738105 0.0
  outer loop
    vertex 796.2014357089519 -103.5648054938732 0.0
    vertex 797.3661214119132 -103.41147171217399 2.5
    vertex 796.2014357089519 -103.5648054938732 2.5
  endloop
endfacet
facet normal -0.13052619222005196 -0.9914448613738105 -0.0
  outer loop
    vertex 798.5308071148746 -103.5648054938732 2.5
    vertex 797.3661214119132 -103.41147171217399 0.0
    vertex 798.5308071148746 -103.5648054938732 0.0
  endloop
endfacet
facet normal -0.13052619222005196 -0.9914448613738105 -0.0
  outer loop
    vertex 797.3661214119132 -103.41147171217399 0.0
    vertex 798.5308071148746 -103.5648054938732 2.5
    vertex 797.3661214119132 -103.41147171217399 2.5
  endloop
endfacet
facet normal 0.9914448613738108 -0.13052619222004933 0.0
  outer loop
    vertex 793.0194551936124 -106.74678600921264 0.0
    vertex 792.8661214119132 -107.911471712174 2.5
    vertex 792.8661214119132 -107.911471712174 0.0
  endloop
endfacet
facet normal 0.9914448613738108 -0.13052619222004933 0.0
  outer loop
    vertex 792.8661214119132 -107.911471712174 2.5
    vertex 793.0194551936124 -106.74678600921264 0.0
    vertex 793.0194551936124 -106.74678600921264 2.5
  endloop
endfacet
facet normal 0.9238795325112867 -0.3826834323650904 0.0
  outer loop
    vertex 793.4690070948833 -105.66147171217402 0.0
    vertex 793.0194551936124 -106.74678600921264 2.5
    vertex 793.0194551936124 -106.74678600921264 0.0
  endloop
endfacet
facet normal 0.9238795325112867 -0.3826834323650904 0.0
  outer loop
    vertex 793.0194551936124 -106.74678600921264 2.5
    vertex 793.4690070948833 -105.66147171217402 0.0
    vertex 793.4690070948833 -105.66147171217402 2.5
  endloop
endfacet
facet normal 0.9238795325112867 0.3826834323650904 0.0
  outer loop
    vertex 793.0194551936124 -109.07615741513534 0.0
    vertex 793.4690070948833 -110.161471712174 2.5
    vertex 793.4690070948833 -110.161471712174 0.0
  endloop
endfacet
facet normal 0.9238795325112867 0.3826834323650904 0.0
  outer loop
    vertex 793.4690070948833 -110.161471712174 2.5
    vertex 793.0194551936124 -109.07615741513534 0.0
    vertex 793.0194551936124 -109.07615741513534 2.5
  endloop
endfacet
facet normal 0.9914448613738107 0.13052619222004938 0.0
  outer loop
    vertex 792.8661214119132 -107.911471712174 0.0
    vertex 793.0194551936124 -109.07615741513534 2.5
    vertex 793.0194551936124 -109.07615741513534 0.0
  endloop
endfacet
facet normal 0.9914448613738107 0.13052619222004938 0.0
  outer loop
    vertex 793.0194551936124 -109.07615741513534 2.5
    vertex 792.8661214119132 -107.911471712174 0.0
    vertex 792.8661214119132 -107.911471712174 2.5
  endloop
endfacet
facet normal -0.7933533402912372 -0.6087614290087181 -0.0
  outer loop
    vertex 800.5481019272527 -104.72949119683454 2.5
    vertex 801.2632357289432 -105.66147171217402 0.0
    vertex 801.2632357289432 -105.66147171217402 2.5
  endloop
endfacet
facet normal -0.7933533402912372 -0.6087614290087181 -0.0
  outer loop
    vertex 801.2632357289432 -105.66147171217402 0.0
    vertex 800.5481019272527 -104.72949119683454 2.5
    vertex 800.5481019272527 -104.72949119683454 0.0
  endloop
endfacet
facet normal -0.9238795325112866 -0.3826834323650905 -0.0
  outer loop
    vertex 801.2632357289432 -105.66147171217402 2.5
    vertex 801.712787630214 -106.74678600921264 0.0
    vertex 801.712787630214 -106.74678600921264 2.5
  endloop
endfacet
facet normal -0.9238795325112866 -0.3826834323650905 -0.0
  outer loop
    vertex 801.712787630214 -106.74678600921264 0.0
    vertex 801.2632357289432 -105.66147171217402 2.5
    vertex 801.2632357289432 -105.66147171217402 0.0
  endloop
endfacet
facet normal -0.9914448613738108 -0.13052619222004952 -0.0
  outer loop
    vertex 801.712787630214 -106.74678600921264 2.5
    vertex 801.8661214119132 -107.911471712174 0.0
    vertex 801.8661214119132 -107.911471712174 2.5
  endloop
endfacet
facet normal -0.9914448613738108 -0.13052619222004952 -0.0
  outer loop
    vertex 801.8661214119132 -107.911471712174 0.0
    vertex 801.712787630214 -106.74678600921264 2.5
    vertex 801.712787630214 -106.74678600921264 0.0
  endloop
endfacet
facet normal -0.9914448613738108 0.1305261922200491 0.0
  outer loop
    vertex 801.8661214119132 -107.911471712174 2.5
    vertex 801.712787630214 -109.07615741513536 0.0
    vertex 801.712787630214 -109.07615741513536 2.5
  endloop
endfacet
facet normal -0.9914448613738108 0.1305261922200491 0.0
  outer loop
    vertex 801.712787630214 -109.07615741513536 0.0
    vertex 801.8661214119132 -107.911471712174 2.5
    vertex 801.8661214119132 -107.911471712174 0.0
  endloop
endfacet
facet normal -0.60876142900872 -0.7933533402912357 -0.0
  outer loop
    vertex 800.5481019272527 -104.72949119683454 2.5
    vertex 799.6161214119132 -104.01435739514403 0.0
    vertex 800.5481019272527 -104.72949119683454 0.0
  endloop
endfacet
facet normal -0.60876142900872 -0.7933533402912357 -0.0
  outer loop
    vertex 799.6161214119132 -104.01435739514403 0.0
    vertex 800.5481019272527 -104.72949119683454 2.5
    vertex 799.6161214119132 -104.01435739514403 2.5
  endloop
endfacet
facet normal 0.3826834323650885 -0.9238795325112873 0.0
  outer loop
    vertex 796.2014357089519 -103.5648054938732 2.5
    vertex 795.1161214119132 -104.01435739514403 0.0
    vertex 796.2014357089519 -103.5648054938732 0.0
  endloop
endfacet
facet normal 0.3826834323650885 -0.9238795325112873 0.0
  outer loop
    vertex 795.1161214119132 -104.01435739514403 0.0
    vertex 796.2014357089519 -103.5648054938732 2.5
    vertex 795.1161214119132 -104.01435739514403 2.5
  endloop
endfacet
facet normal 0.6087614290087203 -0.7933533402912354 0.0
  outer loop
    vertex 795.1161214119132 -104.01435739514403 2.5
    vertex 794.1841408965738 -104.72949119683454 0.0
    vertex 795.1161214119132 -104.01435739514403 0.0
  endloop
endfacet
facet normal 0.6087614290087203 -0.7933533402912354 0.0
  outer loop
    vertex 794.1841408965738 -104.72949119683454 0.0
    vertex 795.1161214119132 -104.01435739514403 2.5
    vertex 794.1841408965738 -104.72949119683454 2.5
  endloop
endfacet
facet normal 0.60876142900872 0.7933533402912357 0.0
  outer loop
    vertex 794.1841408965738 -111.09345222751347 2.5
    vertex 795.1161214119132 -111.80858602920398 0.0
    vertex 794.1841408965738 -111.09345222751347 0.0
  endloop
endfacet
facet normal 0.60876142900872 0.7933533402912357 0.0
  outer loop
    vertex 795.1161214119132 -111.80858602920398 0.0
    vertex 794.1841408965738 -111.09345222751347 2.5
    vertex 795.1161214119132 -111.80858602920398 2.5
  endloop
endfacet
facet normal 0.13052619222005138 0.9914448613738106 0.0
  outer loop
    vertex 796.2014357089519 -112.2581379304748 2.5
    vertex 797.3661214119132 -112.41147171217402 0.0
    vertex 796.2014357089519 -112.2581379304748 0.0
  endloop
endfacet
facet normal 0.13052619222005138 0.9914448613738106 0.0
  outer loop
    vertex 797.3661214119132 -112.41147171217402 0.0
    vertex 796.2014357089519 -112.2581379304748 2.5
    vertex 797.3661214119132 -112.41147171217402 2.5
  endloop
endfacet
facet normal -0.1305261922200514 0.9914448613738105 0.0
  outer loop
    vertex 797.3661214119132 -112.41147171217402 2.5
    vertex 798.5308071148746 -112.2581379304748 0.0
    vertex 797.3661214119132 -112.41147171217402 0.0
  endloop
endfacet
facet normal -0.1305261922200514 0.9914448613738105 0.0
  outer loop
    vertex 798.5308071148746 -112.2581379304748 0.0
    vertex 797.3661214119132 -112.41147171217402 2.5
    vertex 798.5308071148746 -112.2581379304748 2.5
  endloop
endfacet
facet normal -0.6592655424397647 0.7519101971323456 0.0
  outer loop
    vertex 724.7776509491215 -74.94016769992983 2.5
    vertex 734.5920484414328 -66.33502560827489 0.0
    vertex 724.7776509491215 -74.94016769992983 0.0
  endloop
endfacet
facet normal -0.6592655424397647 0.7519101971323456 0.0
  outer loop
    vertex 734.5920484414328 -66.33502560827489 0.0
    vertex 724.7776509491215 -74.94016769992983 2.5
    vertex 734.5920484414328 -66.33502560827489 2.5
  endloop
endfacet
facet normal -0.442192934600399 0.8969199566234924 0.0
  outer loop
    vertex 734.5920484414328 -66.33502560827489 2.5
    vertex 746.2992031078567 -60.56324961027486 0.0
    vertex 734.5920484414328 -66.33502560827489 0.0
  endloop
endfacet
facet normal -0.442192934600399 0.8969199566234924 0.0
  outer loop
    vertex 746.2992031078567 -60.56324961027486 0.0
    vertex 734.5920484414328 -66.33502560827489 2.5
    vertex 746.2992031078567 -60.56324961027486 2.5
  endloop
endfacet
facet normal -0.19498560902639137 0.9808061033010588 0.0
  outer loop
    vertex 746.2992031078567 -60.56324961027486 2.5
    vertex 759.1012917048639 -58.018176701882595 0.0
    vertex 746.2992031078567 -60.56324961027486 0.0
  endloop
endfacet
facet normal -0.19498560902639137 0.9808061033010588 0.0
  outer loop
    vertex 759.1012917048639 -58.018176701882595 0.0
    vertex 746.2992031078567 -60.56324961027486 2.5
    vertex 759.1012917048639 -58.018176701882595 2.5
  endloop
endfacet
facet normal 0.06550966357381059 0.9978519348973807 0.0
  outer loop
    vertex 759.1012917048639 -58.018176701882595 2.5
    vertex 772.1258730510207 -58.87324939587321 0.0
    vertex 759.1012917048639 -58.018176701882595 0.0
  endloop
endfacet
facet normal 0.06550966357381059 0.9978519348973807 0.0
  outer loop
    vertex 772.1258730510207 -58.87324939587321 0.0
    vertex 759.1012917048639 -58.018176701882595 2.5
    vertex 772.1258730510207 -58.87324939587321 2.5
  endloop
endfacet
facet normal -0.9808061033010589 -0.1949856090263912 -0.0
  outer loop
    vertex 712.4728264016219 -111.17630141922325 2.5
    vertex 715.0178993100141 -123.97839001623059 0.0
    vertex 715.0178993100141 -123.97839001623059 2.5
  endloop
endfacet
facet normal -0.9808061033010589 -0.1949856090263912 -0.0
  outer loop
    vertex 715.0178993100141 -123.97839001623059 0.0
    vertex 712.4728264016219 -111.17630141922325 2.5
    vertex 712.4728264016219 -111.17630141922325 0.0
  endloop
endfacet
facet normal -0.9978519348973807 0.06550966357381056 0.0
  outer loop
    vertex 713.3278990956126 -98.15172007306664 2.5
    vertex 712.4728264016219 -111.17630141922325 0.0
    vertex 712.4728264016219 -111.17630141922325 2.5
  endloop
endfacet
facet normal -0.9978519348973807 0.06550966357381056 0.0
  outer loop
    vertex 712.4728264016219 -111.17630141922325 0.0
    vertex 713.3278990956126 -98.15172007306664 2.5
    vertex 713.3278990956126 -98.15172007306664 0.0
  endloop
endfacet
facet normal -0.9468958061587373 0.32154056086129384 0.0
  outer loop
    vertex 717.5248456009649 -85.79224967236306 2.5
    vertex 713.3278990956126 -98.15172007306664 0.0
    vertex 713.3278990956126 -98.15172007306664 2.5
  endloop
endfacet
facet normal -0.9468958061587373 0.32154056086129384 0.0
  outer loop
    vertex 713.3278990956126 -98.15172007306664 0.0
    vertex 717.5248456009649 -85.79224967236306 2.5
    vertex 717.5248456009649 -85.79224967236306 0.0
  endloop
endfacet
facet normal -0.8314102930496822 0.5556590002969821 0.0
  outer loop
    vertex 724.7776509491215 -74.94016769992983 2.5
    vertex 717.5248456009649 -85.79224967236306 0.0
    vertex 717.5248456009649 -85.79224967236306 2.5
  endloop
endfacet
facet normal -0.8314102930496822 0.5556590002969821 0.0
  outer loop
    vertex 717.5248456009649 -85.79224967236306 0.0
    vertex 724.7776509491215 -74.94016769992983 2.5
    vertex 724.7776509491215 -74.94016769992983 0.0
  endloop
endfacet
facet normal 0.0 0.0 -1.0
  outer loop
    vertex 759.1012917048639 -58.018176701882595 0.0
    vertex 761.400195585624 -107.65265266707146 0.0
    vertex 761.3661214119131 -107.911471712174 0.0
  endloop
endfacet
facet normal 0.0 0.0 -1.0
  outer loop
    vertex 761.400195585624 -107.65265266707146 0.0
    vertex 759.1012917048639 -58.018176701882595 0.0
    vertex 772.1258730510207 -58.87324939587321 0.0
  endloop
endfacet
facet normal 0.0 0.0 -1.0
  outer loop
    vertex 761.400195585624 -107.65265266707146 0.0
    vertex 772.1258730510207 -58.87324939587321 0.0
    vertex 761.5000960081287 -107.41147171217398 0.0
  endloop
endfacet
facet normal 0.0 0.0 -1.0
  outer loop
    vertex 761.5000960081287 -107.41147171217398 0.0
    vertex 772.1258730510207 -58.87324939587321 0.0
    vertex 761.6590146307266 -107.20436493098742 0.0
  endloop
endfacet
facet normal 0.0 0.0 -1.0
  outer loop
    vertex 761.6590146307266 -107.20436493098742 0.0
    vertex 772.1258730510207 -58.87324939587321 0.0
    vertex 761.8661214119132 -107.04544630838951 0.0
  endloop
endfacet
facet normal 0.0 0.0 -1.0
  outer loop
    vertex 761.8661214119132 -107.04544630838951 0.0
    vertex 772.1258730510207 -58.87324939587321 0.0
    vertex 762.1073023668107 -106.9455458858849 0.0
  endloop
endfacet
facet normal 0.0 0.0 -1.0
  outer loop
    vertex 762.1073023668107 -106.9455458858849 0.0
    vertex 772.1258730510207 -58.87324939587321 0.0
    vertex 762.3661214119132 -106.91147171217396 0.0
  endloop
endfacet
facet normal 0.0 0.0 -1.0
  outer loop
    vertex 762.3661214119132 -106.91147171217396 0.0
    vertex 772.1258730510207 -58.87324939587321 0.0
    vertex 762.6249404570158 -106.9455458858849 0.0
  endloop
endfacet
facet normal 0.0 0.0 -1.0
  outer loop
    vertex 762.6249404570158 -106.9455458858849 0.0
    vertex 772.1258730510207 -58.87324939587321 0.0
    vertex 762.8661214119132 -107.04544630838951 0.0
  endloop
endfacet
facet normal 0.0 0.0 -1.0
  outer loop
    vertex 762.8661214119132 -107.04544630838951 0.0
    vertex 772.1258730510207 -58.87324939587321 0.0
    vertex 763.0732281930998 -107.20436493098742 0.0
  endloop
endfacet
facet normal 0.0 0.0 -1.0
  outer loop
    vertex 763.0732281930998 -107.20436493098742 0.0
    vertex 772.1258730510207 -58.87324939587321 0.0
    vertex 763.2321468156977 -107.41147171217398 0.0
  endloop
endfacet
facet normal 0.0 0.0 -1.0
  outer loop
    vertex 763.2321468156977 -107.41147171217398 0.0
    vertex 772.1258730510207 -58.87324939587321 0.0
    vertex 763.3320472382023 -107.65265266707146 0.0
  endloop
endfacet
facet normal 0.0 0.0 -1.0
  outer loop
    vertex 763.3320472382023 -107.65265266707146 0.0
    vertex 772.1258730510207 -58.87324939587321 0.0
    vertex 763.3661214119132 -107.911471712174 0.0
  endloop
endfacet
facet normal 0.0 0.0 -1.0
  outer loop
    vertex 763.3661214119132 -107.911471712174 0.0
    vertex 772.1258730510207 -58.87324939587321 0.0
    vertex 765.6309511189625 -157.8047667224654 0.0
  endloop
endfacet
facet normal 0.0 0.0 -1.0
  outer loop
    vertex 765.6309511189625 -157.8047667224654 0.0
    vertex 772.1258730510207 -58.87324939587321 0.0
    vertex 778.4330397159698 -155.25969381407313 0.0
  endloop
endfacet
facet normal 0.0 0.0 -1.0
  outer loop
    vertex 778.4330397159698 -155.25969381407313 0.0
    vertex 772.1258730510207 -58.87324939587321 0.0
    vertex 784.4853434517241 -63.070195901225645 0.0
  endloop
endfacet
facet normal 0.0 0.0 -1.0
  outer loop
    vertex 778.4330397159698 -155.25969381407313 0.0
    vertex 784.4853434517241 -63.070195901225645 0.0
    vertex 790.1401943823937 -149.48791781607312 0.0
  endloop
endfacet
facet normal 0.0 0.0 -1.0
  outer loop
    vertex 790.1401943823937 -149.48791781607312 0.0
    vertex 784.4853434517241 -63.070195901225645 0.0
    vertex 792.8661214119132 -107.911471712174 0.0
  endloop
endfacet
facet normal 0.0 0.0 -1.0
  outer loop
    vertex 792.8661214119132 -107.911471712174 0.0
    vertex 784.4853434517241 -63.070195901225645 0.0
    vertex 795.3374254241575 -70.3230012493822 0.0
  endloop
endfacet
facet normal 0.0 0.0 -1.0
  outer loop
    vertex 792.8661214119132 -107.911471712174 0.0
    vertex 795.3374254241575 -70.3230012493822 0.0
    vertex 793.0194551936124 -106.74678600921264 0.0
  endloop
endfacet
facet normal 0.0 0.0 -1.0
  outer loop
    vertex 793.0194551936124 -106.74678600921264 0.0
    vertex 795.3374254241575 -70.3230012493822 0.0
    vertex 793.4690070948833 -105.66147171217402 0.0
  endloop
endfacet
facet normal 0.0 0.0 -1.0
  outer loop
    vertex 793.4690070948833 -105.66147171217402 0.0
    vertex 795.3374254241575 -70.3230012493822 0.0
    vertex 794.1841408965738 -104.72949119683454 0.0
  endloop
endfacet
facet normal 0.0 0.0 -1.0
  outer loop
    vertex 794.1841408965738 -104.72949119683454 0.0
    vertex 795.3374254241575 -70.3230012493822 0.0
    vertex 795.1161214119132 -104.01435739514403 0.0
  endloop
endfacet
facet normal 0.0 0.0 -1.0
  outer loop
    vertex 795.1161214119132 -104.01435739514403 0.0
    vertex 795.3374254241575 -70.3230012493822 0.0
    vertex 796.2014357089519 -103.5648054938732 0.0
  endloop
endfacet
facet normal 0.0 0.0 -1.0
  outer loop
    vertex 796.2014357089519 -103.5648054938732 0.0
    vertex 795.3374254241575 -70.3230012493822 0.0
    vertex 803.9425675158124 -80.13739874169357 0.0
  endloop
endfacet
facet normal 0.0 0.0 -1.0
  outer loop
    vertex 796.2014357089519 -103.5648054938732 0.0
    vertex 803.9425675158124 -80.13739874169357 0.0
    vertex 797.3661214119132 -103.41147171217399 0.0
  endloop
endfacet
facet normal 0.0 0.0 -1.0
  outer loop
    vertex 797.3661214119132 -103.41147171217399 0.0
    vertex 803.9425675158124 -80.13739874169357 0.0
    vertex 798.5308071148746 -103.5648054938732 0.0
  endloop
endfacet
facet normal 0.0 0.0 -1.0
  outer loop
    vertex 798.5308071148746 -103.5648054938732 0.0
    vertex 803.9425675158124 -80.13739874169357 0.0
    vertex 799.6161214119132 -104.01435739514403 0.0
  endloop
endfacet
facet normal 0.0 0.0 -1.0
  outer loop
    vertex 799.6161214119132 -104.01435739514403 0.0
    vertex 803.9425675158124 -80.13739874169357 0.0
    vertex 800.5481019272527 -104.72949119683454 0.0
  endloop
endfacet
facet normal 0.0 0.0 -1.0
  outer loop
    vertex 800.5481019272527 -104.72949119683454 0.0
    vertex 803.9425675158124 -80.13739874169357 0.0
    vertex 801.2632357289432 -105.66147171217402 0.0
  endloop
endfacet
facet normal 0.0 0.0 -1.0
  outer loop
    vertex 801.2632357289432 -105.66147171217402 0.0
    vertex 803.9425675158124 -80.13739874169357 0.0
    vertex 801.712787630214 -106.74678600921264 0.0
  endloop
endfacet
facet normal 0.0 0.0 -1.0
  outer loop
    vertex 801.712787630214 -106.74678600921264 0.0
    vertex 803.9425675158124 -80.13739874169357 0.0
    vertex 801.8661214119132 -107.911471712174 0.0
  endloop
endfacet
facet normal 0.0 0.0 -1.0
  outer loop
    vertex 790.1401943823937 -149.48791781607312 0.0
    vertex 793.0194551936124 -109.07615741513534 0.0
    vertex 799.9545918747051 -140.88277572441817 0.0
  endloop
endfacet
facet normal 0.0 0.0 -1.0
  outer loop
    vertex 793.0194551936124 -109.07615741513534 0.0
    vertex 790.1401943823937 -149.48791781607312 0.0
    vertex 792.8661214119132 -107.911471712174 0.0
  endloop
endfacet
facet normal 0.0 0.0 -1.0
  outer loop
    vertex 799.9545918747051 -140.88277572441817 0.0
    vertex 793.0194551936124 -109.07615741513534 0.0
    vertex 793.4690070948833 -110.161471712174 0.0
  endloop
endfacet
facet normal 0.0 0.0 -1.0
  outer loop
    vertex 799.9545918747051 -140.88277572441817 0.0
    vertex 793.4690070948833 -110.161471712174 0.0
    vertex 794.1841408965738 -111.09345222751347 0.0
  endloop
endfacet
facet normal 0.0 0.0 -1.0
  outer loop
    vertex 799.9545918747051 -140.88277572441817 0.0
    vertex 794.1841408965738 -111.09345222751347 0.0
    vertex 795.1161214119132 -111.80858602920398 0.0
  endloop
endfacet
facet normal 0.0 0.0 -1.0
  outer loop
    vertex 799.9545918747051 -140.88277572441817 0.0
    vertex 795.1161214119132 -111.80858602920398 0.0
    vertex 796.2014357089519 -112.2581379304748 0.0
  endloop
endfacet
facet normal 0.0 0.0 -1.0
  outer loop
    vertex 799.9545918747051 -140.88277572441817 0.0
    vertex 796.2014357089519 -112.2581379304748 0.0
    vertex 797.3661214119132 -112.41147171217402 0.0
  endloop
endfacet
facet normal 0.0 0.0 -1.0
  outer loop
    vertex 799.9545918747051 -140.88277572441817 0.0
    vertex 797.3661214119132 -112.41147171217402 0.0
    vertex 798.5308071148746 -112.2581379304748 0.0
  endloop
endfacet
facet normal 0.0 0.0 -1.0
  outer loop
    vertex 799.9545918747051 -140.88277572441817 0.0
    vertex 798.5308071148746 -112.2581379304748 0.0
    vertex 799.6161214119132 -111.80858602920398 0.0
  endloop
endfacet
facet normal 0.0 0.0 -1.0
  outer loop
    vertex 799.9545918747051 -140.88277572441817 0.0
    vertex 799.6161214119132 -111.80858602920398 0.0
    vertex 800.5481019272527 -111.09345222751347 0.0
  endloop
endfacet
facet normal 0.0 0.0 -1.0
  outer loop
    vertex 799.9545918747051 -140.88277572441817 0.0
    vertex 800.5481019272527 -111.09345222751347 0.0
    vertex 807.2073972228616 -130.03069375198498 0.0
  endloop
endfacet
facet normal 0.0 0.0 -1.0
  outer loop
    vertex 807.2073972228616 -130.03069375198498 0.0
    vertex 800.5481019272527 -111.09345222751347 0.0
    vertex 801.2632357289432 -110.161471712174 0.0
  endloop
endfacet
facet normal 0.0 0.0 -1.0
  outer loop
    vertex 807.2073972228616 -130.03069375198498 0.0
    vertex 801.2632357289432 -110.161471712174 0.0
    vertex 801.712787630214 -109.07615741513536 0.0
  endloop
endfacet
facet normal 0.0 0.0 -1.0
  outer loop
    vertex 807.2073972228616 -130.03069375198498 0.0
    vertex 801.712787630214 -109.07615741513536 0.0
    vertex 801.8661214119132 -107.911471712174 0.0
  endloop
endfacet
facet normal 0.0 0.0 -1.0
  outer loop
    vertex 807.2073972228616 -130.03069375198498 0.0
    vertex 801.8661214119132 -107.911471712174 0.0
    vertex 803.9425675158124 -80.13739874169357 0.0
  endloop
endfacet
facet normal 0.0 0.0 -1.0
  outer loop
    vertex 807.2073972228616 -130.03069375198498 0.0
    vertex 803.9425675158124 -80.13739874169357 0.0
    vertex 809.7143435138124 -91.8445534081174 0.0
  endloop
endfacet
facet normal 0.0 0.0 -1.0
  outer loop
    vertex 807.2073972228616 -130.03069375198498 0.0
    vertex 809.7143435138124 -91.8445534081174 0.0
    vertex 811.4043437282141 -117.67122335128138 0.0
  endloop
endfacet
facet normal 0.0 0.0 -1.0
  outer loop
    vertex 811.4043437282141 -117.67122335128138 0.0
    vertex 809.7143435138124 -91.8445534081174 0.0
    vertex 812.2594164222047 -104.64664200512475 0.0
  endloop
endfacet
facet normal 0.0 0.0 -1.0
  outer loop
    vertex 713.3278990956126 -98.15172007306664 0.0
    vertex 715.0178993100141 -123.97839001623059 0.0
    vertex 712.4728264016219 -111.17630141922325 0.0
  endloop
endfacet
facet normal 0.0 0.0 -1.0
  outer loop
    vertex 715.0178993100141 -123.97839001623059 0.0
    vertex 713.3278990956126 -98.15172007306664 0.0
    vertex 717.5248456009649 -85.79224967236306 0.0
  endloop
endfacet
facet normal 0.0 0.0 -1.0
  outer loop
    vertex 715.0178993100141 -123.97839001623059 0.0
    vertex 717.5248456009649 -85.79224967236306 0.0
    vertex 720.7896753080141 -135.68554468265444 0.0
  endloop
endfacet
facet normal 0.0 0.0 -1.0
  outer loop
    vertex 720.7896753080141 -135.68554468265444 0.0
    vertex 717.5248456009649 -85.79224967236306 0.0
    vertex 724.7776509491215 -74.94016769992983 0.0
  endloop
endfacet
facet normal 0.0 0.0 -1.0
  outer loop
    vertex 720.7896753080141 -135.68554468265444 0.0
    vertex 724.7776509491215 -74.94016769992983 0.0
    vertex 729.394817399669 -145.4999421749658 0.0
  endloop
endfacet
facet normal 0.0 0.0 -1.0
  outer loop
    vertex 729.394817399669 -145.4999421749658 0.0
    vertex 724.7776509491215 -74.94016769992983 0.0
    vertex 734.5920484414328 -66.33502560827489 0.0
  endloop
endfacet
facet normal 0.0 0.0 -1.0
  outer loop
    vertex 729.394817399669 -145.4999421749658 0.0
    vertex 734.5920484414328 -66.33502560827489 0.0
    vertex 740.2468993721023 -152.75274752312234 0.0
  endloop
endfacet
facet normal 0.0 0.0 -1.0
  outer loop
    vertex 740.2468993721023 -152.75274752312234 0.0
    vertex 734.5920484414328 -66.33502560827489 0.0
    vertex 746.2992031078567 -60.56324961027486 0.0
  endloop
endfacet
facet normal 0.0 0.0 -1.0
  outer loop
    vertex 740.2468993721023 -152.75274752312234 0.0
    vertex 746.2992031078567 -60.56324961027486 0.0
    vertex 752.6063697728059 -156.9496940284748 0.0
  endloop
endfacet
facet normal 0.0 0.0 -1.0
  outer loop
    vertex 752.6063697728059 -156.9496940284748 0.0
    vertex 746.2992031078567 -60.56324961027486 0.0
    vertex 759.1012917048639 -58.018176701882595 0.0
  endloop
endfacet
facet normal 0.0 0.0 -1.0
  outer loop
    vertex 752.6063697728059 -156.9496940284748 0.0
    vertex 759.1012917048639 -58.018176701882595 0.0
    vertex 761.3661214119131 -107.911471712174 0.0
  endloop
endfacet
facet normal 0.0 0.0 -1.0
  outer loop
    vertex 752.6063697728059 -156.9496940284748 0.0
    vertex 761.3661214119131 -107.911471712174 0.0
    vertex 765.6309511189625 -157.8047667224654 0.0
  endloop
endfacet
facet normal 0.0 0.0 -1.0
  outer loop
    vertex 765.6309511189625 -157.8047667224654 0.0
    vertex 761.3661214119131 -107.911471712174 0.0
    vertex 761.400195585624 -108.17029075727653 0.0
  endloop
endfacet
facet normal 0.0 0.0 -1.0
  outer loop
    vertex 765.6309511189625 -157.8047667224654 0.0
    vertex 761.400195585624 -108.17029075727653 0.0
    vertex 761.5000960081287 -108.41147171217402 0.0
  endloop
endfacet
facet normal 0.0 0.0 -1.0
  outer loop
    vertex 765.6309511189625 -157.8047667224654 0.0
    vertex 761.5000960081287 -108.41147171217402 0.0
    vertex 761.6590146307266 -108.61857849336057 0.0
  endloop
endfacet
facet normal 0.0 0.0 -1.0
  outer loop
    vertex 765.6309511189625 -157.8047667224654 0.0
    vertex 761.6590146307266 -108.61857849336057 0.0
    vertex 761.8661214119131 -108.77749711595848 0.0
  endloop
endfacet
facet normal 0.0 0.0 -1.0
  outer loop
    vertex 765.6309511189625 -157.8047667224654 0.0
    vertex 761.8661214119131 -108.77749711595848 0.0
    vertex 762.1073023668107 -108.8773975384631 0.0
  endloop
endfacet
facet normal 0.0 0.0 -1.0
  outer loop
    vertex 765.6309511189625 -157.8047667224654 0.0
    vertex 762.1073023668107 -108.8773975384631 0.0
    vertex 762.3661214119132 -108.91147171217405 0.0
  endloop
endfacet
facet normal 0.0 0.0 -1.0
  outer loop
    vertex 765.6309511189625 -157.8047667224654 0.0
    vertex 762.3661214119132 -108.91147171217405 0.0
    vertex 762.6249404570158 -108.8773975384631 0.0
  endloop
endfacet
facet normal 0.0 0.0 -1.0
  outer loop
    vertex 765.6309511189625 -157.8047667224654 0.0
    vertex 762.6249404570158 -108.8773975384631 0.0
    vertex 762.8661214119132 -108.77749711595848 0.0
  endloop
endfacet
facet normal 0.0 0.0 -1.0
  outer loop
    vertex 765.6309511189625 -157.8047667224654 0.0
    vertex 762.8661214119132 -108.77749711595848 0.0
    vertex 763.0732281930998 -108.61857849336057 0.0
  endloop
endfacet
facet normal 0.0 0.0 -1.0
  outer loop
    vertex 765.6309511189625 -157.8047667224654 0.0
    vertex 763.0732281930998 -108.61857849336057 0.0
    vertex 763.2321468156977 -108.41147171217402 0.0
  endloop
endfacet
facet normal 0.0 0.0 -1.0
  outer loop
    vertex 765.6309511189625 -157.8047667224654 0.0
    vertex 763.2321468156977 -108.41147171217402 0.0
    vertex 763.3320472382023 -108.17029075727653 0.0
  endloop
endfacet
facet normal 0.0 0.0 -1.0
  outer loop
    vertex 765.6309511189625 -157.8047667224654 0.0
    vertex 763.3320472382023 -108.17029075727653 0.0
    vertex 763.3661214119132 -107.911471712174 0.0
  endloop
endfacet
endsolid contador rpm
