solid contador rpm
facet normal -1.2031856992204355e-14 1.0 1.2194449654261179e-15
  outer loop
    vertex 628.467890518186 -180.58743958031698 39.99999999999999
    vertex 643.4678905181861 -180.58743958031675 3.0000000000000906
    vertex 628.467890518186 -180.58743958031693 3.000000000000017
  endloop
endfacet
facet normal -1.2031856992204355e-14 1.0 1.2194449654261179e-15
  outer loop
    vertex 643.4678905181861 -180.58743958031675 3.0000000000000906
    vertex 628.467890518186 -180.58743958031698 39.99999999999999
    vertex 643.4678905181861 -180.58743958031678 40.000000000000085
  endloop
endfacet
facet normal -2.443970951541488e-15 -3.4878532810460657e-15 1.0
  outer loop
    vertex 643.4678905181861 -180.58743958031675 3.0000000000000906
    vertex 628.467890518186 -128.58743958031664 3.0000000000000826
    vertex 628.467890518186 -180.58743958031693 3.000000000000017
  endloop
endfacet
facet normal -2.443970951541488e-15 -3.4878532810460657e-15 1.0
  outer loop
    vertex 628.467890518186 -128.58743958031664 3.0000000000000826
    vertex 643.4678905181861 -180.58743958031675 3.0000000000000906
    vertex 643.4678905181861 -128.58743958031664 3.0000000000000826
  endloop
endfacet
facet normal 0.0 1.0 -7.519910620127796e-15
  outer loop
    vertex 628.467890518186 -128.58743958031664 3.0000000000000826
    vertex 643.4678905181861 -128.58743958031667 -1.9999999999998892
    vertex 628.467890518186 -128.58743958031667 -1.9999999999998892
  endloop
endfacet
facet normal 0.0 1.0 -7.519910620127796e-15
  outer loop
    vertex 643.4678905181861 -128.58743958031667 -1.9999999999998892
    vertex 628.467890518186 -128.58743958031664 3.0000000000000826
    vertex 643.4678905181861 -128.58743958031664 3.0000000000000826
  endloop
endfacet
facet normal 1.0 -0.0 -0.0
  outer loop
    vertex 643.4678905181861 -180.58743958031673 -1.9999999999999551
    vertex 643.4678905181861 -128.58743958031664 3.0000000000000826
    vertex 643.4678905181861 -180.58743958031675 3.0000000000000906
  endloop
endfacet
facet normal 1.0 -0.0 -0.0
  outer loop
    vertex 643.4678905181861 -128.58743958031664 3.0000000000000826
    vertex 643.4678905181861 -180.58743958031673 -1.9999999999999551
    vertex 643.4678905181861 -128.58743958031667 -1.9999999999998892
  endloop
endfacet
facet normal -0.0 1.0 -0.0
  outer loop
    vertex 607.4678905181854 -154.58743958031656 46.00000000000023
    vertex 664.4678905181867 -154.58743958031656 40.00000000000024
    vertex 607.4678905181854 -154.58743958031656 40.00000000000024
  endloop
endfacet
facet normal -0.0 1.0 -0.0
  outer loop
    vertex 664.4678905181867 -154.58743958031656 40.00000000000024
    vertex 607.4678905181854 -154.58743958031656 46.00000000000023
    vertex 664.4678905181867 -154.58743958031656 46.00000000000024
  endloop
endfacet
facet normal -1.0 0.0 0.0
  outer loop
    vertex 628.467890518186 -190.5874395803167 39.99999999999999
    vertex 628.467890518186 -180.58743958031693 3.000000000000017
    vertex 628.467890518186 -190.58743958031684 3.0000000000000226
  endloop
endfacet
facet normal -1.0 0.0 0.0
  outer loop
    vertex 628.467890518186 -180.58743958031693 3.000000000000017
    vertex 628.467890518186 -190.5874395803167 39.99999999999999
    vertex 628.467890518186 -180.58743958031698 39.99999999999999
  endloop
endfacet
facet normal -1.0 0.0 0.0
  outer loop
    vertex 607.4678905181854 -190.58743958031667 46.00000000000018
    vertex 607.4678905181854 -154.58743958031656 40.00000000000024
    vertex 607.4678905181854 -190.5874395803167 39.99999999999999
  endloop
endfacet
facet normal -1.0 0.0 0.0
  outer loop
    vertex 607.4678905181854 -154.58743958031656 40.00000000000024
    vertex 607.4678905181854 -190.58743958031667 46.00000000000018
    vertex 607.4678905181854 -154.58743958031656 46.00000000000023
  endloop
endfacet
facet normal -1.0 0.0 0.0
  outer loop
    vertex 628.467890518186 -128.58743958031664 3.0000000000000826
    vertex 628.467890518186 -180.5874395803169 -1.9999999999999551
    vertex 628.467890518186 -180.58743958031693 3.000000000000017
  endloop
endfacet
facet normal -1.0 0.0 0.0
  outer loop
    vertex 628.467890518186 -180.5874395803169 -1.9999999999999551
    vertex 628.467890518186 -128.58743958031664 3.0000000000000826
    vertex 628.467890518186 -128.58743958031667 -1.9999999999998892
  endloop
endfacet
facet normal -1.0 0.0 0.0
  outer loop
    vertex 598.4678905181853 -180.58743958031693 3.000000000000017
    vertex 598.4678905181853 -190.58743958031684 -1.9999999999999998
    vertex 598.4678905181853 -190.58743958031684 3.0000000000000226
  endloop
endfacet
facet normal -1.0 0.0 0.0
  outer loop
    vertex 598.4678905181853 -190.58743958031684 -1.9999999999999998
    vertex 598.4678905181853 -180.58743958031693 3.000000000000017
    vertex 598.4678905181853 -180.5874395803169 -1.9999999999999551
  endloop
endfacet
facet normal 0.0 5.639932965095844e-16 1.0
  outer loop
    vertex 628.467890518186 -190.58743958031684 3.0000000000000226
    vertex 598.4678905181853 -180.58743958031693 3.000000000000017
    vertex 598.4678905181853 -190.58743958031684 3.0000000000000226
  endloop
endfacet
facet normal 0.0 5.639932965095844e-16 1.0
  outer loop
    vertex 598.4678905181853 -180.58743958031693 3.000000000000017
    vertex 628.467890518186 -190.58743958031684 3.0000000000000226
    vertex 628.467890518186 -180.58743958031693 3.000000000000017
  endloop
endfacet
facet normal 0.0 1.0 7.519910620127796e-15
  outer loop
    vertex 598.4678905181853 -180.58743958031693 3.000000000000017
    vertex 628.467890518186 -180.5874395803169 -1.9999999999999551
    vertex 598.4678905181853 -180.5874395803169 -1.9999999999999551
  endloop
endfacet
facet normal 0.0 1.0 7.519910620127796e-15
  outer loop
    vertex 628.467890518186 -180.5874395803169 -1.9999999999999551
    vertex 598.4678905181853 -180.58743958031693 3.000000000000017
    vertex 628.467890518186 -180.58743958031693 3.000000000000017
  endloop
endfacet
facet normal 0.0 1.0 7.519910620127612e-15
  outer loop
    vertex 643.4678905181861 -180.58743958031675 3.0000000000000906
    vertex 673.4678905181861 -180.58743958031673 -1.9999999999999551
    vertex 643.4678905181861 -180.58743958031673 -1.9999999999999551
  endloop
endfacet
facet normal 0.0 1.0 7.519910620127612e-15
  outer loop
    vertex 673.4678905181861 -180.58743958031673 -1.9999999999999551
    vertex 643.4678905181861 -180.58743958031675 3.0000000000000906
    vertex 673.4678905181861 -180.58743958031675 3.0000000000000906
  endloop
endfacet
facet normal -1.543141411456008e-16 -1.4206995010757226e-15 1.0
  outer loop
    vertex 664.4678905181867 -190.58743958031667 46.00000000000018
    vertex 607.4678905181854 -154.58743958031656 46.00000000000023
    vertex 607.4678905181854 -190.58743958031667 46.00000000000018
  endloop
endfacet
facet normal -1.543141411456008e-16 -1.4206995010757226e-15 1.0
  outer loop
    vertex 607.4678905181854 -154.58743958031656 46.00000000000023
    vertex 664.4678905181867 -190.58743958031667 46.00000000000018
    vertex 664.4678905181867 -154.58743958031656 46.00000000000024
  endloop
endfacet
facet normal -2.509724160577141e-30 -1.0 3.604527524371481e-15
  outer loop
    vertex 664.4678905181867 -190.58743958031667 46.00000000000018
    vertex 643.4678905181861 -190.5874395803167 40.000000000000085
    vertex 664.4678905181867 -190.5874395803167 40.000000000000085
  endloop
endfacet
facet normal -2.509724160577141e-30 -1.0 3.604527524371481e-15
  outer loop
    vertex 673.4678905181861 -190.58743958031684 3.00000000000009
    vertex 598.4678905181853 -190.58743958031684 -1.9999999999999998
    vertex 673.4678905181861 -190.58743958031684 -1.9999999999999998
  endloop
endfacet
facet normal -2.509724160577141e-30 -1.0 3.604527524371481e-15
  outer loop
    vertex 598.4678905181853 -190.58743958031684 -1.9999999999999998
    vertex 673.4678905181861 -190.58743958031684 3.00000000000009
    vertex 628.467890518186 -190.58743958031684 3.0000000000000226
  endloop
endfacet
facet normal -2.509724160577141e-30 -1.0 3.604527524371481e-15
  outer loop
    vertex 628.467890518186 -190.58743958031684 3.0000000000000226
    vertex 673.4678905181861 -190.58743958031684 3.00000000000009
    vertex 643.4678905181861 -190.58743958031684 3.00000000000009
  endloop
endfacet
facet normal -2.509724160577141e-30 -1.0 3.604527524371481e-15
  outer loop
    vertex 628.467890518186 -190.58743958031684 3.0000000000000226
    vertex 643.4678905181861 -190.58743958031684 3.00000000000009
    vertex 628.467890518186 -190.5874395803167 39.99999999999999
  endloop
endfacet
facet normal -2.509724160577141e-30 -1.0 3.604527524371481e-15
  outer loop
    vertex 628.467890518186 -190.5874395803167 39.99999999999999
    vertex 643.4678905181861 -190.58743958031684 3.00000000000009
    vertex 643.4678905181861 -190.5874395803167 40.000000000000085
  endloop
endfacet
facet normal -2.509724160577141e-30 -1.0 3.604527524371481e-15
  outer loop
    vertex 628.467890518186 -190.5874395803167 39.99999999999999
    vertex 643.4678905181861 -190.5874395803167 40.000000000000085
    vertex 607.4678905181854 -190.5874395803167 39.99999999999999
  endloop
endfacet
facet normal -2.509724160577141e-30 -1.0 3.604527524371481e-15
  outer loop
    vertex 607.4678905181854 -190.5874395803167 39.99999999999999
    vertex 643.4678905181861 -190.5874395803167 40.000000000000085
    vertex 607.4678905181854 -190.58743958031667 46.00000000000018
  endloop
endfacet
facet normal -2.509724160577141e-30 -1.0 3.604527524371481e-15
  outer loop
    vertex 607.4678905181854 -190.58743958031667 46.00000000000018
    vertex 643.4678905181861 -190.5874395803167 40.000000000000085
    vertex 664.4678905181867 -190.58743958031667 46.00000000000018
  endloop
endfacet
facet normal -2.509724160577141e-30 -1.0 3.604527524371481e-15
  outer loop
    vertex 598.4678905181853 -190.58743958031684 3.0000000000000226
    vertex 598.4678905181853 -190.58743958031684 -1.9999999999999998
    vertex 628.467890518186 -190.58743958031684 3.0000000000000226
  endloop
endfacet
facet normal -4.103528645577045e-20 4.464538602603715e-15 -1.0
  outer loop
    vertex 643.4678905181861 -128.58743958031667 -1.9999999999998892
    vertex 628.467890518186 -180.5874395803169 -1.9999999999999551
    vertex 628.467890518186 -128.58743958031667 -1.9999999999998892
  endloop
endfacet
facet normal -4.103528645577045e-20 4.464538602603715e-15 -1.0
  outer loop
    vertex 628.467890518186 -180.5874395803169 -1.9999999999999551
    vertex 598.4678905181853 -190.58743958031684 -1.9999999999999998
    vertex 598.4678905181853 -180.5874395803169 -1.9999999999999551
  endloop
endfacet
facet normal -4.103528645577045e-20 4.464538602603715e-15 -1.0
  outer loop
    vertex 598.4678905181853 -190.58743958031684 -1.9999999999999998
    vertex 628.467890518186 -180.5874395803169 -1.9999999999999551
    vertex 673.4678905181861 -190.58743958031684 -1.9999999999999998
  endloop
endfacet
facet normal -4.103528645577045e-20 4.464538602603715e-15 -1.0
  outer loop
    vertex 673.4678905181861 -190.58743958031684 -1.9999999999999998
    vertex 628.467890518186 -180.5874395803169 -1.9999999999999551
    vertex 643.4678905181861 -180.58743958031673 -1.9999999999999551
  endloop
endfacet
facet normal -4.103528645577045e-20 4.464538602603715e-15 -1.0
  outer loop
    vertex 643.4678905181861 -180.58743958031673 -1.9999999999999551
    vertex 628.467890518186 -180.5874395803169 -1.9999999999999551
    vertex 643.4678905181861 -128.58743958031667 -1.9999999999998892
  endloop
endfacet
facet normal -4.103528645577045e-20 4.464538602603715e-15 -1.0
  outer loop
    vertex 673.4678905181861 -190.58743958031684 -1.9999999999999998
    vertex 643.4678905181861 -180.58743958031673 -1.9999999999999551
    vertex 673.4678905181861 -180.58743958031673 -1.9999999999999551
  endloop
endfacet
facet normal 1.0 0.0 0.0
  outer loop
    vertex 664.4678905181867 -154.58743958031656 40.00000000000024
    vertex 664.4678905181867 -190.58743958031667 46.00000000000018
    vertex 664.4678905181867 -190.5874395803167 40.000000000000085
  endloop
endfacet
facet normal 1.0 0.0 0.0
  outer loop
    vertex 664.4678905181867 -190.58743958031667 46.00000000000018
    vertex 664.4678905181867 -154.58743958031656 40.00000000000024
    vertex 664.4678905181867 -154.58743958031656 46.00000000000024
  endloop
endfacet
facet normal 9.535860401037635e-16 5.756104798717188e-15 -1.0
  outer loop
    vertex 664.4678905181867 -154.58743958031656 40.00000000000024
    vertex 607.4678905181854 -190.5874395803167 39.99999999999999
    vertex 607.4678905181854 -154.58743958031656 40.00000000000024
  endloop
endfacet
facet normal 9.535860401037635e-16 5.756104798717188e-15 -1.0
  outer loop
    vertex 607.4678905181854 -190.5874395803167 39.99999999999999
    vertex 664.4678905181867 -154.58743958031656 40.00000000000024
    vertex 628.467890518186 -180.58743958031698 39.99999999999999
  endloop
endfacet
facet normal 9.535860401037635e-16 5.756104798717188e-15 -1.0
  outer loop
    vertex 628.467890518186 -180.58743958031698 39.99999999999999
    vertex 664.4678905181867 -154.58743958031656 40.00000000000024
    vertex 643.4678905181861 -180.58743958031678 40.000000000000085
  endloop
endfacet
facet normal 9.535860401037635e-16 5.756104798717188e-15 -1.0
  outer loop
    vertex 643.4678905181861 -180.58743958031678 40.000000000000085
    vertex 664.4678905181867 -154.58743958031656 40.00000000000024
    vertex 643.4678905181861 -190.5874395803167 40.000000000000085
  endloop
endfacet
facet normal 9.535860401037635e-16 5.756104798717188e-15 -1.0
  outer loop
    vertex 643.4678905181861 -190.5874395803167 40.000000000000085
    vertex 664.4678905181867 -154.58743958031656 40.00000000000024
    vertex 664.4678905181867 -190.5874395803167 40.000000000000085
  endloop
endfacet
facet normal 9.535860401037635e-16 5.756104798717188e-15 -1.0
  outer loop
    vertex 628.467890518186 -190.5874395803167 39.99999999999999
    vertex 607.4678905181854 -190.5874395803167 39.99999999999999
    vertex 628.467890518186 -180.58743958031698 39.99999999999999
  endloop
endfacet
facet normal 1.0 0.0 0.0
  outer loop
    vertex 673.4678905181861 -180.58743958031673 -1.9999999999999551
    vertex 673.4678905181861 -190.58743958031684 3.00000000000009
    vertex 673.4678905181861 -190.58743958031684 -1.9999999999999998
  endloop
endfacet
facet normal 1.0 0.0 0.0
  outer loop
    vertex 673.4678905181861 -190.58743958031684 3.00000000000009
    vertex 673.4678905181861 -180.58743958031673 -1.9999999999999551
    vertex 673.4678905181861 -180.58743958031675 3.0000000000000906
  endloop
endfacet
facet normal 1.0 -0.0 -0.0
  outer loop
    vertex 643.4678905181861 -180.58743958031675 3.0000000000000906
    vertex 643.4678905181861 -190.5874395803167 40.000000000000085
    vertex 643.4678905181861 -190.58743958031684 3.00000000000009
  endloop
endfacet
facet normal 1.0 -0.0 -0.0
  outer loop
    vertex 643.4678905181861 -190.5874395803167 40.000000000000085
    vertex 643.4678905181861 -180.58743958031675 3.0000000000000906
    vertex 643.4678905181861 -180.58743958031678 40.000000000000085
  endloop
endfacet
facet normal 0.0 -3.524958103184839e-17 1.0
  outer loop
    vertex 673.4678905181861 -190.58743958031684 3.00000000000009
    vertex 643.4678905181861 -180.58743958031675 3.0000000000000906
    vertex 643.4678905181861 -190.58743958031684 3.00000000000009
  endloop
endfacet
facet normal 0.0 -3.524958103184839e-17 1.0
  outer loop
    vertex 643.4678905181861 -180.58743958031675 3.0000000000000906
    vertex 673.4678905181861 -190.58743958031684 3.00000000000009
    vertex 673.4678905181861 -180.58743958031675 3.0000000000000906
  endloop
endfacet
endsolid contador rpm
