solid contador rpm
facet normal 0.7933533402912363 -0.6087614290087193 0.0
  outer loop
    vertex -80.1819805153396 3.181980515339449 0.0
    vertex -80.8971143170301 2.2499999999999845 2.5
    vertex -80.8971143170301 2.2499999999999845 0.0
  endloop
endfacet
facet normal 0.7933533402912363 -0.6087614290087193 0.0
  outer loop
    vertex -80.8971143170301 2.2499999999999845 2.5
    vertex -80.1819805153396 3.181980515339449 0.0
    vertex -80.1819805153396 3.181980515339449 2.5
  endloop
endfacet
facet normal -0.13052619222005132 -0.9914448613738106 -0.0
  outer loop
    vertex -111.57294857558098 1.5937776133769515 2.5
    vertex -112.00000000000013 1.6499999999999857 0.0
    vertex -111.57294857558098 1.5937776133769515 0.0
  endloop
endfacet
facet normal -0.13052619222005132 -0.9914448613738106 -0.0
  outer loop
    vertex -112.00000000000013 1.6499999999999857 0.0
    vertex -111.57294857558098 1.5937776133769515 2.5
    vertex -112.00000000000013 1.6499999999999857 2.5
  endloop
endfacet
facet normal 0.0 0.0 1.0
  outer loop
    vertex -159.34822210189927 -16.06691830405662 2.5
    vertex -161.03822231630093 9.759751639107343 2.5
    vertex -161.89329501029152 -3.264829707049246 2.5
  endloop
endfacet
facet normal 0.0 0.0 1.0
  outer loop
    vertex -161.03822231630093 9.759751639107343 2.5
    vertex -159.34822210189927 -16.06691830405662 2.5
    vertex -156.84127581094847 22.119222039810936 2.5
  endloop
endfacet
facet normal 0.0 0.0 1.0
  outer loop
    vertex -156.84127581094847 22.119222039810936 2.5
    vertex -159.34822210189927 -16.06691830405662 2.5
    vertex -153.57644610389923 -27.774072970480454 2.5
  endloop
endfacet
facet normal 0.0 0.0 1.0
  outer loop
    vertex -156.84127581094847 22.119222039810936 2.5
    vertex -153.57644610389923 -27.774072970480454 2.5
    vertex -149.58847046279195 32.97130401224416 2.5
  endloop
endfacet
facet normal 0.0 0.0 1.0
  outer loop
    vertex -149.58847046279195 32.97130401224416 2.5
    vertex -153.57644610389923 -27.774072970480454 2.5
    vertex -144.9713040122443 -37.5884704627918 2.5
  endloop
endfacet
facet normal 0.0 0.0 1.0
  outer loop
    vertex -149.58847046279195 32.97130401224416 2.5
    vertex -144.9713040122443 -37.5884704627918 2.5
    vertex -139.77407297048057 41.5764461038991 2.5
  endloop
endfacet
facet normal 0.0 0.0 1.0
  outer loop
    vertex -139.77407297048057 41.5764461038991 2.5
    vertex -144.9713040122443 -37.5884704627918 2.5
    vertex -134.1192220398111 -44.84127581094835 2.5
  endloop
endfacet
facet normal 0.0 0.0 1.0
  outer loop
    vertex -139.77407297048057 41.5764461038991 2.5
    vertex -134.1192220398111 -44.84127581094835 2.5
    vertex -128.06691830405674 47.34822210189913 2.5
  endloop
endfacet
facet normal 0.0 0.0 1.0
  outer loop
    vertex -128.06691830405674 47.34822210189913 2.5
    vertex -134.1192220398111 -44.84127581094835 2.5
    vertex -121.75975163910749 -49.0382223163008 2.5
  endloop
endfacet
facet normal 0.0 0.0 1.0
  outer loop
    vertex -128.06691830405674 47.34822210189913 2.5
    vertex -121.75975163910749 -49.0382223163008 2.5
    vertex -115.26482970704937 49.89329501029139 2.5
  endloop
endfacet
facet normal 0.0 0.0 1.0
  outer loop
    vertex -115.26482970704937 49.89329501029139 2.5
    vertex -121.75975163910749 -49.0382223163008 2.5
    vertex -113.16672618895794 -1.1667261889578153 2.5
  endloop
endfacet
facet normal 0.0 0.0 1.0
  outer loop
    vertex -113.16672618895794 -1.1667261889578153 2.5
    vertex -121.75975163910749 -49.0382223163008 2.5
    vertex -108.73517029295091 -49.89329501029141 2.5
  endloop
endfacet
facet normal 0.0 0.0 1.0
  outer loop
    vertex -113.16672618895794 -1.1667261889578153 2.5
    vertex -108.73517029295091 -49.89329501029141 2.5
    vertex -112.82500000000013 -1.4289419162443355 2.5
  endloop
endfacet
facet normal 0.0 0.0 1.0
  outer loop
    vertex -112.82500000000013 -1.4289419162443355 2.5
    vertex -108.73517029295091 -49.89329501029141 2.5
    vertex -112.42705142441929 -1.5937776133769739 2.5
  endloop
endfacet
facet normal 0.0 0.0 1.0
  outer loop
    vertex -112.42705142441929 -1.5937776133769739 2.5
    vertex -108.73517029295091 -49.89329501029141 2.5
    vertex -112.00000000000013 -1.6500000000000083 2.5
  endloop
endfacet
facet normal 0.0 0.0 1.0
  outer loop
    vertex -112.00000000000013 -1.6500000000000083 2.5
    vertex -108.73517029295091 -49.89329501029141 2.5
    vertex -111.57294857558098 -1.5937776133769739 2.5
  endloop
endfacet
facet normal 0.0 0.0 1.0
  outer loop
    vertex -111.57294857558098 -1.5937776133769739 2.5
    vertex -108.73517029295091 -49.89329501029141 2.5
    vertex -111.17500000000014 -1.4289419162443355 2.5
  endloop
endfacet
facet normal 0.0 0.0 1.0
  outer loop
    vertex -111.17500000000014 -1.4289419162443355 2.5
    vertex -108.73517029295091 -49.89329501029141 2.5
    vertex -110.83327381104233 -1.1667261889578153 2.5
  endloop
endfacet
facet normal 0.0 0.0 1.0
  outer loop
    vertex -110.83327381104233 -1.1667261889578153 2.5
    vertex -108.73517029295091 -49.89329501029141 2.5
    vertex -110.57105808375582 -0.8250000000000154 2.5
  endloop
endfacet
facet normal 0.0 0.0 1.0
  outer loop
    vertex -110.57105808375582 -0.8250000000000154 2.5
    vertex -108.73517029295091 -49.89329501029141 2.5
    vertex -110.40622238662317 -0.4270514244191699 2.5
  endloop
endfacet
facet normal 0.0 0.0 1.0
  outer loop
    vertex -110.40622238662317 -0.4270514244191699 2.5
    vertex -108.73517029295091 -49.89329501029141 2.5
    vertex -110.35000000000015 -1.127986593019159e-14 2.5
  endloop
endfacet
facet normal 0.0 0.0 1.0
  outer loop
    vertex -84.22592702951971 -41.57644610389914 2.5
    vertex -81.34666621830094 -1.1646857029613524 2.5
    vertex -81.50000000000013 -1.127986593019159e-14 2.5
  endloop
endfacet
facet normal 0.0 0.0 1.0
  outer loop
    vertex -81.34666621830094 -1.1646857029613524 2.5
    vertex -84.22592702951971 -41.57644610389914 2.5
    vertex -74.41152953720834 -32.97130401224419 2.5
  endloop
endfacet
facet normal 0.0 0.0 1.0
  outer loop
    vertex -81.34666621830094 -1.1646857029613524 2.5
    vertex -74.41152953720834 -32.97130401224419 2.5
    vertex -80.8971143170301 -2.250000000000013 2.5
  endloop
endfacet
facet normal 0.0 0.0 1.0
  outer loop
    vertex -80.8971143170301 -2.250000000000013 2.5
    vertex -74.41152953720834 -32.97130401224419 2.5
    vertex -80.1819805153396 -3.1819805153394776 2.5
  endloop
endfacet
facet normal 0.0 0.0 1.0
  outer loop
    vertex -80.1819805153396 -3.1819805153394776 2.5
    vertex -74.41152953720834 -32.97130401224419 2.5
    vertex -79.25000000000014 -3.8971143170299847 2.5
  endloop
endfacet
facet normal 0.0 0.0 1.0
  outer loop
    vertex -79.25000000000014 -3.8971143170299847 2.5
    vertex -74.41152953720834 -32.97130401224419 2.5
    vertex -78.16468570296149 -4.346666218300818 2.5
  endloop
endfacet
facet normal 0.0 0.0 1.0
  outer loop
    vertex -78.16468570296149 -4.346666218300818 2.5
    vertex -74.41152953720834 -32.97130401224419 2.5
    vertex -77.00000000000013 -4.500000000000014 2.5
  endloop
endfacet
facet normal 0.0 0.0 1.0
  outer loop
    vertex -77.00000000000013 -4.500000000000014 2.5
    vertex -74.41152953720834 -32.97130401224419 2.5
    vertex -75.83531429703879 -4.346666218300818 2.5
  endloop
endfacet
facet normal 0.0 0.0 1.0
  outer loop
    vertex -75.83531429703879 -4.346666218300818 2.5
    vertex -74.41152953720834 -32.97130401224419 2.5
    vertex -74.75000000000013 -3.8971143170299847 2.5
  endloop
endfacet
facet normal 0.0 0.0 1.0
  outer loop
    vertex -74.75000000000013 -3.8971143170299847 2.5
    vertex -74.41152953720834 -32.97130401224419 2.5
    vertex -73.81801948466068 -3.1819805153394776 2.5
  endloop
endfacet
facet normal 0.0 0.0 1.0
  outer loop
    vertex -73.81801948466068 -3.1819805153394776 2.5
    vertex -74.41152953720834 -32.97130401224419 2.5
    vertex -67.1587241890518 -22.119222039810982 2.5
  endloop
endfacet
facet normal 0.0 0.0 1.0
  outer loop
    vertex -73.81801948466068 -3.1819805153394776 2.5
    vertex -67.1587241890518 -22.119222039810982 2.5
    vertex -73.10288568297015 -2.250000000000013 2.5
  endloop
endfacet
facet normal 0.0 0.0 1.0
  outer loop
    vertex -73.10288568297015 -2.250000000000013 2.5
    vertex -67.1587241890518 -22.119222039810982 2.5
    vertex -72.65333378169932 -1.1646857029613582 2.5
  endloop
endfacet
facet normal 0.0 0.0 1.0
  outer loop
    vertex -72.65333378169932 -1.1646857029613582 2.5
    vertex -67.1587241890518 -22.119222039810982 2.5
    vertex -72.50000000000014 -1.127986593019159e-14 2.5
  endloop
endfacet
facet normal 0.0 0.0 1.0
  outer loop
    vertex -72.50000000000014 -1.127986593019159e-14 2.5
    vertex -67.1587241890518 -22.119222039810982 2.5
    vertex -70.42355389610101 27.77407297048041 2.5
  endloop
endfacet
facet normal 0.0 0.0 1.0
  outer loop
    vertex -70.42355389610101 27.77407297048041 2.5
    vertex -67.1587241890518 -22.119222039810982 2.5
    vertex -64.65177789810099 16.066918304056585 2.5
  endloop
endfacet
facet normal 0.0 0.0 1.0
  outer loop
    vertex -64.65177789810099 16.066918304056585 2.5
    vertex -67.1587241890518 -22.119222039810982 2.5
    vertex -62.96177768369934 -9.759751639107394 2.5
  endloop
endfacet
facet normal 0.0 0.0 1.0
  outer loop
    vertex -64.65177789810099 16.066918304056585 2.5
    vertex -62.96177768369934 -9.759751639107394 2.5
    vertex -62.10670498970873 3.2648297070492234 2.5
  endloop
endfacet
facet normal 0.0 0.0 1.0
  outer loop
    vertex -115.26482970704937 49.89329501029139 2.5
    vertex -113.16672618895794 1.166726188957793 2.5
    vertex -102.24024836089279 49.03822231630078 2.5
  endloop
endfacet
facet normal 0.0 0.0 1.0
  outer loop
    vertex -113.16672618895794 1.166726188957793 2.5
    vertex -115.26482970704937 49.89329501029139 2.5
    vertex -113.16672618895794 -1.1667261889578153 2.5
  endloop
endfacet
facet normal 0.0 0.0 1.0
  outer loop
    vertex -102.24024836089279 49.03822231630078 2.5
    vertex -113.16672618895794 1.166726188957793 2.5
    vertex -112.82500000000013 1.428941916244313 2.5
  endloop
endfacet
facet normal 0.0 0.0 1.0
  outer loop
    vertex -102.24024836089279 49.03822231630078 2.5
    vertex -112.82500000000013 1.428941916244313 2.5
    vertex -112.42705142441929 1.5937776133769515 2.5
  endloop
endfacet
facet normal 0.0 0.0 1.0
  outer loop
    vertex -102.24024836089279 49.03822231630078 2.5
    vertex -112.42705142441929 1.5937776133769515 2.5
    vertex -112.00000000000013 1.6499999999999857 2.5
  endloop
endfacet
facet normal 0.0 0.0 1.0
  outer loop
    vertex -102.24024836089279 49.03822231630078 2.5
    vertex -112.00000000000013 1.6499999999999857 2.5
    vertex -111.57294857558098 1.5937776133769515 2.5
  endloop
endfacet
facet normal 0.0 0.0 1.0
  outer loop
    vertex -102.24024836089279 49.03822231630078 2.5
    vertex -111.57294857558098 1.5937776133769515 2.5
    vertex -111.17500000000014 1.428941916244313 2.5
  endloop
endfacet
facet normal 0.0 0.0 1.0
  outer loop
    vertex -102.24024836089279 49.03822231630078 2.5
    vertex -111.17500000000014 1.428941916244313 2.5
    vertex -110.83327381104233 1.166726188957793 2.5
  endloop
endfacet
facet normal 0.0 0.0 1.0
  outer loop
    vertex -102.24024836089279 49.03822231630078 2.5
    vertex -110.83327381104233 1.166726188957793 2.5
    vertex -110.57105808375582 0.8249999999999872 2.5
  endloop
endfacet
facet normal 0.0 0.0 1.0
  outer loop
    vertex -102.24024836089279 49.03822231630078 2.5
    vertex -110.57105808375582 0.8249999999999872 2.5
    vertex -110.40622238662317 0.42705142441914734 2.5
  endloop
endfacet
facet normal 0.0 0.0 1.0
  outer loop
    vertex -102.24024836089279 49.03822231630078 2.5
    vertex -110.40622238662317 0.42705142441914734 2.5
    vertex -110.35000000000015 -1.127986593019159e-14 2.5
  endloop
endfacet
facet normal 0.0 0.0 1.0
  outer loop
    vertex -102.24024836089279 49.03822231630078 2.5
    vertex -110.35000000000015 -1.127986593019159e-14 2.5
    vertex -108.73517029295091 -49.89329501029141 2.5
  endloop
endfacet
facet normal 0.0 0.0 1.0
  outer loop
    vertex -102.24024836089279 49.03822231630078 2.5
    vertex -108.73517029295091 -49.89329501029141 2.5
    vertex -95.93308169594354 -47.348222101899154 2.5
  endloop
endfacet
facet normal 0.0 0.0 1.0
  outer loop
    vertex -102.24024836089279 49.03822231630078 2.5
    vertex -95.93308169594354 -47.348222101899154 2.5
    vertex -89.88077796018918 44.841275810948346 2.5
  endloop
endfacet
facet normal 0.0 0.0 1.0
  outer loop
    vertex -89.88077796018918 44.841275810948346 2.5
    vertex -95.93308169594354 -47.348222101899154 2.5
    vertex -84.22592702951971 -41.57644610389914 2.5
  endloop
endfacet
facet normal 0.0 0.0 1.0
  outer loop
    vertex -89.88077796018918 44.841275810948346 2.5
    vertex -84.22592702951971 -41.57644610389914 2.5
    vertex -81.50000000000013 -1.127986593019159e-14 2.5
  endloop
endfacet
facet normal 0.0 0.0 1.0
  outer loop
    vertex -89.88077796018918 44.841275810948346 2.5
    vertex -81.50000000000013 -1.127986593019159e-14 2.5
    vertex -79.02869598775597 37.58847046279179 2.5
  endloop
endfacet
facet normal 0.0 0.0 1.0
  outer loop
    vertex -79.02869598775597 37.58847046279179 2.5
    vertex -81.50000000000013 -1.127986593019159e-14 2.5
    vertex -81.34666621830094 1.1646857029613356 2.5
  endloop
endfacet
facet normal 0.0 0.0 1.0
  outer loop
    vertex -79.02869598775597 37.58847046279179 2.5
    vertex -81.34666621830094 1.1646857029613356 2.5
    vertex -80.8971143170301 2.2499999999999845 2.5
  endloop
endfacet
facet normal 0.0 0.0 1.0
  outer loop
    vertex -79.02869598775597 37.58847046279179 2.5
    vertex -80.8971143170301 2.2499999999999845 2.5
    vertex -80.1819805153396 3.181980515339449 2.5
  endloop
endfacet
facet normal 0.0 0.0 1.0
  outer loop
    vertex -79.02869598775597 37.58847046279179 2.5
    vertex -80.1819805153396 3.181980515339449 2.5
    vertex -79.25000000000014 3.897114317029962 2.5
  endloop
endfacet
facet normal 0.0 0.0 1.0
  outer loop
    vertex -79.02869598775597 37.58847046279179 2.5
    vertex -79.25000000000014 3.897114317029962 2.5
    vertex -78.16468570296148 4.346666218300796 2.5
  endloop
endfacet
facet normal 0.0 0.0 1.0
  outer loop
    vertex -79.02869598775597 37.58847046279179 2.5
    vertex -78.16468570296148 4.346666218300796 2.5
    vertex -70.42355389610101 27.77407297048041 2.5
  endloop
endfacet
facet normal 0.0 0.0 1.0
  outer loop
    vertex -70.42355389610101 27.77407297048041 2.5
    vertex -78.16468570296148 4.346666218300796 2.5
    vertex -77.00000000000013 4.499999999999992 2.5
  endloop
endfacet
facet normal 0.0 0.0 1.0
  outer loop
    vertex -70.42355389610101 27.77407297048041 2.5
    vertex -77.00000000000013 4.499999999999992 2.5
    vertex -75.83531429703879 4.346666218300796 2.5
  endloop
endfacet
facet normal 0.0 0.0 1.0
  outer loop
    vertex -70.42355389610101 27.77407297048041 2.5
    vertex -75.83531429703879 4.346666218300796 2.5
    vertex -74.75000000000013 3.897114317029962 2.5
  endloop
endfacet
facet normal 0.0 0.0 1.0
  outer loop
    vertex -70.42355389610101 27.77407297048041 2.5
    vertex -74.75000000000013 3.897114317029962 2.5
    vertex -73.81801948466067 3.181980515339449 2.5
  endloop
endfacet
facet normal 0.0 0.0 1.0
  outer loop
    vertex -70.42355389610101 27.77407297048041 2.5
    vertex -73.81801948466067 3.181980515339449 2.5
    vertex -73.10288568297015 2.2499999999999845 2.5
  endloop
endfacet
facet normal 0.0 0.0 1.0
  outer loop
    vertex -70.42355389610101 27.77407297048041 2.5
    vertex -73.10288568297015 2.2499999999999845 2.5
    vertex -72.65333378169932 1.1646857029613356 2.5
  endloop
endfacet
facet normal 0.0 0.0 1.0
  outer loop
    vertex -70.42355389610101 27.77407297048041 2.5
    vertex -72.65333378169932 1.1646857029613356 2.5
    vertex -72.50000000000014 -1.127986593019159e-14 2.5
  endloop
endfacet
facet normal 0.5556590002969825 0.8314102930496822 0.0
  outer loop
    vertex -89.88077796018918 44.841275810948346 2.5
    vertex -79.02869598775597 37.58847046279179 0.0
    vertex -89.88077796018918 44.841275810948346 0.0
  endloop
endfacet
facet normal 0.5556590002969825 0.8314102930496822 0.0
  outer loop
    vertex -79.02869598775597 37.58847046279179 0.0
    vertex -89.88077796018918 44.841275810948346 2.5
    vertex -79.02869598775597 37.58847046279179 2.5
  endloop
endfacet
facet normal 0.7519101971323457 0.6592655424397645 0.0
  outer loop
    vertex -79.02869598775597 37.58847046279179 0.0
    vertex -70.42355389610101 27.77407297048041 2.5
    vertex -70.42355389610101 27.77407297048041 0.0
  endloop
endfacet
facet normal 0.7519101971323457 0.6592655424397645 0.0
  outer loop
    vertex -70.42355389610101 27.77407297048041 2.5
    vertex -79.02869598775597 37.58847046279179 0.0
    vertex -79.02869598775597 37.58847046279179 2.5
  endloop
endfacet
facet normal 0.8969199566234929 0.4421929346003979 0.0
  outer loop
    vertex -70.42355389610101 27.77407297048041 0.0
    vertex -64.65177789810099 16.066918304056585 2.5
    vertex -64.65177789810099 16.066918304056585 0.0
  endloop
endfacet
facet normal 0.8969199566234929 0.4421929346003979 0.0
  outer loop
    vertex -64.65177789810099 16.066918304056585 2.5
    vertex -70.42355389610101 27.77407297048041 0.0
    vertex -70.42355389610101 27.77407297048041 2.5
  endloop
endfacet
facet normal 0.9808061033010588 0.19498560902639167 0.0
  outer loop
    vertex -64.65177789810099 16.066918304056585 0.0
    vertex -62.10670498970873 3.2648297070492234 2.5
    vertex -62.10670498970873 3.2648297070492234 0.0
  endloop
endfacet
facet normal 0.9808061033010588 0.19498560902639167 0.0
  outer loop
    vertex -62.10670498970873 3.2648297070492234 2.5
    vertex -64.65177789810099 16.066918304056585 0.0
    vertex -64.65177789810099 16.066918304056585 2.5
  endloop
endfacet
facet normal 0.9978519348973807 -0.06550966357381044 0.0
  outer loop
    vertex -62.10670498970873 3.2648297070492234 0.0
    vertex -62.96177768369934 -9.759751639107394 2.5
    vertex -62.96177768369934 -9.759751639107394 0.0
  endloop
endfacet
facet normal 0.9978519348973807 -0.06550966357381044 0.0
  outer loop
    vertex -62.96177768369934 -9.759751639107394 2.5
    vertex -62.10670498970873 3.2648297070492234 0.0
    vertex -62.10670498970873 3.2648297070492234 2.5
  endloop
endfacet
facet normal 0.946895806158737 -0.32154056086129457 0.0
  outer loop
    vertex -62.96177768369934 -9.759751639107394 0.0
    vertex -67.1587241890518 -22.119222039810982 2.5
    vertex -67.1587241890518 -22.119222039810982 0.0
  endloop
endfacet
facet normal 0.946895806158737 -0.32154056086129457 0.0
  outer loop
    vertex -67.1587241890518 -22.119222039810982 2.5
    vertex -62.96177768369934 -9.759751639107394 0.0
    vertex -62.96177768369934 -9.759751639107394 2.5
  endloop
endfacet
facet normal 0.3826834323650908 0.9238795325112865 0.0
  outer loop
    vertex -79.25000000000014 -3.8971143170299847 2.5
    vertex -78.16468570296149 -4.346666218300818 0.0
    vertex -79.25000000000014 -3.8971143170299847 0.0
  endloop
endfacet
facet normal 0.3826834323650908 0.9238795325112865 0.0
  outer loop
    vertex -78.16468570296149 -4.346666218300818 0.0
    vertex -79.25000000000014 -3.8971143170299847 2.5
    vertex -78.16468570296149 -4.346666218300818 2.5
  endloop
endfacet
facet normal -0.3826834323650885 0.9238795325112873 0.0
  outer loop
    vertex -75.83531429703879 -4.346666218300818 2.5
    vertex -74.75000000000013 -3.8971143170299847 0.0
    vertex -75.83531429703879 -4.346666218300818 0.0
  endloop
endfacet
facet normal -0.3826834323650885 0.9238795325112873 0.0
  outer loop
    vertex -74.75000000000013 -3.8971143170299847 0.0
    vertex -75.83531429703879 -4.346666218300818 2.5
    vertex -74.75000000000013 -3.8971143170299847 2.5
  endloop
endfacet
facet normal 0.8314102930496821 -0.5556590002969825 0.0
  outer loop
    vertex -67.1587241890518 -22.119222039810982 0.0
    vertex -74.41152953720834 -32.97130401224419 2.5
    vertex -74.41152953720834 -32.97130401224419 0.0
  endloop
endfacet
facet normal 0.8314102930496821 -0.5556590002969825 0.0
  outer loop
    vertex -74.41152953720834 -32.97130401224419 2.5
    vertex -67.1587241890518 -22.119222039810982 0.0
    vertex -67.1587241890518 -22.119222039810982 2.5
  endloop
endfacet
facet normal 0.6592655424397645 -0.7519101971323457 0.0
  outer loop
    vertex -74.41152953720834 -32.97130401224419 2.5
    vertex -84.22592702951971 -41.57644610389914 0.0
    vertex -74.41152953720834 -32.97130401224419 0.0
  endloop
endfacet
facet normal 0.6592655424397645 -0.7519101971323457 0.0
  outer loop
    vertex -84.22592702951971 -41.57644610389914 0.0
    vertex -74.41152953720834 -32.97130401224419 2.5
    vertex -84.22592702951971 -41.57644610389914 2.5
  endloop
endfacet
facet normal -0.8969199566234923 -0.4421929346003988 -0.0
  outer loop
    vertex -159.34822210189927 -16.06691830405662 2.5
    vertex -153.57644610389923 -27.774072970480454 0.0
    vertex -153.57644610389923 -27.774072970480454 2.5
  endloop
endfacet
facet normal -0.8969199566234923 -0.4421929346003988 -0.0
  outer loop
    vertex -153.57644610389923 -27.774072970480454 0.0
    vertex -159.34822210189927 -16.06691830405662 2.5
    vertex -159.34822210189927 -16.06691830405662 0.0
  endloop
endfacet
facet normal 0.4421929346003979 -0.8969199566234929 0.0
  outer loop
    vertex -84.22592702951971 -41.57644610389914 2.5
    vertex -95.93308169594354 -47.348222101899154 0.0
    vertex -84.22592702951971 -41.57644610389914 0.0
  endloop
endfacet
facet normal 0.4421929346003979 -0.8969199566234929 0.0
  outer loop
    vertex -95.93308169594354 -47.348222101899154 0.0
    vertex -84.22592702951971 -41.57644610389914 2.5
    vertex -95.93308169594354 -47.348222101899154 2.5
  endloop
endfacet
facet normal -0.06550966357381062 -0.9978519348973807 -0.0
  outer loop
    vertex -108.73517029295091 -49.89329501029141 2.5
    vertex -121.75975163910749 -49.0382223163008 0.0
    vertex -108.73517029295091 -49.89329501029141 0.0
  endloop
endfacet
facet normal -0.06550966357381062 -0.9978519348973807 -0.0
  outer loop
    vertex -121.75975163910749 -49.0382223163008 0.0
    vertex -108.73517029295091 -49.89329501029141 2.5
    vertex -121.75975163910749 -49.0382223163008 2.5
  endloop
endfacet
facet normal -0.7933533402912348 0.6087614290087213 0.0
  outer loop
    vertex -110.57105808375582 -0.8250000000000154 2.5
    vertex -110.83327381104233 -1.1667261889578153 0.0
    vertex -110.83327381104233 -1.1667261889578153 2.5
  endloop
endfacet
facet normal -0.7933533402912348 0.6087614290087213 0.0
  outer loop
    vertex -110.83327381104233 -1.1667261889578153 0.0
    vertex -110.57105808375582 -0.8250000000000154 2.5
    vertex -110.57105808375582 -0.8250000000000154 0.0
  endloop
endfacet
facet normal -0.9238795325112871 0.38268343236508945 0.0
  outer loop
    vertex -110.40622238662317 -0.4270514244191699 2.5
    vertex -110.57105808375582 -0.8250000000000154 0.0
    vertex -110.57105808375582 -0.8250000000000154 2.5
  endloop
endfacet
facet normal -0.9238795325112871 0.38268343236508945 0.0
  outer loop
    vertex -110.57105808375582 -0.8250000000000154 0.0
    vertex -110.40622238662317 -0.4270514244191699 2.5
    vertex -110.40622238662317 -0.4270514244191699 0.0
  endloop
endfacet
facet normal 0.19498560902639145 -0.9808061033010589 0.0
  outer loop
    vertex -95.93308169594354 -47.348222101899154 2.5
    vertex -108.73517029295091 -49.89329501029141 0.0
    vertex -95.93308169594354 -47.348222101899154 0.0
  endloop
endfacet
facet normal 0.19498560902639145 -0.9808061033010589 0.0
  outer loop
    vertex -108.73517029295091 -49.89329501029141 0.0
    vertex -95.93308169594354 -47.348222101899154 2.5
    vertex -108.73517029295091 -49.89329501029141 2.5
  endloop
endfacet
facet normal -0.6087614290087245 0.7933533402912324 0.0
  outer loop
    vertex -111.17500000000014 -1.4289419162443355 2.5
    vertex -110.83327381104233 -1.1667261889578153 0.0
    vertex -111.17500000000014 -1.4289419162443355 0.0
  endloop
endfacet
facet normal -0.6087614290087245 0.7933533402912324 0.0
  outer loop
    vertex -110.83327381104233 -1.1667261889578153 0.0
    vertex -111.17500000000014 -1.4289419162443355 2.5
    vertex -110.83327381104233 -1.1667261889578153 2.5
  endloop
endfacet
facet normal -0.3215405608612941 -0.946895806158737 -0.0
  outer loop
    vertex -121.75975163910749 -49.0382223163008 2.5
    vertex -134.1192220398111 -44.84127581094835 0.0
    vertex -121.75975163910749 -49.0382223163008 0.0
  endloop
endfacet
facet normal -0.3215405608612941 -0.946895806158737 -0.0
  outer loop
    vertex -134.1192220398111 -44.84127581094835 0.0
    vertex -121.75975163910749 -49.0382223163008 2.5
    vertex -134.1192220398111 -44.84127581094835 2.5
  endloop
endfacet
facet normal 0.13052619222005132 -0.9914448613738106 0.0
  outer loop
    vertex -112.00000000000013 1.6499999999999857 2.5
    vertex -112.42705142441929 1.5937776133769515 0.0
    vertex -112.00000000000013 1.6499999999999857 0.0
  endloop
endfacet
facet normal 0.13052619222005132 -0.9914448613738106 0.0
  outer loop
    vertex -112.42705142441929 1.5937776133769515 0.0
    vertex -112.00000000000013 1.6499999999999857 2.5
    vertex -112.42705142441929 1.5937776133769515 2.5
  endloop
endfacet
facet normal -0.5556590002969823 -0.8314102930496821 -0.0
  outer loop
    vertex -134.1192220398111 -44.84127581094835 2.5
    vertex -144.9713040122443 -37.5884704627918 0.0
    vertex -134.1192220398111 -44.84127581094835 0.0
  endloop
endfacet
facet normal -0.5556590002969823 -0.8314102930496821 -0.0
  outer loop
    vertex -144.9713040122443 -37.5884704627918 0.0
    vertex -134.1192220398111 -44.84127581094835 2.5
    vertex -144.9713040122443 -37.5884704627918 2.5
  endloop
endfacet
facet normal -0.7519101971323456 -0.6592655424397647 -0.0
  outer loop
    vertex -153.57644610389923 -27.774072970480454 2.5
    vertex -144.9713040122443 -37.5884704627918 0.0
    vertex -144.9713040122443 -37.5884704627918 2.5
  endloop
endfacet
facet normal -0.7519101971323456 -0.6592655424397647 -0.0
  outer loop
    vertex -144.9713040122443 -37.5884704627918 0.0
    vertex -153.57644610389923 -27.774072970480454 2.5
    vertex -153.57644610389923 -27.774072970480454 0.0
  endloop
endfacet
facet normal 0.6087614290087245 -0.7933533402912324 0.0
  outer loop
    vertex -112.82500000000013 1.428941916244313 2.5
    vertex -113.16672618895794 1.166726188957793 0.0
    vertex -112.82500000000013 1.428941916244313 0.0
  endloop
endfacet
facet normal 0.6087614290087245 -0.7933533402912324 0.0
  outer loop
    vertex -113.16672618895794 1.166726188957793 0.0
    vertex -112.82500000000013 1.428941916244313 2.5
    vertex -113.16672618895794 1.166726188957793 2.5
  endloop
endfacet
facet normal 0.7933533402912368 0.6087614290087188 0.0
  outer loop
    vertex -80.8971143170301 -2.250000000000013 0.0
    vertex -80.1819805153396 -3.1819805153394776 2.5
    vertex -80.1819805153396 -3.1819805153394776 0.0
  endloop
endfacet
facet normal 0.7933533402912368 0.6087614290087188 0.0
  outer loop
    vertex -80.1819805153396 -3.1819805153394776 2.5
    vertex -80.8971143170301 -2.250000000000013 0.0
    vertex -80.8971143170301 -2.250000000000013 2.5
  endloop
endfacet
facet normal -0.13052619222005132 0.9914448613738106 0.0
  outer loop
    vertex -112.00000000000013 -1.6500000000000083 2.5
    vertex -111.57294857558098 -1.5937776133769739 0.0
    vertex -112.00000000000013 -1.6500000000000083 0.0
  endloop
endfacet
facet normal -0.13052619222005132 0.9914448613738106 0.0
  outer loop
    vertex -111.57294857558098 -1.5937776133769739 0.0
    vertex -112.00000000000013 -1.6500000000000083 2.5
    vertex -111.57294857558098 -1.5937776133769739 2.5
  endloop
endfacet
facet normal -0.3826834323650908 -0.9238795325112865 -0.0
  outer loop
    vertex -74.75000000000013 3.897114317029962 2.5
    vertex -75.83531429703879 4.346666218300796 0.0
    vertex -74.75000000000013 3.897114317029962 0.0
  endloop
endfacet
facet normal -0.3826834323650908 -0.9238795325112865 -0.0
  outer loop
    vertex -75.83531429703879 4.346666218300796 0.0
    vertex -74.75000000000013 3.897114317029962 2.5
    vertex -75.83531429703879 4.346666218300796 2.5
  endloop
endfacet
facet normal -0.7933533402912339 0.6087614290087225 0.0
  outer loop
    vertex -73.10288568297015 -2.250000000000013 2.5
    vertex -73.81801948466068 -3.1819805153394776 0.0
    vertex -73.81801948466068 -3.1819805153394776 2.5
  endloop
endfacet
facet normal -0.7933533402912339 0.6087614290087225 0.0
  outer loop
    vertex -73.81801948466068 -3.1819805153394776 0.0
    vertex -73.10288568297015 -2.250000000000013 2.5
    vertex -73.10288568297015 -2.250000000000013 0.0
  endloop
endfacet
facet normal -0.6087614290087223 0.7933533402912339 0.0
  outer loop
    vertex -74.75000000000013 -3.8971143170299847 2.5
    vertex -73.81801948466068 -3.1819805153394776 0.0
    vertex -74.75000000000013 -3.8971143170299847 0.0
  endloop
endfacet
facet normal -0.6087614290087223 0.7933533402912339 0.0
  outer loop
    vertex -73.81801948466068 -3.1819805153394776 0.0
    vertex -74.75000000000013 -3.8971143170299847 2.5
    vertex -73.81801948466068 -3.1819805153394776 2.5
  endloop
endfacet
facet normal -0.9238795325112866 0.38268343236509056 0.0
  outer loop
    vertex -72.65333378169932 -1.1646857029613582 2.5
    vertex -73.10288568297015 -2.250000000000013 0.0
    vertex -73.10288568297015 -2.250000000000013 2.5
  endloop
endfacet
facet normal -0.9238795325112866 0.38268343236509056 0.0
  outer loop
    vertex -73.10288568297015 -2.250000000000013 0.0
    vertex -72.65333378169932 -1.1646857029613582 2.5
    vertex -72.65333378169932 -1.1646857029613582 0.0
  endloop
endfacet
facet normal 0.32154056086129335 0.9468958061587373 0.0
  outer loop
    vertex -102.24024836089279 49.03822231630078 2.5
    vertex -89.88077796018918 44.841275810948346 0.0
    vertex -102.24024836089279 49.03822231630078 0.0
  endloop
endfacet
facet normal 0.32154056086129335 0.9468958061587373 0.0
  outer loop
    vertex -89.88077796018918 44.841275810948346 0.0
    vertex -102.24024836089279 49.03822231630078 2.5
    vertex -89.88077796018918 44.841275810948346 2.5
  endloop
endfacet
facet normal -0.7933533402912372 -0.6087614290087181 -0.0
  outer loop
    vertex -110.83327381104233 1.166726188957793 2.5
    vertex -110.57105808375582 0.8249999999999872 0.0
    vertex -110.57105808375582 0.8249999999999872 2.5
  endloop
endfacet
facet normal -0.7933533402912372 -0.6087614290087181 -0.0
  outer loop
    vertex -110.57105808375582 0.8249999999999872 0.0
    vertex -110.83327381104233 1.166726188957793 2.5
    vertex -110.83327381104233 1.166726188957793 0.0
  endloop
endfacet
facet normal -0.9238795325112871 -0.38268343236508945 -0.0
  outer loop
    vertex -110.57105808375582 0.8249999999999872 2.5
    vertex -110.40622238662317 0.42705142441914734 0.0
    vertex -110.40622238662317 0.42705142441914734 2.5
  endloop
endfacet
facet normal -0.9238795325112871 -0.38268343236508945 -0.0
  outer loop
    vertex -110.40622238662317 0.42705142441914734 0.0
    vertex -110.57105808375582 0.8249999999999872 2.5
    vertex -110.57105808375582 0.8249999999999872 0.0
  endloop
endfacet
facet normal 0.13052619222005132 0.9914448613738106 0.0
  outer loop
    vertex -112.42705142441929 -1.5937776133769739 2.5
    vertex -112.00000000000013 -1.6500000000000083 0.0
    vertex -112.42705142441929 -1.5937776133769739 0.0
  endloop
endfacet
facet normal 0.13052619222005132 0.9914448613738106 0.0
  outer loop
    vertex -112.00000000000013 -1.6500000000000083 0.0
    vertex -112.42705142441929 -1.5937776133769739 2.5
    vertex -112.00000000000013 -1.6500000000000083 2.5
  endloop
endfacet
facet normal 0.38268343236508473 0.9238795325112888 0.0
  outer loop
    vertex -112.82500000000013 -1.4289419162443355 2.5
    vertex -112.42705142441929 -1.5937776133769739 0.0
    vertex -112.82500000000013 -1.4289419162443355 0.0
  endloop
endfacet
facet normal 0.38268343236508473 0.9238795325112888 0.0
  outer loop
    vertex -112.42705142441929 -1.5937776133769739 0.0
    vertex -112.82500000000013 -1.4289419162443355 2.5
    vertex -112.42705142441929 -1.5937776133769739 2.5
  endloop
endfacet
facet normal 0.13052619222005202 -0.9914448613738105 0.0
  outer loop
    vertex -77.00000000000013 4.499999999999992 2.5
    vertex -78.16468570296148 4.346666218300796 0.0
    vertex -77.00000000000013 4.499999999999992 0.0
  endloop
endfacet
facet normal 0.13052619222005202 -0.9914448613738105 0.0
  outer loop
    vertex -78.16468570296148 4.346666218300796 0.0
    vertex -77.00000000000013 4.499999999999992 2.5
    vertex -78.16468570296148 4.346666218300796 2.5
  endloop
endfacet
facet normal -0.13052619222005196 -0.9914448613738105 -0.0
  outer loop
    vertex -75.83531429703879 4.346666218300796 2.5
    vertex -77.00000000000013 4.499999999999992 0.0
    vertex -75.83531429703879 4.346666218300796 0.0
  endloop
endfacet
facet normal -0.13052619222005196 -0.9914448613738105 -0.0
  outer loop
    vertex -77.00000000000013 4.499999999999992 0.0
    vertex -75.83531429703879 4.346666218300796 2.5
    vertex -77.00000000000013 4.499999999999992 2.5
  endloop
endfacet
facet normal -0.38268343236508473 -0.9238795325112888 -0.0
  outer loop
    vertex -111.17500000000014 1.428941916244313 2.5
    vertex -111.57294857558098 1.5937776133769515 0.0
    vertex -111.17500000000014 1.428941916244313 0.0
  endloop
endfacet
facet normal -0.38268343236508473 -0.9238795325112888 -0.0
  outer loop
    vertex -111.57294857558098 1.5937776133769515 0.0
    vertex -111.17500000000014 1.428941916244313 2.5
    vertex -111.57294857558098 1.5937776133769515 2.5
  endloop
endfacet
facet normal -0.6087614290087245 -0.7933533402912324 -0.0
  outer loop
    vertex -110.83327381104233 1.166726188957793 2.5
    vertex -111.17500000000014 1.428941916244313 0.0
    vertex -110.83327381104233 1.166726188957793 0.0
  endloop
endfacet
facet normal -0.6087614290087245 -0.7933533402912324 -0.0
  outer loop
    vertex -111.17500000000014 1.428941916244313 0.0
    vertex -110.83327381104233 1.166726188957793 2.5
    vertex -111.17500000000014 1.428941916244313 2.5
  endloop
endfacet
facet normal 0.9914448613738108 -0.13052619222004933 0.0
  outer loop
    vertex -81.34666621830094 1.1646857029613356 0.0
    vertex -81.50000000000013 -1.127986593019159e-14 2.5
    vertex -81.50000000000013 -1.127986593019159e-14 0.0
  endloop
endfacet
facet normal 0.9914448613738108 -0.13052619222004933 0.0
  outer loop
    vertex -81.50000000000013 -1.127986593019159e-14 2.5
    vertex -81.34666621830094 1.1646857029613356 0.0
    vertex -81.34666621830094 1.1646857029613356 2.5
  endloop
endfacet
facet normal 0.9238795325112867 -0.3826834323650904 0.0
  outer loop
    vertex -80.8971143170301 2.2499999999999845 0.0
    vertex -81.34666621830094 1.1646857029613356 2.5
    vertex -81.34666621830094 1.1646857029613356 0.0
  endloop
endfacet
facet normal 0.9238795325112867 -0.3826834323650904 0.0
  outer loop
    vertex -81.34666621830094 1.1646857029613356 2.5
    vertex -80.8971143170301 2.2499999999999845 0.0
    vertex -80.8971143170301 2.2499999999999845 2.5
  endloop
endfacet
facet normal 0.9238795325112867 0.3826834323650904 0.0
  outer loop
    vertex -81.34666621830094 -1.1646857029613524 0.0
    vertex -80.8971143170301 -2.250000000000013 2.5
    vertex -80.8971143170301 -2.250000000000013 0.0
  endloop
endfacet
facet normal 0.9238795325112867 0.3826834323650904 0.0
  outer loop
    vertex -80.8971143170301 -2.250000000000013 2.5
    vertex -81.34666621830094 -1.1646857029613524 0.0
    vertex -81.34666621830094 -1.1646857029613524 2.5
  endloop
endfacet
facet normal 0.9914448613738107 0.13052619222004938 0.0
  outer loop
    vertex -81.50000000000013 -1.127986593019159e-14 0.0
    vertex -81.34666621830094 -1.1646857029613524 2.5
    vertex -81.34666621830094 -1.1646857029613524 0.0
  endloop
endfacet
facet normal 0.9914448613738107 0.13052619222004938 0.0
  outer loop
    vertex -81.34666621830094 -1.1646857029613524 2.5
    vertex -81.50000000000013 -1.127986593019159e-14 0.0
    vertex -81.50000000000013 -1.127986593019159e-14 2.5
  endloop
endfacet
facet normal -0.9914448613738114 0.130526192220044 0.0
  outer loop
    vertex -110.35000000000015 -1.127986593019159e-14 2.5
    vertex -110.40622238662317 -0.4270514244191699 0.0
    vertex -110.40622238662317 -0.4270514244191699 2.5
  endloop
endfacet
facet normal -0.9914448613738114 0.130526192220044 0.0
  outer loop
    vertex -110.40622238662317 -0.4270514244191699 0.0
    vertex -110.35000000000015 -1.127986593019159e-14 2.5
    vertex -110.35000000000015 -1.127986593019159e-14 0.0
  endloop
endfacet
facet normal 0.6087614290087245 0.7933533402912324 0.0
  outer loop
    vertex -113.16672618895794 -1.1667261889578153 2.5
    vertex -112.82500000000013 -1.4289419162443355 0.0
    vertex -113.16672618895794 -1.1667261889578153 0.0
  endloop
endfacet
facet normal 0.6087614290087245 0.7933533402912324 0.0
  outer loop
    vertex -112.82500000000013 -1.4289419162443355 0.0
    vertex -113.16672618895794 -1.1667261889578153 2.5
    vertex -112.82500000000013 -1.4289419162443355 2.5
  endloop
endfacet
facet normal 1.0 0.0 0.0
  outer loop
    vertex -113.16672618895794 1.166726188957793 0.0
    vertex -113.16672618895794 -1.1667261889578153 2.5
    vertex -113.16672618895794 -1.1667261889578153 0.0
  endloop
endfacet
facet normal 1.0 0.0 0.0
  outer loop
    vertex -113.16672618895794 -1.1667261889578153 2.5
    vertex -113.16672618895794 1.166726188957793 0.0
    vertex -113.16672618895794 1.166726188957793 2.5
  endloop
endfacet
facet normal -0.7933533402912372 -0.6087614290087181 -0.0
  outer loop
    vertex -73.81801948466067 3.181980515339449 2.5
    vertex -73.10288568297015 2.2499999999999845 0.0
    vertex -73.10288568297015 2.2499999999999845 2.5
  endloop
endfacet
facet normal -0.7933533402912372 -0.6087614290087181 -0.0
  outer loop
    vertex -73.10288568297015 2.2499999999999845 0.0
    vertex -73.81801948466067 3.181980515339449 2.5
    vertex -73.81801948466067 3.181980515339449 0.0
  endloop
endfacet
facet normal -0.9238795325112866 -0.3826834323650905 -0.0
  outer loop
    vertex -73.10288568297015 2.2499999999999845 2.5
    vertex -72.65333378169932 1.1646857029613356 0.0
    vertex -72.65333378169932 1.1646857029613356 2.5
  endloop
endfacet
facet normal -0.9238795325112866 -0.3826834323650905 -0.0
  outer loop
    vertex -72.65333378169932 1.1646857029613356 0.0
    vertex -73.10288568297015 2.2499999999999845 2.5
    vertex -73.10288568297015 2.2499999999999845 0.0
  endloop
endfacet
facet normal -0.9914448613738108 -0.13052619222004952 -0.0
  outer loop
    vertex -72.65333378169932 1.1646857029613356 2.5
    vertex -72.50000000000014 -1.127986593019159e-14 0.0
    vertex -72.50000000000014 -1.127986593019159e-14 2.5
  endloop
endfacet
facet normal -0.9914448613738108 -0.13052619222004952 -0.0
  outer loop
    vertex -72.50000000000014 -1.127986593019159e-14 0.0
    vertex -72.65333378169932 1.1646857029613356 2.5
    vertex -72.65333378169932 1.1646857029613356 0.0
  endloop
endfacet
facet normal -0.9914448613738108 0.1305261922200491 0.0
  outer loop
    vertex -72.50000000000014 -1.127986593019159e-14 2.5
    vertex -72.65333378169932 -1.1646857029613582 0.0
    vertex -72.65333378169932 -1.1646857029613582 2.5
  endloop
endfacet
facet normal -0.9914448613738108 0.1305261922200491 0.0
  outer loop
    vertex -72.65333378169932 -1.1646857029613582 0.0
    vertex -72.50000000000014 -1.127986593019159e-14 2.5
    vertex -72.50000000000014 -1.127986593019159e-14 0.0
  endloop
endfacet
facet normal -0.60876142900872 -0.7933533402912357 -0.0
  outer loop
    vertex -73.81801948466067 3.181980515339449 2.5
    vertex -74.75000000000013 3.897114317029962 0.0
    vertex -73.81801948466067 3.181980515339449 0.0
  endloop
endfacet
facet normal -0.60876142900872 -0.7933533402912357 -0.0
  outer loop
    vertex -74.75000000000013 3.897114317029962 0.0
    vertex -73.81801948466067 3.181980515339449 2.5
    vertex -74.75000000000013 3.897114317029962 2.5
  endloop
endfacet
facet normal -0.38268343236508473 0.9238795325112888 0.0
  outer loop
    vertex -111.57294857558098 -1.5937776133769739 2.5
    vertex -111.17500000000014 -1.4289419162443355 0.0
    vertex -111.57294857558098 -1.5937776133769739 0.0
  endloop
endfacet
facet normal -0.38268343236508473 0.9238795325112888 0.0
  outer loop
    vertex -111.17500000000014 -1.4289419162443355 0.0
    vertex -111.57294857558098 -1.5937776133769739 2.5
    vertex -111.17500000000014 -1.4289419162443355 2.5
  endloop
endfacet
facet normal 0.3826834323650885 -0.9238795325112873 0.0
  outer loop
    vertex -78.16468570296148 4.346666218300796 2.5
    vertex -79.25000000000014 3.897114317029962 0.0
    vertex -78.16468570296148 4.346666218300796 0.0
  endloop
endfacet
facet normal 0.3826834323650885 -0.9238795325112873 0.0
  outer loop
    vertex -79.25000000000014 3.897114317029962 0.0
    vertex -78.16468570296148 4.346666218300796 2.5
    vertex -79.25000000000014 3.897114317029962 2.5
  endloop
endfacet
facet normal 0.6087614290087203 -0.7933533402912354 0.0
  outer loop
    vertex -79.25000000000014 3.897114317029962 2.5
    vertex -80.1819805153396 3.181980515339449 0.0
    vertex -79.25000000000014 3.897114317029962 0.0
  endloop
endfacet
facet normal 0.6087614290087203 -0.7933533402912354 0.0
  outer loop
    vertex -80.1819805153396 3.181980515339449 0.0
    vertex -79.25000000000014 3.897114317029962 2.5
    vertex -80.1819805153396 3.181980515339449 2.5
  endloop
endfacet
facet normal 0.60876142900872 0.7933533402912357 0.0
  outer loop
    vertex -80.1819805153396 -3.1819805153394776 2.5
    vertex -79.25000000000014 -3.8971143170299847 0.0
    vertex -80.1819805153396 -3.1819805153394776 0.0
  endloop
endfacet
facet normal 0.60876142900872 0.7933533402912357 0.0
  outer loop
    vertex -79.25000000000014 -3.8971143170299847 0.0
    vertex -80.1819805153396 -3.1819805153394776 2.5
    vertex -79.25000000000014 -3.8971143170299847 2.5
  endloop
endfacet
facet normal -0.9914448613738113 -0.13052619222004486 -0.0
  outer loop
    vertex -110.40622238662317 0.42705142441914734 2.5
    vertex -110.35000000000015 -1.127986593019159e-14 0.0
    vertex -110.35000000000015 -1.127986593019159e-14 2.5
  endloop
endfacet
facet normal -0.9914448613738113 -0.13052619222004486 -0.0
  outer loop
    vertex -110.35000000000015 -1.127986593019159e-14 0.0
    vertex -110.40622238662317 0.42705142441914734 2.5
    vertex -110.40622238662317 0.42705142441914734 0.0
  endloop
endfacet
facet normal 0.38268343236508473 -0.9238795325112888 0.0
  outer loop
    vertex -112.42705142441929 1.5937776133769515 2.5
    vertex -112.82500000000013 1.428941916244313 0.0
    vertex -112.42705142441929 1.5937776133769515 0.0
  endloop
endfacet
facet normal 0.38268343236508473 -0.9238795325112888 0.0
  outer loop
    vertex -112.82500000000013 1.428941916244313 0.0
    vertex -112.42705142441929 1.5937776133769515 2.5
    vertex -112.82500000000013 1.428941916244313 2.5
  endloop
endfacet
facet normal 0.13052619222005138 0.9914448613738106 0.0
  outer loop
    vertex -78.16468570296149 -4.346666218300818 2.5
    vertex -77.00000000000013 -4.500000000000014 0.0
    vertex -78.16468570296149 -4.346666218300818 0.0
  endloop
endfacet
facet normal 0.13052619222005138 0.9914448613738106 0.0
  outer loop
    vertex -77.00000000000013 -4.500000000000014 0.0
    vertex -78.16468570296149 -4.346666218300818 2.5
    vertex -77.00000000000013 -4.500000000000014 2.5
  endloop
endfacet
facet normal -0.1305261922200514 0.9914448613738105 0.0
  outer loop
    vertex -77.00000000000013 -4.500000000000014 2.5
    vertex -75.83531429703879 -4.346666218300818 0.0
    vertex -77.00000000000013 -4.500000000000014 0.0
  endloop
endfacet
facet normal -0.1305261922200514 0.9914448613738105 0.0
  outer loop
    vertex -75.83531429703879 -4.346666218300818 0.0
    vertex -77.00000000000013 -4.500000000000014 2.5
    vertex -75.83531429703879 -4.346666218300818 2.5
  endloop
endfacet
facet normal -0.6592655424397647 0.7519101971323456 0.0
  outer loop
    vertex -149.58847046279195 32.97130401224416 2.5
    vertex -139.77407297048057 41.5764461038991 0.0
    vertex -149.58847046279195 32.97130401224416 0.0
  endloop
endfacet
facet normal -0.6592655424397647 0.7519101971323456 0.0
  outer loop
    vertex -139.77407297048057 41.5764461038991 0.0
    vertex -149.58847046279195 32.97130401224416 2.5
    vertex -139.77407297048057 41.5764461038991 2.5
  endloop
endfacet
facet normal -0.442192934600399 0.8969199566234924 0.0
  outer loop
    vertex -139.77407297048057 41.5764461038991 2.5
    vertex -128.06691830405674 47.34822210189913 0.0
    vertex -139.77407297048057 41.5764461038991 0.0
  endloop
endfacet
facet normal -0.442192934600399 0.8969199566234924 0.0
  outer loop
    vertex -128.06691830405674 47.34822210189913 0.0
    vertex -139.77407297048057 41.5764461038991 2.5
    vertex -128.06691830405674 47.34822210189913 2.5
  endloop
endfacet
facet normal -0.19498560902639137 0.9808061033010588 0.0
  outer loop
    vertex -128.06691830405674 47.34822210189913 2.5
    vertex -115.26482970704937 49.89329501029139 0.0
    vertex -128.06691830405674 47.34822210189913 0.0
  endloop
endfacet
facet normal -0.19498560902639137 0.9808061033010588 0.0
  outer loop
    vertex -115.26482970704937 49.89329501029139 0.0
    vertex -128.06691830405674 47.34822210189913 2.5
    vertex -115.26482970704937 49.89329501029139 2.5
  endloop
endfacet
facet normal 0.06550966357381059 0.9978519348973807 0.0
  outer loop
    vertex -115.26482970704937 49.89329501029139 2.5
    vertex -102.24024836089279 49.03822231630078 0.0
    vertex -115.26482970704937 49.89329501029139 0.0
  endloop
endfacet
facet normal 0.06550966357381059 0.9978519348973807 0.0
  outer loop
    vertex -102.24024836089279 49.03822231630078 0.0
    vertex -115.26482970704937 49.89329501029139 2.5
    vertex -102.24024836089279 49.03822231630078 2.5
  endloop
endfacet
facet normal -0.9808061033010589 -0.1949856090263912 -0.0
  outer loop
    vertex -161.89329501029152 -3.264829707049246 2.5
    vertex -159.34822210189927 -16.06691830405662 0.0
    vertex -159.34822210189927 -16.06691830405662 2.5
  endloop
endfacet
facet normal -0.9808061033010589 -0.1949856090263912 -0.0
  outer loop
    vertex -159.34822210189927 -16.06691830405662 0.0
    vertex -161.89329501029152 -3.264829707049246 2.5
    vertex -161.89329501029152 -3.264829707049246 0.0
  endloop
endfacet
facet normal -0.9978519348973807 0.06550966357381056 0.0
  outer loop
    vertex -161.03822231630093 9.759751639107343 2.5
    vertex -161.89329501029152 -3.264829707049246 0.0
    vertex -161.89329501029152 -3.264829707049246 2.5
  endloop
endfacet
facet normal -0.9978519348973807 0.06550966357381056 0.0
  outer loop
    vertex -161.89329501029152 -3.264829707049246 0.0
    vertex -161.03822231630093 9.759751639107343 2.5
    vertex -161.03822231630093 9.759751639107343 0.0
  endloop
endfacet
facet normal -0.9468958061587373 0.32154056086129384 0.0
  outer loop
    vertex -156.84127581094847 22.119222039810936 2.5
    vertex -161.03822231630093 9.759751639107343 0.0
    vertex -161.03822231630093 9.759751639107343 2.5
  endloop
endfacet
facet normal -0.9468958061587373 0.32154056086129384 0.0
  outer loop
    vertex -161.03822231630093 9.759751639107343 0.0
    vertex -156.84127581094847 22.119222039810936 2.5
    vertex -156.84127581094847 22.119222039810936 0.0
  endloop
endfacet
facet normal -0.8314102930496822 0.5556590002969821 0.0
  outer loop
    vertex -149.58847046279195 32.97130401224416 2.5
    vertex -156.84127581094847 22.119222039810936 0.0
    vertex -156.84127581094847 22.119222039810936 2.5
  endloop
endfacet
facet normal -0.8314102930496822 0.5556590002969821 0.0
  outer loop
    vertex -156.84127581094847 22.119222039810936 0.0
    vertex -149.58847046279195 32.97130401224416 2.5
    vertex -149.58847046279195 32.97130401224416 0.0
  endloop
endfacet
facet normal 0.0 0.0 -1.0
  outer loop
    vertex -102.24024836089279 49.03822231630078 0.0
    vertex -113.16672618895794 1.166726188957793 0.0
    vertex -115.26482970704937 49.89329501029139 0.0
  endloop
endfacet
facet normal 0.0 0.0 -1.0
  outer loop
    vertex -113.16672618895794 1.166726188957793 0.0
    vertex -102.24024836089279 49.03822231630078 0.0
    vertex -112.82500000000013 1.428941916244313 0.0
  endloop
endfacet
facet normal 0.0 0.0 -1.0
  outer loop
    vertex -112.82500000000013 1.428941916244313 0.0
    vertex -102.24024836089279 49.03822231630078 0.0
    vertex -112.42705142441929 1.5937776133769515 0.0
  endloop
endfacet
facet normal 0.0 0.0 -1.0
  outer loop
    vertex -112.42705142441929 1.5937776133769515 0.0
    vertex -102.24024836089279 49.03822231630078 0.0
    vertex -112.00000000000013 1.6499999999999857 0.0
  endloop
endfacet
facet normal 0.0 0.0 -1.0
  outer loop
    vertex -112.00000000000013 1.6499999999999857 0.0
    vertex -102.24024836089279 49.03822231630078 0.0
    vertex -111.57294857558098 1.5937776133769515 0.0
  endloop
endfacet
facet normal 0.0 0.0 -1.0
  outer loop
    vertex -111.57294857558098 1.5937776133769515 0.0
    vertex -102.24024836089279 49.03822231630078 0.0
    vertex -111.17500000000014 1.428941916244313 0.0
  endloop
endfacet
facet normal 0.0 0.0 -1.0
  outer loop
    vertex -111.17500000000014 1.428941916244313 0.0
    vertex -102.24024836089279 49.03822231630078 0.0
    vertex -110.83327381104233 1.166726188957793 0.0
  endloop
endfacet
facet normal 0.0 0.0 -1.0
  outer loop
    vertex -110.83327381104233 1.166726188957793 0.0
    vertex -102.24024836089279 49.03822231630078 0.0
    vertex -110.57105808375582 0.8249999999999872 0.0
  endloop
endfacet
facet normal 0.0 0.0 -1.0
  outer loop
    vertex -110.57105808375582 0.8249999999999872 0.0
    vertex -102.24024836089279 49.03822231630078 0.0
    vertex -110.40622238662317 0.42705142441914734 0.0
  endloop
endfacet
facet normal 0.0 0.0 -1.0
  outer loop
    vertex -110.40622238662317 0.42705142441914734 0.0
    vertex -102.24024836089279 49.03822231630078 0.0
    vertex -110.35000000000015 -1.127986593019159e-14 0.0
  endloop
endfacet
facet normal 0.0 0.0 -1.0
  outer loop
    vertex -110.35000000000015 -1.127986593019159e-14 0.0
    vertex -102.24024836089279 49.03822231630078 0.0
    vertex -108.73517029295091 -49.89329501029141 0.0
  endloop
endfacet
facet normal 0.0 0.0 -1.0
  outer loop
    vertex -108.73517029295091 -49.89329501029141 0.0
    vertex -102.24024836089279 49.03822231630078 0.0
    vertex -95.93308169594354 -47.348222101899154 0.0
  endloop
endfacet
facet normal 0.0 0.0 -1.0
  outer loop
    vertex -95.93308169594354 -47.348222101899154 0.0
    vertex -102.24024836089279 49.03822231630078 0.0
    vertex -89.88077796018918 44.841275810948346 0.0
  endloop
endfacet
facet normal 0.0 0.0 -1.0
  outer loop
    vertex -95.93308169594354 -47.348222101899154 0.0
    vertex -89.88077796018918 44.841275810948346 0.0
    vertex -84.22592702951971 -41.57644610389914 0.0
  endloop
endfacet
facet normal 0.0 0.0 -1.0
  outer loop
    vertex -84.22592702951971 -41.57644610389914 0.0
    vertex -89.88077796018918 44.841275810948346 0.0
    vertex -81.50000000000013 -1.127986593019159e-14 0.0
  endloop
endfacet
facet normal 0.0 0.0 -1.0
  outer loop
    vertex -81.50000000000013 -1.127986593019159e-14 0.0
    vertex -89.88077796018918 44.841275810948346 0.0
    vertex -79.02869598775597 37.58847046279179 0.0
  endloop
endfacet
facet normal 0.0 0.0 -1.0
  outer loop
    vertex -81.50000000000013 -1.127986593019159e-14 0.0
    vertex -79.02869598775597 37.58847046279179 0.0
    vertex -81.34666621830094 1.1646857029613356 0.0
  endloop
endfacet
facet normal 0.0 0.0 -1.0
  outer loop
    vertex -81.34666621830094 1.1646857029613356 0.0
    vertex -79.02869598775597 37.58847046279179 0.0
    vertex -80.8971143170301 2.2499999999999845 0.0
  endloop
endfacet
facet normal 0.0 0.0 -1.0
  outer loop
    vertex -80.8971143170301 2.2499999999999845 0.0
    vertex -79.02869598775597 37.58847046279179 0.0
    vertex -80.1819805153396 3.181980515339449 0.0
  endloop
endfacet
facet normal 0.0 0.0 -1.0
  outer loop
    vertex -80.1819805153396 3.181980515339449 0.0
    vertex -79.02869598775597 37.58847046279179 0.0
    vertex -79.25000000000014 3.897114317029962 0.0
  endloop
endfacet
facet normal 0.0 0.0 -1.0
  outer loop
    vertex -79.25000000000014 3.897114317029962 0.0
    vertex -79.02869598775597 37.58847046279179 0.0
    vertex -78.16468570296148 4.346666218300796 0.0
  endloop
endfacet
facet normal 0.0 0.0 -1.0
  outer loop
    vertex -78.16468570296148 4.346666218300796 0.0
    vertex -79.02869598775597 37.58847046279179 0.0
    vertex -70.42355389610101 27.77407297048041 0.0
  endloop
endfacet
facet normal 0.0 0.0 -1.0
  outer loop
    vertex -78.16468570296148 4.346666218300796 0.0
    vertex -70.42355389610101 27.77407297048041 0.0
    vertex -77.00000000000013 4.499999999999992 0.0
  endloop
endfacet
facet normal 0.0 0.0 -1.0
  outer loop
    vertex -77.00000000000013 4.499999999999992 0.0
    vertex -70.42355389610101 27.77407297048041 0.0
    vertex -75.83531429703879 4.346666218300796 0.0
  endloop
endfacet
facet normal 0.0 0.0 -1.0
  outer loop
    vertex -75.83531429703879 4.346666218300796 0.0
    vertex -70.42355389610101 27.77407297048041 0.0
    vertex -74.75000000000013 3.897114317029962 0.0
  endloop
endfacet
facet normal 0.0 0.0 -1.0
  outer loop
    vertex -74.75000000000013 3.897114317029962 0.0
    vertex -70.42355389610101 27.77407297048041 0.0
    vertex -73.81801948466067 3.181980515339449 0.0
  endloop
endfacet
facet normal 0.0 0.0 -1.0
  outer loop
    vertex -73.81801948466067 3.181980515339449 0.0
    vertex -70.42355389610101 27.77407297048041 0.0
    vertex -73.10288568297015 2.2499999999999845 0.0
  endloop
endfacet
facet normal 0.0 0.0 -1.0
  outer loop
    vertex -73.10288568297015 2.2499999999999845 0.0
    vertex -70.42355389610101 27.77407297048041 0.0
    vertex -72.65333378169932 1.1646857029613356 0.0
  endloop
endfacet
facet normal 0.0 0.0 -1.0
  outer loop
    vertex -72.65333378169932 1.1646857029613356 0.0
    vertex -70.42355389610101 27.77407297048041 0.0
    vertex -72.50000000000014 -1.127986593019159e-14 0.0
  endloop
endfacet
facet normal 0.0 0.0 -1.0
  outer loop
    vertex -84.22592702951971 -41.57644610389914 0.0
    vertex -81.34666621830094 -1.1646857029613524 0.0
    vertex -74.41152953720834 -32.97130401224419 0.0
  endloop
endfacet
facet normal 0.0 0.0 -1.0
  outer loop
    vertex -81.34666621830094 -1.1646857029613524 0.0
    vertex -84.22592702951971 -41.57644610389914 0.0
    vertex -81.50000000000013 -1.127986593019159e-14 0.0
  endloop
endfacet
facet normal 0.0 0.0 -1.0
  outer loop
    vertex -74.41152953720834 -32.97130401224419 0.0
    vertex -81.34666621830094 -1.1646857029613524 0.0
    vertex -80.8971143170301 -2.250000000000013 0.0
  endloop
endfacet
facet normal 0.0 0.0 -1.0
  outer loop
    vertex -74.41152953720834 -32.97130401224419 0.0
    vertex -80.8971143170301 -2.250000000000013 0.0
    vertex -80.1819805153396 -3.1819805153394776 0.0
  endloop
endfacet
facet normal 0.0 0.0 -1.0
  outer loop
    vertex -74.41152953720834 -32.97130401224419 0.0
    vertex -80.1819805153396 -3.1819805153394776 0.0
    vertex -79.25000000000014 -3.8971143170299847 0.0
  endloop
endfacet
facet normal 0.0 0.0 -1.0
  outer loop
    vertex -74.41152953720834 -32.97130401224419 0.0
    vertex -79.25000000000014 -3.8971143170299847 0.0
    vertex -78.16468570296149 -4.346666218300818 0.0
  endloop
endfacet
facet normal 0.0 0.0 -1.0
  outer loop
    vertex -74.41152953720834 -32.97130401224419 0.0
    vertex -78.16468570296149 -4.346666218300818 0.0
    vertex -77.00000000000013 -4.500000000000014 0.0
  endloop
endfacet
facet normal 0.0 0.0 -1.0
  outer loop
    vertex -74.41152953720834 -32.97130401224419 0.0
    vertex -77.00000000000013 -4.500000000000014 0.0
    vertex -75.83531429703879 -4.346666218300818 0.0
  endloop
endfacet
facet normal 0.0 0.0 -1.0
  outer loop
    vertex -74.41152953720834 -32.97130401224419 0.0
    vertex -75.83531429703879 -4.346666218300818 0.0
    vertex -74.75000000000013 -3.8971143170299847 0.0
  endloop
endfacet
facet normal 0.0 0.0 -1.0
  outer loop
    vertex -74.41152953720834 -32.97130401224419 0.0
    vertex -74.75000000000013 -3.8971143170299847 0.0
    vertex -73.81801948466068 -3.1819805153394776 0.0
  endloop
endfacet
facet normal 0.0 0.0 -1.0
  outer loop
    vertex -74.41152953720834 -32.97130401224419 0.0
    vertex -73.81801948466068 -3.1819805153394776 0.0
    vertex -67.1587241890518 -22.119222039810982 0.0
  endloop
endfacet
facet normal 0.0 0.0 -1.0
  outer loop
    vertex -67.1587241890518 -22.119222039810982 0.0
    vertex -73.81801948466068 -3.1819805153394776 0.0
    vertex -73.10288568297015 -2.250000000000013 0.0
  endloop
endfacet
facet normal 0.0 0.0 -1.0
  outer loop
    vertex -67.1587241890518 -22.119222039810982 0.0
    vertex -73.10288568297015 -2.250000000000013 0.0
    vertex -72.65333378169932 -1.1646857029613582 0.0
  endloop
endfacet
facet normal 0.0 0.0 -1.0
  outer loop
    vertex -67.1587241890518 -22.119222039810982 0.0
    vertex -72.65333378169932 -1.1646857029613582 0.0
    vertex -72.50000000000014 -1.127986593019159e-14 0.0
  endloop
endfacet
facet normal 0.0 0.0 -1.0
  outer loop
    vertex -67.1587241890518 -22.119222039810982 0.0
    vertex -72.50000000000014 -1.127986593019159e-14 0.0
    vertex -70.42355389610101 27.77407297048041 0.0
  endloop
endfacet
facet normal 0.0 0.0 -1.0
  outer loop
    vertex -67.1587241890518 -22.119222039810982 0.0
    vertex -70.42355389610101 27.77407297048041 0.0
    vertex -64.65177789810099 16.066918304056585 0.0
  endloop
endfacet
facet normal 0.0 0.0 -1.0
  outer loop
    vertex -67.1587241890518 -22.119222039810982 0.0
    vertex -64.65177789810099 16.066918304056585 0.0
    vertex -62.96177768369934 -9.759751639107394 0.0
  endloop
endfacet
facet normal 0.0 0.0 -1.0
  outer loop
    vertex -62.96177768369934 -9.759751639107394 0.0
    vertex -64.65177789810099 16.066918304056585 0.0
    vertex -62.10670498970873 3.2648297070492234 0.0
  endloop
endfacet
facet normal 0.0 0.0 -1.0
  outer loop
    vertex -161.03822231630093 9.759751639107343 0.0
    vertex -159.34822210189927 -16.06691830405662 0.0
    vertex -161.89329501029152 -3.264829707049246 0.0
  endloop
endfacet
facet normal 0.0 0.0 -1.0
  outer loop
    vertex -159.34822210189927 -16.06691830405662 0.0
    vertex -161.03822231630093 9.759751639107343 0.0
    vertex -156.84127581094847 22.119222039810936 0.0
  endloop
endfacet
facet normal 0.0 0.0 -1.0
  outer loop
    vertex -159.34822210189927 -16.06691830405662 0.0
    vertex -156.84127581094847 22.119222039810936 0.0
    vertex -153.57644610389923 -27.774072970480454 0.0
  endloop
endfacet
facet normal 0.0 0.0 -1.0
  outer loop
    vertex -153.57644610389923 -27.774072970480454 0.0
    vertex -156.84127581094847 22.119222039810936 0.0
    vertex -149.58847046279195 32.97130401224416 0.0
  endloop
endfacet
facet normal 0.0 0.0 -1.0
  outer loop
    vertex -153.57644610389923 -27.774072970480454 0.0
    vertex -149.58847046279195 32.97130401224416 0.0
    vertex -144.9713040122443 -37.5884704627918 0.0
  endloop
endfacet
facet normal 0.0 0.0 -1.0
  outer loop
    vertex -144.9713040122443 -37.5884704627918 0.0
    vertex -149.58847046279195 32.97130401224416 0.0
    vertex -139.77407297048057 41.5764461038991 0.0
  endloop
endfacet
facet normal 0.0 0.0 -1.0
  outer loop
    vertex -144.9713040122443 -37.5884704627918 0.0
    vertex -139.77407297048057 41.5764461038991 0.0
    vertex -134.1192220398111 -44.84127581094835 0.0
  endloop
endfacet
facet normal 0.0 0.0 -1.0
  outer loop
    vertex -134.1192220398111 -44.84127581094835 0.0
    vertex -139.77407297048057 41.5764461038991 0.0
    vertex -128.06691830405674 47.34822210189913 0.0
  endloop
endfacet
facet normal 0.0 0.0 -1.0
  outer loop
    vertex -134.1192220398111 -44.84127581094835 0.0
    vertex -128.06691830405674 47.34822210189913 0.0
    vertex -121.75975163910749 -49.0382223163008 0.0
  endloop
endfacet
facet normal 0.0 0.0 -1.0
  outer loop
    vertex -121.75975163910749 -49.0382223163008 0.0
    vertex -128.06691830405674 47.34822210189913 0.0
    vertex -115.26482970704937 49.89329501029139 0.0
  endloop
endfacet
facet normal 0.0 0.0 -1.0
  outer loop
    vertex -121.75975163910749 -49.0382223163008 0.0
    vertex -115.26482970704937 49.89329501029139 0.0
    vertex -113.16672618895794 -1.1667261889578153 0.0
  endloop
endfacet
facet normal 0.0 0.0 -1.0
  outer loop
    vertex -121.75975163910749 -49.0382223163008 0.0
    vertex -113.16672618895794 -1.1667261889578153 0.0
    vertex -108.73517029295091 -49.89329501029141 0.0
  endloop
endfacet
facet normal 0.0 0.0 -1.0
  outer loop
    vertex -113.16672618895794 -1.1667261889578153 0.0
    vertex -115.26482970704937 49.89329501029139 0.0
    vertex -113.16672618895794 1.166726188957793 0.0
  endloop
endfacet
facet normal 0.0 0.0 -1.0
  outer loop
    vertex -108.73517029295091 -49.89329501029141 0.0
    vertex -113.16672618895794 -1.1667261889578153 0.0
    vertex -112.82500000000013 -1.4289419162443355 0.0
  endloop
endfacet
facet normal 0.0 0.0 -1.0
  outer loop
    vertex -108.73517029295091 -49.89329501029141 0.0
    vertex -112.82500000000013 -1.4289419162443355 0.0
    vertex -112.42705142441929 -1.5937776133769739 0.0
  endloop
endfacet
facet normal 0.0 0.0 -1.0
  outer loop
    vertex -108.73517029295091 -49.89329501029141 0.0
    vertex -112.42705142441929 -1.5937776133769739 0.0
    vertex -112.00000000000013 -1.6500000000000083 0.0
  endloop
endfacet
facet normal 0.0 0.0 -1.0
  outer loop
    vertex -108.73517029295091 -49.89329501029141 0.0
    vertex -112.00000000000013 -1.6500000000000083 0.0
    vertex -111.57294857558098 -1.5937776133769739 0.0
  endloop
endfacet
facet normal 0.0 0.0 -1.0
  outer loop
    vertex -108.73517029295091 -49.89329501029141 0.0
    vertex -111.57294857558098 -1.5937776133769739 0.0
    vertex -111.17500000000014 -1.4289419162443355 0.0
  endloop
endfacet
facet normal 0.0 0.0 -1.0
  outer loop
    vertex -108.73517029295091 -49.89329501029141 0.0
    vertex -111.17500000000014 -1.4289419162443355 0.0
    vertex -110.83327381104233 -1.1667261889578153 0.0
  endloop
endfacet
facet normal 0.0 0.0 -1.0
  outer loop
    vertex -108.73517029295091 -49.89329501029141 0.0
    vertex -110.83327381104233 -1.1667261889578153 0.0
    vertex -110.57105808375582 -0.8250000000000154 0.0
  endloop
endfacet
facet normal 0.0 0.0 -1.0
  outer loop
    vertex -108.73517029295091 -49.89329501029141 0.0
    vertex -110.57105808375582 -0.8250000000000154 0.0
    vertex -110.40622238662317 -0.4270514244191699 0.0
  endloop
endfacet
facet normal 0.0 0.0 -1.0
  outer loop
    vertex -108.73517029295091 -49.89329501029141 0.0
    vertex -110.40622238662317 -0.4270514244191699 0.0
    vertex -110.35000000000015 -1.127986593019159e-14 0.0
  endloop
endfacet
endsolid contador rpm
