solid contador rpm
facet normal -0.382683432365087 0.9238795325112881 0.0
  outer loop
    vertex 167.5991777714007 15.899298922159295 4.999999999999999
    vertex 168.68449206843934 16.348850823430126 0.0
    vertex 167.5991777714007 15.899298922159295 0.0
  endloop
endfacet
facet normal -0.382683432365087 0.9238795325112881 0.0
  outer loop
    vertex 168.68449206843934 16.348850823430126 0.0
    vertex 167.5991777714007 15.899298922159295 4.999999999999999
    vertex 168.68449206843934 16.348850823430126 4.999999999999999
  endloop
endfacet
facet normal -0.6087614290087203 0.7933533402912354 0.0
  outer loop
    vertex 168.68449206843934 16.348850823430126 4.999999999999999
    vertex 169.6164725837788 17.063984625120636 0.0
    vertex 168.68449206843934 16.348850823430126 0.0
  endloop
endfacet
facet normal -0.6087614290087203 0.7933533402912354 0.0
  outer loop
    vertex 169.6164725837788 17.063984625120636 0.0
    vertex 168.68449206843934 16.348850823430126 4.999999999999999
    vertex 169.6164725837788 17.063984625120636 4.999999999999999
  endloop
endfacet
facet normal -0.382683432365089 -0.9238795325112872 -0.0
  outer loop
    vertex 168.68449206843934 24.143079457490074 4.999999999999999
    vertex 167.5991777714007 24.592631358760908 0.0
    vertex 168.68449206843934 24.143079457490074 0.0
  endloop
endfacet
facet normal -0.382683432365089 -0.9238795325112872 -0.0
  outer loop
    vertex 167.5991777714007 24.592631358760908 0.0
    vertex 168.68449206843934 24.143079457490074 4.999999999999999
    vertex 167.5991777714007 24.592631358760908 4.999999999999999
  endloop
endfacet
facet normal -0.13052619222005496 -0.9914448613738099 -0.0
  outer loop
    vertex 167.5991777714007 24.592631358760908 4.999999999999999
    vertex 166.43449206843937 24.745965140460104 0.0
    vertex 167.5991777714007 24.592631358760908 0.0
  endloop
endfacet
facet normal -0.13052619222005496 -0.9914448613738099 -0.0
  outer loop
    vertex 166.43449206843937 24.745965140460104 0.0
    vertex 167.5991777714007 24.592631358760908 4.999999999999999
    vertex 166.43449206843937 24.745965140460104 4.999999999999999
  endloop
endfacet
facet normal -0.9238795325112902 -0.3826834323650817 -0.0
  outer loop
    vertex 170.33160638546934 22.495965140460097 4.999999999999999
    vertex 170.78115828674018 21.410650843421436 0.0
    vertex 170.78115828674018 21.410650843421436 4.999999999999999
  endloop
endfacet
facet normal -0.9238795325112902 -0.3826834323650817 -0.0
  outer loop
    vertex 170.78115828674018 21.410650843421436 0.0
    vertex 170.33160638546934 22.495965140460097 4.999999999999999
    vertex 170.33160638546934 22.495965140460097 0.0
  endloop
endfacet
facet normal -0.7933533402912352 -0.6087614290087208 -0.0
  outer loop
    vertex 169.6164725837788 23.42794565579956 4.999999999999999
    vertex 170.33160638546934 22.495965140460097 0.0
    vertex 170.33160638546934 22.495965140460097 4.999999999999999
  endloop
endfacet
facet normal -0.7933533402912352 -0.6087614290087208 -0.0
  outer loop
    vertex 170.33160638546934 22.495965140460097 0.0
    vertex 169.6164725837788 23.42794565579956 4.999999999999999
    vertex 169.6164725837788 23.42794565579956 0.0
  endloop
endfacet
facet normal -0.6087614290087203 -0.7933533402912354 -0.0
  outer loop
    vertex 169.6164725837788 23.42794565579956 4.999999999999999
    vertex 168.68449206843934 24.143079457490074 0.0
    vertex 169.6164725837788 23.42794565579956 0.0
  endloop
endfacet
facet normal -0.6087614290087203 -0.7933533402912354 -0.0
  outer loop
    vertex 168.68449206843934 24.143079457490074 0.0
    vertex 169.6164725837788 23.42794565579956 4.999999999999999
    vertex 168.68449206843934 24.143079457490074 4.999999999999999
  endloop
endfacet
facet normal 0.0 1.0 0.0
  outer loop
    vertex 161.43449206843934 -4.7540348595398925 19.999999999999996
    vertex 171.43449206843937 -4.7540348595398925 4.999999999999999
    vertex 161.43449206843934 -4.7540348595398925 4.999999999999999
  endloop
endfacet
facet normal 0.0 1.0 0.0
  outer loop
    vertex 171.43449206843937 -4.7540348595398925 4.999999999999999
    vertex 161.43449206843934 -4.7540348595398925 19.999999999999996
    vertex 171.43449206843937 -4.7540348595398925 19.999999999999996
  endloop
endfacet
facet normal 0.0 1.0 0.0
  outer loop
    vertex 161.43449206843934 15.245965140460106 4.999999999999999
    vertex 171.43449206843937 15.245965140460106 0.0
    vertex 161.43449206843934 15.245965140460106 0.0
  endloop
endfacet
facet normal 0.0 1.0 0.0
  outer loop
    vertex 171.43449206843937 15.245965140460106 0.0
    vertex 161.43449206843934 15.245965140460106 4.999999999999999
    vertex 171.43449206843937 15.245965140460106 4.999999999999999
  endloop
endfacet
facet normal 0.0 1.0 0.0
  outer loop
    vertex 161.43449206843934 25.245965140460104 4.999999999999999
    vertex 171.43449206843937 25.245965140460104 0.0
    vertex 161.43449206843934 25.245965140460104 0.0
  endloop
endfacet
facet normal 0.0 1.0 0.0
  outer loop
    vertex 171.43449206843937 25.245965140460104 0.0
    vertex 161.43449206843934 25.245965140460104 4.999999999999999
    vertex 171.43449206843937 25.245965140460104 4.999999999999999
  endloop
endfacet
facet normal 0.0 0.0 1.0
  outer loop
    vertex 161.43449206843934 15.245965140460106 4.999999999999999
    vertex 161.93449206843934 20.24596514046011 4.999999999999999
    vertex 161.43449206843934 25.245965140460104 4.999999999999999
  endloop
endfacet
facet normal 0.0 0.0 1.0
  outer loop
    vertex 161.93449206843934 20.24596514046011 4.999999999999999
    vertex 161.43449206843934 15.245965140460106 4.999999999999999
    vertex 162.08782585013856 19.081279437498765 4.999999999999999
  endloop
endfacet
facet normal 0.0 0.0 1.0
  outer loop
    vertex 162.08782585013856 19.081279437498765 4.999999999999999
    vertex 161.43449206843934 15.245965140460106 4.999999999999999
    vertex 162.5373777514094 17.99596514046011 4.999999999999999
  endloop
endfacet
facet normal 0.0 0.0 1.0
  outer loop
    vertex 162.5373777514094 17.99596514046011 4.999999999999999
    vertex 161.43449206843934 15.245965140460106 4.999999999999999
    vertex 163.25251155309988 17.063984625120646 4.999999999999999
  endloop
endfacet
facet normal 0.0 0.0 1.0
  outer loop
    vertex 163.25251155309988 17.063984625120646 4.999999999999999
    vertex 161.43449206843934 15.245965140460106 4.999999999999999
    vertex 164.18449206843934 16.348850823430134 4.999999999999999
  endloop
endfacet
facet normal 0.0 0.0 1.0
  outer loop
    vertex 164.18449206843934 16.348850823430134 4.999999999999999
    vertex 161.43449206843934 15.245965140460106 4.999999999999999
    vertex 165.26980636547802 15.8992989221593 4.999999999999999
  endloop
endfacet
facet normal 0.0 0.0 1.0
  outer loop
    vertex 165.26980636547802 15.8992989221593 4.999999999999999
    vertex 161.43449206843934 15.245965140460106 4.999999999999999
    vertex 166.43449206843934 15.745965140460104 4.999999999999999
  endloop
endfacet
facet normal 0.0 0.0 1.0
  outer loop
    vertex 166.43449206843934 15.745965140460104 4.999999999999999
    vertex 161.43449206843934 15.245965140460106 4.999999999999999
    vertex 171.43449206843937 15.245965140460106 4.999999999999999
  endloop
endfacet
facet normal 0.0 0.0 1.0
  outer loop
    vertex 166.43449206843934 15.745965140460104 4.999999999999999
    vertex 171.43449206843937 15.245965140460106 4.999999999999999
    vertex 167.5991777714007 15.899298922159295 4.999999999999999
  endloop
endfacet
facet normal 0.0 0.0 1.0
  outer loop
    vertex 167.5991777714007 15.899298922159295 4.999999999999999
    vertex 171.43449206843937 15.245965140460106 4.999999999999999
    vertex 168.68449206843934 16.348850823430126 4.999999999999999
  endloop
endfacet
facet normal 0.0 0.0 1.0
  outer loop
    vertex 168.68449206843934 16.348850823430126 4.999999999999999
    vertex 171.43449206843937 15.245965140460106 4.999999999999999
    vertex 169.6164725837788 17.063984625120636 4.999999999999999
  endloop
endfacet
facet normal 0.0 0.0 1.0
  outer loop
    vertex 169.6164725837788 17.063984625120636 4.999999999999999
    vertex 171.43449206843937 15.245965140460106 4.999999999999999
    vertex 170.33160638546934 17.995965140460093 4.999999999999999
  endloop
endfacet
facet normal 0.0 0.0 1.0
  outer loop
    vertex 170.33160638546934 17.995965140460093 4.999999999999999
    vertex 171.43449206843937 15.245965140460106 4.999999999999999
    vertex 170.78115828674018 19.081279437498754 4.999999999999999
  endloop
endfacet
facet normal 0.0 0.0 1.0
  outer loop
    vertex 170.78115828674018 19.081279437498754 4.999999999999999
    vertex 171.43449206843937 15.245965140460106 4.999999999999999
    vertex 170.93449206843937 20.245965140460097 4.999999999999999
  endloop
endfacet
facet normal 0.0 0.0 1.0
  outer loop
    vertex 161.43449206843934 25.245965140460104 4.999999999999999
    vertex 166.43449206843937 24.745965140460104 4.999999999999999
    vertex 171.43449206843937 25.245965140460104 4.999999999999999
  endloop
endfacet
facet normal 0.0 0.0 1.0
  outer loop
    vertex 166.43449206843937 24.745965140460104 4.999999999999999
    vertex 161.43449206843934 25.245965140460104 4.999999999999999
    vertex 165.26980636547802 24.592631358760915 4.999999999999999
  endloop
endfacet
facet normal 0.0 0.0 1.0
  outer loop
    vertex 165.26980636547802 24.592631358760915 4.999999999999999
    vertex 161.43449206843934 25.245965140460104 4.999999999999999
    vertex 164.18449206843937 24.14307945749008 4.999999999999999
  endloop
endfacet
facet normal 0.0 0.0 1.0
  outer loop
    vertex 164.18449206843937 24.14307945749008 4.999999999999999
    vertex 161.43449206843934 25.245965140460104 4.999999999999999
    vertex 163.25251155309988 23.427945655799572 4.999999999999999
  endloop
endfacet
facet normal 0.0 0.0 1.0
  outer loop
    vertex 163.25251155309988 23.427945655799572 4.999999999999999
    vertex 161.43449206843934 25.245965140460104 4.999999999999999
    vertex 162.5373777514094 22.495965140460108 4.999999999999999
  endloop
endfacet
facet normal 0.0 0.0 1.0
  outer loop
    vertex 162.5373777514094 22.495965140460108 4.999999999999999
    vertex 161.43449206843934 25.245965140460104 4.999999999999999
    vertex 162.08782585013856 21.410650843421454 4.999999999999999
  endloop
endfacet
facet normal 0.0 0.0 1.0
  outer loop
    vertex 162.08782585013856 21.410650843421454 4.999999999999999
    vertex 161.43449206843934 25.245965140460104 4.999999999999999
    vertex 161.93449206843934 20.24596514046011 4.999999999999999
  endloop
endfacet
facet normal 0.0 0.0 1.0
  outer loop
    vertex 171.43449206843937 25.245965140460104 4.999999999999999
    vertex 166.43449206843937 24.745965140460104 4.999999999999999
    vertex 167.5991777714007 24.592631358760908 4.999999999999999
  endloop
endfacet
facet normal 0.0 0.0 1.0
  outer loop
    vertex 171.43449206843937 25.245965140460104 4.999999999999999
    vertex 167.5991777714007 24.592631358760908 4.999999999999999
    vertex 168.68449206843934 24.143079457490074 4.999999999999999
  endloop
endfacet
facet normal 0.0 0.0 1.0
  outer loop
    vertex 171.43449206843937 25.245965140460104 4.999999999999999
    vertex 168.68449206843934 24.143079457490074 4.999999999999999
    vertex 169.6164725837788 23.42794565579956 4.999999999999999
  endloop
endfacet
facet normal 0.0 0.0 1.0
  outer loop
    vertex 171.43449206843937 25.245965140460104 4.999999999999999
    vertex 169.6164725837788 23.42794565579956 4.999999999999999
    vertex 170.33160638546934 22.495965140460097 4.999999999999999
  endloop
endfacet
facet normal 0.0 0.0 1.0
  outer loop
    vertex 171.43449206843937 25.245965140460104 4.999999999999999
    vertex 170.33160638546934 22.495965140460097 4.999999999999999
    vertex 170.78115828674018 21.410650843421436 4.999999999999999
  endloop
endfacet
facet normal 0.0 0.0 1.0
  outer loop
    vertex 171.43449206843937 25.245965140460104 4.999999999999999
    vertex 170.78115828674018 21.410650843421436 4.999999999999999
    vertex 170.93449206843937 20.245965140460097 4.999999999999999
  endloop
endfacet
facet normal 0.0 0.0 1.0
  outer loop
    vertex 171.43449206843937 25.245965140460104 4.999999999999999
    vertex 170.93449206843937 20.245965140460097 4.999999999999999
    vertex 171.43449206843937 15.245965140460106 4.999999999999999
  endloop
endfacet
facet normal 0.0 0.0 -1.0
  outer loop
    vertex 161.43449206843934 25.245965140460104 0.0
    vertex 161.93449206843934 20.24596514046011 0.0
    vertex 161.43449206843934 15.245965140460106 0.0
  endloop
endfacet
facet normal 0.0 0.0 -1.0
  outer loop
    vertex 161.93449206843934 20.24596514046011 0.0
    vertex 161.43449206843934 25.245965140460104 0.0
    vertex 162.08782585013856 21.410650843421454 0.0
  endloop
endfacet
facet normal 0.0 0.0 -1.0
  outer loop
    vertex 162.08782585013856 21.410650843421454 0.0
    vertex 161.43449206843934 25.245965140460104 0.0
    vertex 162.5373777514094 22.495965140460108 0.0
  endloop
endfacet
facet normal 0.0 0.0 -1.0
  outer loop
    vertex 162.5373777514094 22.495965140460108 0.0
    vertex 161.43449206843934 25.245965140460104 0.0
    vertex 163.25251155309988 23.427945655799572 0.0
  endloop
endfacet
facet normal 0.0 0.0 -1.0
  outer loop
    vertex 163.25251155309988 23.427945655799572 0.0
    vertex 161.43449206843934 25.245965140460104 0.0
    vertex 164.18449206843937 24.14307945749008 0.0
  endloop
endfacet
facet normal 0.0 0.0 -1.0
  outer loop
    vertex 164.18449206843937 24.14307945749008 0.0
    vertex 161.43449206843934 25.245965140460104 0.0
    vertex 165.26980636547802 24.592631358760915 0.0
  endloop
endfacet
facet normal 0.0 0.0 -1.0
  outer loop
    vertex 165.26980636547802 24.592631358760915 0.0
    vertex 161.43449206843934 25.245965140460104 0.0
    vertex 166.43449206843937 24.745965140460104 0.0
  endloop
endfacet
facet normal 0.0 0.0 -1.0
  outer loop
    vertex 166.43449206843937 24.745965140460104 0.0
    vertex 161.43449206843934 25.245965140460104 0.0
    vertex 171.43449206843937 25.245965140460104 0.0
  endloop
endfacet
facet normal 0.0 0.0 -1.0
  outer loop
    vertex 166.43449206843937 24.745965140460104 0.0
    vertex 171.43449206843937 25.245965140460104 0.0
    vertex 167.5991777714007 24.592631358760908 0.0
  endloop
endfacet
facet normal 0.0 0.0 -1.0
  outer loop
    vertex 167.5991777714007 24.592631358760908 0.0
    vertex 171.43449206843937 25.245965140460104 0.0
    vertex 168.68449206843934 24.143079457490074 0.0
  endloop
endfacet
facet normal 0.0 0.0 -1.0
  outer loop
    vertex 168.68449206843934 24.143079457490074 0.0
    vertex 171.43449206843937 25.245965140460104 0.0
    vertex 169.6164725837788 23.42794565579956 0.0
  endloop
endfacet
facet normal 0.0 0.0 -1.0
  outer loop
    vertex 169.6164725837788 23.42794565579956 0.0
    vertex 171.43449206843937 25.245965140460104 0.0
    vertex 170.33160638546934 22.495965140460097 0.0
  endloop
endfacet
facet normal 0.0 0.0 -1.0
  outer loop
    vertex 170.33160638546934 22.495965140460097 0.0
    vertex 171.43449206843937 25.245965140460104 0.0
    vertex 170.78115828674018 21.410650843421436 0.0
  endloop
endfacet
facet normal 0.0 0.0 -1.0
  outer loop
    vertex 170.78115828674018 21.410650843421436 0.0
    vertex 171.43449206843937 25.245965140460104 0.0
    vertex 170.93449206843937 20.245965140460097 0.0
  endloop
endfacet
facet normal 0.0 0.0 -1.0
  outer loop
    vertex 161.43449206843934 15.245965140460106 0.0
    vertex 166.43449206843934 15.745965140460104 0.0
    vertex 171.43449206843937 15.245965140460106 0.0
  endloop
endfacet
facet normal 0.0 0.0 -1.0
  outer loop
    vertex 166.43449206843934 15.745965140460104 0.0
    vertex 161.43449206843934 15.245965140460106 0.0
    vertex 165.26980636547802 15.8992989221593 0.0
  endloop
endfacet
facet normal 0.0 0.0 -1.0
  outer loop
    vertex 165.26980636547802 15.8992989221593 0.0
    vertex 161.43449206843934 15.245965140460106 0.0
    vertex 164.18449206843934 16.348850823430134 0.0
  endloop
endfacet
facet normal 0.0 0.0 -1.0
  outer loop
    vertex 164.18449206843934 16.348850823430134 0.0
    vertex 161.43449206843934 15.245965140460106 0.0
    vertex 163.25251155309988 17.063984625120646 0.0
  endloop
endfacet
facet normal 0.0 0.0 -1.0
  outer loop
    vertex 163.25251155309988 17.063984625120646 0.0
    vertex 161.43449206843934 15.245965140460106 0.0
    vertex 162.5373777514094 17.99596514046011 0.0
  endloop
endfacet
facet normal 0.0 0.0 -1.0
  outer loop
    vertex 162.5373777514094 17.99596514046011 0.0
    vertex 161.43449206843934 15.245965140460106 0.0
    vertex 162.08782585013856 19.081279437498765 0.0
  endloop
endfacet
facet normal 0.0 0.0 -1.0
  outer loop
    vertex 162.08782585013856 19.081279437498765 0.0
    vertex 161.43449206843934 15.245965140460106 0.0
    vertex 161.93449206843934 20.24596514046011 0.0
  endloop
endfacet
facet normal 0.0 0.0 -1.0
  outer loop
    vertex 171.43449206843937 15.245965140460106 0.0
    vertex 166.43449206843934 15.745965140460104 0.0
    vertex 167.5991777714007 15.899298922159295 0.0
  endloop
endfacet
facet normal 0.0 0.0 -1.0
  outer loop
    vertex 171.43449206843937 15.245965140460106 0.0
    vertex 167.5991777714007 15.899298922159295 0.0
    vertex 168.68449206843934 16.348850823430126 0.0
  endloop
endfacet
facet normal 0.0 0.0 -1.0
  outer loop
    vertex 171.43449206843937 15.245965140460106 0.0
    vertex 168.68449206843934 16.348850823430126 0.0
    vertex 169.6164725837788 17.063984625120636 0.0
  endloop
endfacet
facet normal 0.0 0.0 -1.0
  outer loop
    vertex 171.43449206843937 15.245965140460106 0.0
    vertex 169.6164725837788 17.063984625120636 0.0
    vertex 170.33160638546934 17.995965140460093 0.0
  endloop
endfacet
facet normal 0.0 0.0 -1.0
  outer loop
    vertex 171.43449206843937 15.245965140460106 0.0
    vertex 170.33160638546934 17.995965140460093 0.0
    vertex 170.78115828674018 19.081279437498754 0.0
  endloop
endfacet
facet normal 0.0 0.0 -1.0
  outer loop
    vertex 171.43449206843937 15.245965140460106 0.0
    vertex 170.78115828674018 19.081279437498754 0.0
    vertex 170.93449206843937 20.245965140460097 0.0
  endloop
endfacet
facet normal 0.0 0.0 -1.0
  outer loop
    vertex 171.43449206843937 15.245965140460106 0.0
    vertex 170.93449206843937 20.245965140460097 0.0
    vertex 171.43449206843937 25.245965140460104 0.0
  endloop
endfacet
facet normal 1.0 0.0 0.0
  outer loop
    vertex 171.43449206843937 25.245965140460104 0.0
    vertex 171.43449206843937 15.245965140460106 4.999999999999999
    vertex 171.43449206843937 15.245965140460106 0.0
  endloop
endfacet
facet normal 1.0 0.0 0.0
  outer loop
    vertex 171.43449206843937 15.245965140460106 4.999999999999999
    vertex 171.43449206843937 25.245965140460104 0.0
    vertex 171.43449206843937 25.245965140460104 4.999999999999999
  endloop
endfacet
facet normal 0.0 0.0 1.0
  outer loop
    vertex 171.43449206843937 -7.7540348595398925 0.0
    vertex 161.43449206843934 -4.7540348595398925 0.0
    vertex 161.43449206843934 -7.7540348595398925 0.0
  endloop
endfacet
facet normal 0.0 0.0 1.0
  outer loop
    vertex 161.43449206843934 -4.7540348595398925 0.0
    vertex 171.43449206843937 -7.7540348595398925 0.0
    vertex 171.43449206843937 -4.7540348595398925 0.0
  endloop
endfacet
facet normal 0.0 -1.0 0.0
  outer loop
    vertex 171.43449206843937 -7.7540348595398925 19.999999999999996
    vertex 161.43449206843934 -7.7540348595398925 0.0
    vertex 171.43449206843937 -7.7540348595398925 0.0
  endloop
endfacet
facet normal 0.0 -1.0 0.0
  outer loop
    vertex 161.43449206843934 -7.7540348595398925 0.0
    vertex 171.43449206843937 -7.7540348595398925 19.999999999999996
    vertex 161.43449206843934 -7.7540348595398925 19.999999999999996
  endloop
endfacet
facet normal 1.0 0.0 0.0
  outer loop
    vertex 171.43449206843937 -4.7540348595398925 0.0
    vertex 171.43449206843937 -7.7540348595398925 19.999999999999996
    vertex 171.43449206843937 -7.7540348595398925 0.0
  endloop
endfacet
facet normal 1.0 0.0 0.0
  outer loop
    vertex 171.43449206843937 -7.7540348595398925 19.999999999999996
    vertex 171.43449206843937 -4.7540348595398925 0.0
    vertex 171.43449206843937 -4.7540348595398925 19.999999999999996
  endloop
endfacet
facet normal 1.0 0.0 0.0
  outer loop
    vertex 171.43449206843937 -4.7540348595398925 19.999999999999996
    vertex 171.43449206843937 -4.7540348595398925 0.0
    vertex 171.43449206843937 -4.7540348595398925 4.999999999999999
  endloop
endfacet
facet normal 0.0 1.0 0.0
  outer loop
    vertex 161.43449206843934 -4.7540348595398925 4.999999999999999
    vertex 171.43449206843937 -4.7540348595398925 0.0
    vertex 161.43449206843934 -4.7540348595398925 0.0
  endloop
endfacet
facet normal 0.0 1.0 0.0
  outer loop
    vertex 171.43449206843937 -4.7540348595398925 0.0
    vertex 161.43449206843934 -4.7540348595398925 4.999999999999999
    vertex 171.43449206843937 -4.7540348595398925 4.999999999999999
  endloop
endfacet
facet normal 1.0 0.0 0.0
  outer loop
    vertex 171.43449206843937 15.245965140460106 0.0
    vertex 171.43449206843937 -4.7540348595398925 4.999999999999999
    vertex 171.43449206843937 -4.7540348595398925 0.0
  endloop
endfacet
facet normal 1.0 0.0 0.0
  outer loop
    vertex 171.43449206843937 -4.7540348595398925 4.999999999999999
    vertex 171.43449206843937 15.245965140460106 0.0
    vertex 171.43449206843937 15.245965140460106 4.999999999999999
  endloop
endfacet
facet normal -1.0 0.0 0.0
  outer loop
    vertex 161.43449206843934 15.245965140460106 4.999999999999999
    vertex 161.43449206843934 -4.7540348595398925 0.0
    vertex 161.43449206843934 -4.7540348595398925 4.999999999999999
  endloop
endfacet
facet normal -1.0 0.0 0.0
  outer loop
    vertex 161.43449206843934 -4.7540348595398925 0.0
    vertex 161.43449206843934 15.245965140460106 4.999999999999999
    vertex 161.43449206843934 15.245965140460106 0.0
  endloop
endfacet
facet normal 0.0 0.0 1.0
  outer loop
    vertex 171.43449206843937 -4.7540348595398925 4.999999999999999
    vertex 161.43449206843934 15.245965140460106 4.999999999999999
    vertex 161.43449206843934 -4.7540348595398925 4.999999999999999
  endloop
endfacet
facet normal 0.0 0.0 1.0
  outer loop
    vertex 161.43449206843934 15.245965140460106 4.999999999999999
    vertex 171.43449206843937 -4.7540348595398925 4.999999999999999
    vertex 171.43449206843937 15.245965140460106 4.999999999999999
  endloop
endfacet
facet normal 0.0 0.0 1.0
  outer loop
    vertex 171.43449206843937 -4.7540348595398925 0.0
    vertex 161.43449206843934 15.245965140460106 0.0
    vertex 161.43449206843934 -4.7540348595398925 0.0
  endloop
endfacet
facet normal 0.0 0.0 1.0
  outer loop
    vertex 161.43449206843934 15.245965140460106 0.0
    vertex 171.43449206843937 -4.7540348595398925 0.0
    vertex 171.43449206843937 15.245965140460106 0.0
  endloop
endfacet
facet normal 0.0 0.0 1.0
  outer loop
    vertex 171.43449206843937 -7.7540348595398925 19.999999999999996
    vertex 161.43449206843934 -4.7540348595398925 19.999999999999996
    vertex 161.43449206843934 -7.7540348595398925 19.999999999999996
  endloop
endfacet
facet normal 0.0 0.0 1.0
  outer loop
    vertex 161.43449206843934 -4.7540348595398925 19.999999999999996
    vertex 171.43449206843937 -7.7540348595398925 19.999999999999996
    vertex 171.43449206843937 -4.7540348595398925 19.999999999999996
  endloop
endfacet
facet normal -1.0 0.0 0.0
  outer loop
    vertex 161.43449206843934 -4.7540348595398925 19.999999999999996
    vertex 161.43449206843934 -7.7540348595398925 0.0
    vertex 161.43449206843934 -7.7540348595398925 19.999999999999996
  endloop
endfacet
facet normal -1.0 0.0 0.0
  outer loop
    vertex 161.43449206843934 -7.7540348595398925 0.0
    vertex 161.43449206843934 -4.7540348595398925 19.999999999999996
    vertex 161.43449206843934 -4.7540348595398925 0.0
  endloop
endfacet
facet normal -1.0 0.0 0.0
  outer loop
    vertex 161.43449206843934 -4.7540348595398925 0.0
    vertex 161.43449206843934 -4.7540348595398925 19.999999999999996
    vertex 161.43449206843934 -4.7540348595398925 4.999999999999999
  endloop
endfacet
facet normal -0.7933533402912334 0.608761429008723 0.0
  outer loop
    vertex 170.33160638546934 17.995965140460093 4.999999999999999
    vertex 169.6164725837788 17.063984625120636 0.0
    vertex 169.6164725837788 17.063984625120636 4.999999999999999
  endloop
endfacet
facet normal -0.7933533402912334 0.608761429008723 0.0
  outer loop
    vertex 169.6164725837788 17.063984625120636 0.0
    vertex 170.33160638546934 17.995965140460093 4.999999999999999
    vertex 170.33160638546934 17.995965140460093 0.0
  endloop
endfacet
facet normal -0.9238795325112865 0.3826834323650908 0.0
  outer loop
    vertex 170.78115828674018 19.081279437498754 4.999999999999999
    vertex 170.33160638546934 17.995965140460093 0.0
    vertex 170.33160638546934 17.995965140460093 4.999999999999999
  endloop
endfacet
facet normal -0.9238795325112865 0.3826834323650908 0.0
  outer loop
    vertex 170.33160638546934 17.995965140460093 0.0
    vertex 170.78115828674018 19.081279437498754 4.999999999999999
    vertex 170.78115828674018 19.081279437498754 0.0
  endloop
endfacet
facet normal -0.9914448613738102 0.13052619222005404 0.0
  outer loop
    vertex 170.93449206843937 20.245965140460097 4.999999999999999
    vertex 170.78115828674018 19.081279437498754 0.0
    vertex 170.78115828674018 19.081279437498754 4.999999999999999
  endloop
endfacet
facet normal -0.9914448613738102 0.13052619222005404 0.0
  outer loop
    vertex 170.78115828674018 19.081279437498754 0.0
    vertex 170.93449206843937 20.245965140460097 4.999999999999999
    vertex 170.93449206843937 20.245965140460097 0.0
  endloop
endfacet
facet normal -0.9914448613738102 -0.13052619222005404 -0.0
  outer loop
    vertex 170.78115828674018 21.410650843421436 4.999999999999999
    vertex 170.93449206843937 20.245965140460097 0.0
    vertex 170.93449206843937 20.245965140460097 4.999999999999999
  endloop
endfacet
facet normal -0.9914448613738102 -0.13052619222005404 -0.0
  outer loop
    vertex 170.93449206843937 20.245965140460097 0.0
    vertex 170.78115828674018 21.410650843421436 4.999999999999999
    vertex 170.78115828674018 21.410650843421436 0.0
  endloop
endfacet
facet normal -1.0 0.0 0.0
  outer loop
    vertex 161.43449206843934 25.245965140460104 4.999999999999999
    vertex 161.43449206843934 15.245965140460106 0.0
    vertex 161.43449206843934 15.245965140460106 4.999999999999999
  endloop
endfacet
facet normal -1.0 0.0 0.0
  outer loop
    vertex 161.43449206843934 15.245965140460106 0.0
    vertex 161.43449206843934 25.245965140460104 4.999999999999999
    vertex 161.43449206843934 25.245965140460104 0.0
  endloop
endfacet
facet normal 0.130526192220049 -0.9914448613738107 0.0
  outer loop
    vertex 166.43449206843937 24.745965140460104 4.999999999999999
    vertex 165.26980636547802 24.592631358760915 0.0
    vertex 166.43449206843937 24.745965140460104 0.0
  endloop
endfacet
facet normal 0.130526192220049 -0.9914448613738107 0.0
  outer loop
    vertex 165.26980636547802 24.592631358760915 0.0
    vertex 166.43449206843937 24.745965140460104 4.999999999999999
    vertex 165.26980636547802 24.592631358760915 4.999999999999999
  endloop
endfacet
facet normal 0.382683432365089 -0.9238795325112872 0.0
  outer loop
    vertex 165.26980636547802 24.592631358760915 4.999999999999999
    vertex 164.18449206843937 24.14307945749008 0.0
    vertex 165.26980636547802 24.592631358760915 0.0
  endloop
endfacet
facet normal 0.382683432365089 -0.9238795325112872 0.0
  outer loop
    vertex 164.18449206843937 24.14307945749008 0.0
    vertex 165.26980636547802 24.592631358760915 4.999999999999999
    vertex 164.18449206843937 24.14307945749008 4.999999999999999
  endloop
endfacet
facet normal 0.6087614290087189 -0.7933533402912365 0.0
  outer loop
    vertex 164.18449206843937 24.14307945749008 4.999999999999999
    vertex 163.25251155309988 23.427945655799572 0.0
    vertex 164.18449206843937 24.14307945749008 0.0
  endloop
endfacet
facet normal 0.6087614290087189 -0.7933533402912365 0.0
  outer loop
    vertex 163.25251155309988 23.427945655799572 0.0
    vertex 164.18449206843937 24.14307945749008 4.999999999999999
    vertex 163.25251155309988 23.427945655799572 4.999999999999999
  endloop
endfacet
facet normal 0.7933533402912343 -0.6087614290087219 0.0
  outer loop
    vertex 163.25251155309988 23.427945655799572 0.0
    vertex 162.5373777514094 22.495965140460108 4.999999999999999
    vertex 162.5373777514094 22.495965140460108 0.0
  endloop
endfacet
facet normal 0.7933533402912343 -0.6087614290087219 0.0
  outer loop
    vertex 162.5373777514094 22.495965140460108 4.999999999999999
    vertex 163.25251155309988 23.427945655799572 0.0
    vertex 163.25251155309988 23.427945655799572 4.999999999999999
  endloop
endfacet
facet normal 0.9238795325112865 -0.3826834323650908 0.0
  outer loop
    vertex 162.5373777514094 22.495965140460108 0.0
    vertex 162.08782585013856 21.410650843421454 4.999999999999999
    vertex 162.08782585013856 21.410650843421454 0.0
  endloop
endfacet
facet normal 0.9238795325112865 -0.3826834323650908 0.0
  outer loop
    vertex 162.08782585013856 21.410650843421454 4.999999999999999
    vertex 162.5373777514094 22.495965140460108 0.0
    vertex 162.5373777514094 22.495965140460108 4.999999999999999
  endloop
endfacet
facet normal 0.9914448613738102 -0.13052619222005404 0.0
  outer loop
    vertex 162.08782585013856 21.410650843421454 0.0
    vertex 161.93449206843934 20.24596514046011 4.999999999999999
    vertex 161.93449206843934 20.24596514046011 0.0
  endloop
endfacet
facet normal 0.9914448613738102 -0.13052619222005404 0.0
  outer loop
    vertex 161.93449206843934 20.24596514046011 4.999999999999999
    vertex 162.08782585013856 21.410650843421454 0.0
    vertex 162.08782585013856 21.410650843421454 4.999999999999999
  endloop
endfacet
facet normal 0.9914448613738102 0.13052619222005438 0.0
  outer loop
    vertex 161.93449206843934 20.24596514046011 0.0
    vertex 162.08782585013856 19.081279437498765 4.999999999999999
    vertex 162.08782585013856 19.081279437498765 0.0
  endloop
endfacet
facet normal 0.9914448613738102 0.13052619222005438 0.0
  outer loop
    vertex 162.08782585013856 19.081279437498765 4.999999999999999
    vertex 161.93449206843934 20.24596514046011 0.0
    vertex 161.93449206843934 20.24596514046011 4.999999999999999
  endloop
endfacet
facet normal 0.9238795325112867 0.38268343236508984 0.0
  outer loop
    vertex 162.08782585013856 19.081279437498765 0.0
    vertex 162.5373777514094 17.99596514046011 4.999999999999999
    vertex 162.5373777514094 17.99596514046011 0.0
  endloop
endfacet
facet normal 0.9238795325112867 0.38268343236508984 0.0
  outer loop
    vertex 162.5373777514094 17.99596514046011 4.999999999999999
    vertex 162.08782585013856 19.081279437498765 0.0
    vertex 162.08782585013856 19.081279437498765 4.999999999999999
  endloop
endfacet
facet normal 0.793353340291239 0.6087614290087159 0.0
  outer loop
    vertex 162.5373777514094 17.99596514046011 0.0
    vertex 163.25251155309988 17.063984625120646 4.999999999999999
    vertex 163.25251155309988 17.063984625120646 0.0
  endloop
endfacet
facet normal 0.793353340291239 0.6087614290087159 0.0
  outer loop
    vertex 163.25251155309988 17.063984625120646 4.999999999999999
    vertex 162.5373777514094 17.99596514046011 0.0
    vertex 162.5373777514094 17.99596514046011 4.999999999999999
  endloop
endfacet
facet normal 0.6087614290087219 0.7933533402912343 0.0
  outer loop
    vertex 163.25251155309988 17.063984625120646 4.999999999999999
    vertex 164.18449206843934 16.348850823430134 0.0
    vertex 163.25251155309988 17.063984625120646 0.0
  endloop
endfacet
facet normal 0.6087614290087219 0.7933533402912343 0.0
  outer loop
    vertex 164.18449206843934 16.348850823430134 0.0
    vertex 163.25251155309988 17.063984625120646 4.999999999999999
    vertex 164.18449206843934 16.348850823430134 4.999999999999999
  endloop
endfacet
facet normal 0.382683432365089 0.9238795325112872 0.0
  outer loop
    vertex 164.18449206843934 16.348850823430134 4.999999999999999
    vertex 165.26980636547802 15.8992989221593 0.0
    vertex 164.18449206843934 16.348850823430134 0.0
  endloop
endfacet
facet normal 0.382683432365089 0.9238795325112872 0.0
  outer loop
    vertex 165.26980636547802 15.8992989221593 0.0
    vertex 164.18449206843934 16.348850823430134 4.999999999999999
    vertex 165.26980636547802 15.8992989221593 4.999999999999999
  endloop
endfacet
facet normal 0.13052619222005496 0.9914448613738099 0.0
  outer loop
    vertex 165.26980636547802 15.8992989221593 4.999999999999999
    vertex 166.43449206843934 15.745965140460104 0.0
    vertex 165.26980636547802 15.8992989221593 0.0
  endloop
endfacet
facet normal 0.13052619222005496 0.9914448613738099 0.0
  outer loop
    vertex 166.43449206843934 15.745965140460104 0.0
    vertex 165.26980636547802 15.8992989221593 4.999999999999999
    vertex 166.43449206843934 15.745965140460104 4.999999999999999
  endloop
endfacet
facet normal -0.130526192220049 0.9914448613738107 0.0
  outer loop
    vertex 166.43449206843934 15.745965140460104 4.999999999999999
    vertex 167.5991777714007 15.899298922159295 0.0
    vertex 166.43449206843934 15.745965140460104 0.0
  endloop
endfacet
facet normal -0.130526192220049 0.9914448613738107 0.0
  outer loop
    vertex 167.5991777714007 15.899298922159295 0.0
    vertex 166.43449206843934 15.745965140460104 4.999999999999999
    vertex 167.5991777714007 15.899298922159295 4.999999999999999
  endloop
endfacet
endsolid contador rpm
