solid contador rpm
facet normal -0.9914448613738105 -0.1305261922200519 -1.8260193308087548e-16
  outer loop
    vertex 213.94384527262147 -19.688112366928447 7.999999999999991
    vertex 214.1534014409437 -21.27984949430894 -5.639932965095795e-15
    vertex 214.1534014409437 -21.27984949430895 7.999999999999991
  endloop
endfacet
facet normal -0.9914448613738105 -0.1305261922200519 -1.8260193308087548e-16
  outer loop
    vertex 214.1534014409437 -21.27984949430894 -5.639932965095795e-15
    vertex 213.94384527262147 -19.688112366928447 7.999999999999991
    vertex 213.94384527262147 -19.688112366928447 -5.639932965095795e-15
  endloop
endfacet
facet normal -0.6087614290087145 0.79335334029124 4.439502940808072e-15
  outer loop
    vertex 211.30784239119362 -26.429849494308943 7.999999999999991
    vertex 212.35210814524098 -25.628556198606216 -5.639932965095795e-15
    vertex 211.30784239119362 -26.429849494308943 -5.639932965095795e-15
  endloop
endfacet
facet normal -0.6087614290087145 0.79335334029124 4.439502940808072e-15
  outer loop
    vertex 212.35210814524098 -25.628556198606216 -5.639932965095795e-15
    vertex 211.30784239119362 -26.429849494308943 7.999999999999991
    vertex 212.35210814524098 -25.628556198606216 7.999999999999991
  endloop
endfacet
facet normal -0.7933533402912428 0.6087614290087106 1.7245661499700454e-15
  outer loop
    vertex 213.0034014409437 -24.779774250485044 7.999999999999991
    vertex 212.35210814524098 -25.628556198606216 -5.639932965095795e-15
    vertex 212.35210814524098 -25.628556198606216 7.999999999999991
  endloop
endfacet
facet normal -0.7933533402912428 0.6087614290087106 1.7245661499700454e-15
  outer loop
    vertex 212.35210814524098 -25.628556198606216 -5.639932965095795e-15
    vertex 213.0034014409437 -24.779774250485044 7.999999999999991
    vertex 213.0034014409437 -24.779774250485044 -5.639932965095795e-15
  endloop
endfacet
facet normal 0.0 1.0 5.639932965095795e-15
  outer loop
    vertex 204.6989604906938 -26.429849494308943 7.999999999999991
    vertex 211.30784239119362 -26.429849494308943 -5.639932965095795e-15
    vertex 204.6989604906938 -26.429849494308943 -5.639932965095795e-15
  endloop
endfacet
facet normal 0.0 1.0 5.639932965095795e-15
  outer loop
    vertex 211.30784239119362 -26.429849494308943 -5.639932965095795e-15
    vertex 204.6989604906938 -26.429849494308943 7.999999999999991
    vertex 211.30784239119362 -26.429849494308943 7.999999999999991
  endloop
endfacet
facet normal 0.608761429008731 0.7933533402912273 4.439502940808e-15
  outer loop
    vertex 203.65469473664646 -25.628556198606216 7.999999999999991
    vertex 204.6989604906938 -26.429849494308943 -5.639932965095795e-15
    vertex 203.65469473664646 -25.628556198606216 -5.639932965095795e-15
  endloop
endfacet
facet normal 0.608761429008731 0.7933533402912273 4.439502940808e-15
  outer loop
    vertex 204.6989604906938 -26.429849494308943 -5.639932965095795e-15
    vertex 203.65469473664646 -25.628556198606216 7.999999999999991
    vertex 204.6989604906938 -26.429849494308943 7.999999999999991
  endloop
endfacet
facet normal 0.793353340291224 0.6087614290087353 2.5549128147705415e-15
  outer loop
    vertex 203.0034014409437 -24.779774250485044 -5.639932965095795e-15
    vertex 203.65469473664646 -25.628556198606216 7.999999999999991
    vertex 203.65469473664646 -25.628556198606216 -5.639932965095795e-15
  endloop
endfacet
facet normal 0.793353340291224 0.6087614290087353 2.5549128147705415e-15
  outer loop
    vertex 203.65469473664646 -25.628556198606216 7.999999999999991
    vertex 203.0034014409437 -24.779774250485044 -5.639932965095795e-15
    vertex 203.0034014409437 -24.779774250485044 7.999999999999991
  endloop
endfacet
facet normal 0.7933533402912339 0.6087614290087225 1.713920679908536e-15
  outer loop
    vertex 202.6773452076694 -24.35484949430894 -5.639932965095795e-15
    vertex 203.0034014409437 -24.779774250485044 7.999999999999991
    vertex 203.0034014409437 -24.779774250485044 -5.639932965095795e-15
  endloop
endfacet
facet normal 0.7933533402912339 0.6087614290087225 1.713920679908536e-15
  outer loop
    vertex 203.0034014409437 -24.779774250485044 7.999999999999991
    vertex 202.6773452076694 -24.35484949430894 -5.639932965095795e-15
    vertex 202.6773452076694 -24.35484949430895 7.999999999999991
  endloop
endfacet
facet normal 0.9238795325112892 0.382683432365084 5.353617792671177e-16
  outer loop
    vertex 202.6773452076694 -24.35484949430894 -5.639932965095795e-15
    vertex 202.06295760926594 -22.871586621689456 7.999999999999991
    vertex 202.6773452076694 -24.35484949430895 7.999999999999991
  endloop
endfacet
facet normal 0.9238795325112892 0.382683432365084 5.353617792671177e-16
  outer loop
    vertex 202.06295760926594 -22.871586621689456 7.999999999999991
    vertex 202.6773452076694 -24.35484949430894 -5.639932965095795e-15
    vertex 202.06295760926594 -22.871586621689456 -5.639932965095795e-15
  endloop
endfacet
facet normal 0.9914448613738105 0.13052619222005146 1.8260193308087486e-16
  outer loop
    vertex 201.85340144094368 -21.27984949430894 -5.639932965095795e-15
    vertex 202.06295760926594 -22.871586621689456 7.999999999999991
    vertex 202.06295760926594 -22.871586621689456 -5.639932965095795e-15
  endloop
endfacet
facet normal 0.9914448613738105 0.13052619222005146 1.8260193308087486e-16
  outer loop
    vertex 202.06295760926594 -22.871586621689456 7.999999999999991
    vertex 201.85340144094368 -21.27984949430894 -5.639932965095795e-15
    vertex 201.85340144094368 -21.27984949430895 7.999999999999991
  endloop
endfacet
facet normal 0.9914448613738105 -0.1305261922200512 -1.9173202973491822e-16
  outer loop
    vertex 201.85340144094368 -21.27984949430894 -5.639932965095795e-15
    vertex 202.06295760926594 -19.688112366928447 7.999999999999991
    vertex 201.85340144094368 -21.27984949430895 7.999999999999991
  endloop
endfacet
facet normal 0.9914448613738105 -0.1305261922200512 -1.9173202973491822e-16
  outer loop
    vertex 202.06295760926594 -19.688112366928447 7.999999999999991
    vertex 201.85340144094368 -21.27984949430894 -5.639932965095795e-15
    vertex 202.06295760926594 -19.688112366928447 -5.639932965095795e-15
  endloop
endfacet
facet normal 0.9238795325112892 -0.38268343236508445 0.0
  outer loop
    vertex 202.6773452076694 -18.20484949430894 -5.639932965095795e-15
    vertex 202.06295760926594 -19.688112366928447 7.999999999999991
    vertex 202.06295760926594 -19.688112366928447 -5.639932965095795e-15
  endloop
endfacet
facet normal 0.9238795325112892 -0.38268343236508445 0.0
  outer loop
    vertex 202.06295760926594 -19.688112366928447 7.999999999999991
    vertex 202.6773452076694 -18.20484949430894 -5.639932965095795e-15
    vertex 202.6773452076694 -18.20484949430894 7.999999999999991
  endloop
endfacet
facet normal -0.7933533402912449 -0.608761429008708 0.0
  outer loop
    vertex 212.35210814524098 -16.931142790011688 7.999999999999991
    vertex 213.0034014409437 -17.779924738132863 -5.639932965095795e-15
    vertex 213.0034014409437 -17.779924738132863 7.999999999999991
  endloop
endfacet
facet normal -0.7933533402912449 -0.608761429008708 0.0
  outer loop
    vertex 213.0034014409437 -17.779924738132863 -5.639932965095795e-15
    vertex 212.35210814524098 -16.931142790011688 7.999999999999991
    vertex 212.35210814524098 -16.931142790011688 -5.639932965095795e-15
  endloop
endfacet
facet normal -0.608761429008716 -0.7933533402912388 0.0
  outer loop
    vertex 212.35210814524098 -16.931142790011688 7.999999999999991
    vertex 211.30784239119362 -16.12984949430895 -5.639932965095795e-15
    vertex 212.35210814524098 -16.931142790011688 -5.639932965095795e-15
  endloop
endfacet
facet normal -0.608761429008716 -0.7933533402912388 0.0
  outer loop
    vertex 211.30784239119362 -16.12984949430895 -5.639932965095795e-15
    vertex 212.35210814524098 -16.931142790011688 7.999999999999991
    vertex 211.30784239119362 -16.12984949430895 7.999999999999991
  endloop
endfacet
facet normal 0.7933533402912236 -0.608761429008736 0.0
  outer loop
    vertex 203.65469473664646 -16.931142790011688 -5.639932965095795e-15
    vertex 203.0034014409437 -17.779924738132863 7.999999999999991
    vertex 203.0034014409437 -17.779924738132863 -5.639932965095795e-15
  endloop
endfacet
facet normal 0.7933533402912236 -0.608761429008736 0.0
  outer loop
    vertex 203.0034014409437 -17.779924738132863 7.999999999999991
    vertex 203.65469473664646 -16.931142790011688 -5.639932965095795e-15
    vertex 203.65469473664646 -16.931142790011688 7.999999999999991
  endloop
endfacet
facet normal 0.0 -1.0 0.0
  outer loop
    vertex 211.30784239119362 -16.12984949430895 7.999999999999991
    vertex 204.6989604906938 -16.12984949430895 -5.639932965095795e-15
    vertex 211.30784239119362 -16.12984949430895 -5.639932965095795e-15
  endloop
endfacet
facet normal 0.0 -1.0 0.0
  outer loop
    vertex 204.6989604906938 -16.12984949430895 -5.639932965095795e-15
    vertex 211.30784239119362 -16.12984949430895 7.999999999999991
    vertex 204.6989604906938 -16.12984949430895 7.999999999999991
  endloop
endfacet
facet normal 0.608761429008731 -0.7933533402912273 0.0
  outer loop
    vertex 204.6989604906938 -16.12984949430895 7.999999999999991
    vertex 203.65469473664646 -16.931142790011688 -5.639932965095795e-15
    vertex 204.6989604906938 -16.12984949430895 -5.639932965095795e-15
  endloop
endfacet
facet normal 0.608761429008731 -0.7933533402912273 0.0
  outer loop
    vertex 203.65469473664646 -16.931142790011688 -5.639932965095795e-15
    vertex 204.6989604906938 -16.12984949430895 7.999999999999991
    vertex 203.65469473664646 -16.931142790011688 7.999999999999991
  endloop
endfacet
facet normal 0.7933533402912338 -0.6087614290087224 0.0
  outer loop
    vertex 203.0034014409437 -17.779924738132863 -5.639932965095795e-15
    vertex 202.6773452076694 -18.20484949430894 7.999999999999991
    vertex 202.6773452076694 -18.20484949430894 -5.639932965095795e-15
  endloop
endfacet
facet normal 0.7933533402912338 -0.6087614290087224 0.0
  outer loop
    vertex 202.6773452076694 -18.20484949430894 7.999999999999991
    vertex 203.0034014409437 -17.779924738132863 -5.639932965095795e-15
    vertex 203.0034014409437 -17.779924738132863 7.999999999999991
  endloop
endfacet
facet normal 0.0 0.0 -1.0
  outer loop
    vertex 200.6667053410924 -13.541499192522378 -5.639932965095795e-15
    vertex 202.06295760926594 -19.688112366928447 -5.639932965095795e-15
    vertex 200.6667053410924 -28.541499192522373 -5.639932965095795e-15
  endloop
endfacet
facet normal 0.0 0.0 -1.0
  outer loop
    vertex 202.06295760926594 -19.688112366928447 -5.639932965095795e-15
    vertex 200.6667053410924 -13.541499192522378 -5.639932965095795e-15
    vertex 202.6773452076694 -18.20484949430894 -5.639932965095795e-15
  endloop
endfacet
facet normal 0.0 0.0 -1.0
  outer loop
    vertex 202.6773452076694 -18.20484949430894 -5.639932965095795e-15
    vertex 200.6667053410924 -13.541499192522378 -5.639932965095795e-15
    vertex 203.0034014409437 -17.779924738132863 -5.639932965095795e-15
  endloop
endfacet
facet normal 0.0 0.0 -1.0
  outer loop
    vertex 203.0034014409437 -17.779924738132863 -5.639932965095795e-15
    vertex 200.6667053410924 -13.541499192522378 -5.639932965095795e-15
    vertex 203.65469473664646 -16.931142790011688 -5.639932965095795e-15
  endloop
endfacet
facet normal 0.0 0.0 -1.0
  outer loop
    vertex 203.65469473664646 -16.931142790011688 -5.639932965095795e-15
    vertex 200.6667053410924 -13.541499192522378 -5.639932965095795e-15
    vertex 204.6989604906938 -16.12984949430895 -5.639932965095795e-15
  endloop
endfacet
facet normal 0.0 0.0 -1.0
  outer loop
    vertex 204.6989604906938 -16.12984949430895 -5.639932965095795e-15
    vertex 200.6667053410924 -13.541499192522378 -5.639932965095795e-15
    vertex 215.66670534109244 -13.541499192522378 -5.639932965095795e-15
  endloop
endfacet
facet normal 0.0 0.0 -1.0
  outer loop
    vertex 200.6667053410924 -28.541499192522373 -5.639932965095795e-15
    vertex 202.06295760926594 -19.688112366928447 -5.639932965095795e-15
    vertex 201.85340144094368 -21.27984949430894 -5.639932965095795e-15
  endloop
endfacet
facet normal 0.0 0.0 -1.0
  outer loop
    vertex 204.6989604906938 -16.12984949430895 -5.639932965095795e-15
    vertex 215.66670534109244 -13.541499192522378 -5.639932965095795e-15
    vertex 211.30784239119362 -16.12984949430895 -5.639932965095795e-15
  endloop
endfacet
facet normal 0.0 0.0 -1.0
  outer loop
    vertex 211.30784239119362 -16.12984949430895 -5.639932965095795e-15
    vertex 215.66670534109244 -13.541499192522378 -5.639932965095795e-15
    vertex 212.35210814524098 -16.931142790011688 -5.639932965095795e-15
  endloop
endfacet
facet normal 0.0 0.0 -1.0
  outer loop
    vertex 212.35210814524098 -16.931142790011688 -5.639932965095795e-15
    vertex 215.66670534109244 -13.541499192522378 -5.639932965095795e-15
    vertex 213.0034014409437 -17.779924738132863 -5.639932965095795e-15
  endloop
endfacet
facet normal 0.0 0.0 -1.0
  outer loop
    vertex 213.0034014409437 -17.779924738132863 -5.639932965095795e-15
    vertex 215.66670534109244 -13.541499192522378 -5.639932965095795e-15
    vertex 213.329457674218 -18.204849494308952 -5.639932965095795e-15
  endloop
endfacet
facet normal 0.0 0.0 -1.0
  outer loop
    vertex 213.329457674218 -18.204849494308952 -5.639932965095795e-15
    vertex 215.66670534109244 -13.541499192522378 -5.639932965095795e-15
    vertex 213.94384527262147 -19.688112366928447 -5.639932965095795e-15
  endloop
endfacet
facet normal 0.0 0.0 -1.0
  outer loop
    vertex 213.94384527262147 -19.688112366928447 -5.639932965095795e-15
    vertex 215.66670534109244 -13.541499192522378 -5.639932965095795e-15
    vertex 214.1534014409437 -21.27984949430894 -5.639932965095795e-15
  endloop
endfacet
facet normal 0.0 0.0 -1.0
  outer loop
    vertex 200.6667053410924 -28.541499192522373 -5.639932965095795e-15
    vertex 204.6989604906938 -26.429849494308943 -5.639932965095795e-15
    vertex 215.66670534109244 -28.541499192522373 -5.639932965095795e-15
  endloop
endfacet
facet normal 0.0 0.0 -1.0
  outer loop
    vertex 204.6989604906938 -26.429849494308943 -5.639932965095795e-15
    vertex 200.6667053410924 -28.541499192522373 -5.639932965095795e-15
    vertex 203.65469473664646 -25.628556198606216 -5.639932965095795e-15
  endloop
endfacet
facet normal 0.0 0.0 -1.0
  outer loop
    vertex 203.65469473664646 -25.628556198606216 -5.639932965095795e-15
    vertex 200.6667053410924 -28.541499192522373 -5.639932965095795e-15
    vertex 203.0034014409437 -24.779774250485044 -5.639932965095795e-15
  endloop
endfacet
facet normal 0.0 0.0 -1.0
  outer loop
    vertex 203.0034014409437 -24.779774250485044 -5.639932965095795e-15
    vertex 200.6667053410924 -28.541499192522373 -5.639932965095795e-15
    vertex 202.6773452076694 -24.35484949430894 -5.639932965095795e-15
  endloop
endfacet
facet normal 0.0 0.0 -1.0
  outer loop
    vertex 202.6773452076694 -24.35484949430894 -5.639932965095795e-15
    vertex 200.6667053410924 -28.541499192522373 -5.639932965095795e-15
    vertex 202.06295760926594 -22.871586621689456 -5.639932965095795e-15
  endloop
endfacet
facet normal 0.0 0.0 -1.0
  outer loop
    vertex 202.06295760926594 -22.871586621689456 -5.639932965095795e-15
    vertex 200.6667053410924 -28.541499192522373 -5.639932965095795e-15
    vertex 201.85340144094368 -21.27984949430894 -5.639932965095795e-15
  endloop
endfacet
facet normal 0.0 0.0 -1.0
  outer loop
    vertex 215.66670534109244 -28.541499192522373 -5.639932965095795e-15
    vertex 204.6989604906938 -26.429849494308943 -5.639932965095795e-15
    vertex 211.30784239119362 -26.429849494308943 -5.639932965095795e-15
  endloop
endfacet
facet normal 0.0 0.0 -1.0
  outer loop
    vertex 215.66670534109244 -28.541499192522373 -5.639932965095795e-15
    vertex 211.30784239119362 -26.429849494308943 -5.639932965095795e-15
    vertex 212.35210814524098 -25.628556198606216 -5.639932965095795e-15
  endloop
endfacet
facet normal 0.0 0.0 -1.0
  outer loop
    vertex 215.66670534109244 -28.541499192522373 -5.639932965095795e-15
    vertex 212.35210814524098 -25.628556198606216 -5.639932965095795e-15
    vertex 213.0034014409437 -24.779774250485044 -5.639932965095795e-15
  endloop
endfacet
facet normal 0.0 0.0 -1.0
  outer loop
    vertex 215.66670534109244 -28.541499192522373 -5.639932965095795e-15
    vertex 213.0034014409437 -24.779774250485044 -5.639932965095795e-15
    vertex 213.329457674218 -24.35484949430895 -5.639932965095795e-15
  endloop
endfacet
facet normal 0.0 0.0 -1.0
  outer loop
    vertex 215.66670534109244 -28.541499192522373 -5.639932965095795e-15
    vertex 213.329457674218 -24.35484949430895 -5.639932965095795e-15
    vertex 213.94384527262147 -22.871586621689456 -5.639932965095795e-15
  endloop
endfacet
facet normal 0.0 0.0 -1.0
  outer loop
    vertex 215.66670534109244 -28.541499192522373 -5.639932965095795e-15
    vertex 213.94384527262147 -22.871586621689456 -5.639932965095795e-15
    vertex 214.1534014409437 -21.27984949430894 -5.639932965095795e-15
  endloop
endfacet
facet normal 0.0 0.0 -1.0
  outer loop
    vertex 215.66670534109244 -28.541499192522373 -5.639932965095795e-15
    vertex 214.1534014409437 -21.27984949430894 -5.639932965095795e-15
    vertex 215.66670534109244 -13.541499192522378 -5.639932965095795e-15
  endloop
endfacet
facet normal 0.0 -1.0 0.0
  outer loop
    vertex 215.66670534109244 -28.541499192522373 7.999999999999991
    vertex 200.6667053410924 -28.541499192522373 -5.639932965095795e-15
    vertex 215.66670534109244 -28.541499192522373 -5.639932965095795e-15
  endloop
endfacet
facet normal 0.0 -1.0 0.0
  outer loop
    vertex 200.6667053410924 -28.541499192522373 -5.639932965095795e-15
    vertex 215.66670534109244 -28.541499192522373 7.999999999999991
    vertex 200.6667053410924 -28.541499192522373 7.999999999999991
  endloop
endfacet
facet normal 0.0 1.0 0.0
  outer loop
    vertex 200.6667053410924 -13.541499192522378 7.999999999999991
    vertex 215.66670534109244 -13.541499192522378 -5.639932965095795e-15
    vertex 200.6667053410924 -13.541499192522378 -5.639932965095795e-15
  endloop
endfacet
facet normal 0.0 1.0 0.0
  outer loop
    vertex 215.66670534109244 -13.541499192522378 -5.639932965095795e-15
    vertex 200.6667053410924 -13.541499192522378 7.999999999999991
    vertex 215.66670534109244 -13.541499192522378 7.999999999999991
  endloop
endfacet
facet normal 0.0 0.0 1.0
  outer loop
    vertex 200.6667053410924 -28.541499192522373 7.999999999999991
    vertex 202.06295760926594 -22.871586621689456 7.999999999999991
    vertex 200.6667053410924 -13.541499192522378 7.999999999999991
  endloop
endfacet
facet normal 0.0 0.0 1.0
  outer loop
    vertex 202.06295760926594 -22.871586621689456 7.999999999999991
    vertex 200.6667053410924 -28.541499192522373 7.999999999999991
    vertex 202.6773452076694 -24.35484949430895 7.999999999999991
  endloop
endfacet
facet normal 0.0 0.0 1.0
  outer loop
    vertex 202.6773452076694 -24.35484949430895 7.999999999999991
    vertex 200.6667053410924 -28.541499192522373 7.999999999999991
    vertex 203.0034014409437 -24.779774250485044 7.999999999999991
  endloop
endfacet
facet normal 0.0 0.0 1.0
  outer loop
    vertex 203.0034014409437 -24.779774250485044 7.999999999999991
    vertex 200.6667053410924 -28.541499192522373 7.999999999999991
    vertex 203.65469473664646 -25.628556198606216 7.999999999999991
  endloop
endfacet
facet normal 0.0 0.0 1.0
  outer loop
    vertex 203.65469473664646 -25.628556198606216 7.999999999999991
    vertex 200.6667053410924 -28.541499192522373 7.999999999999991
    vertex 204.6989604906938 -26.429849494308943 7.999999999999991
  endloop
endfacet
facet normal 0.0 0.0 1.0
  outer loop
    vertex 204.6989604906938 -26.429849494308943 7.999999999999991
    vertex 200.6667053410924 -28.541499192522373 7.999999999999991
    vertex 215.66670534109244 -28.541499192522373 7.999999999999991
  endloop
endfacet
facet normal 0.0 0.0 1.0
  outer loop
    vertex 200.6667053410924 -13.541499192522378 7.999999999999991
    vertex 202.06295760926594 -22.871586621689456 7.999999999999991
    vertex 201.85340144094368 -21.27984949430895 7.999999999999991
  endloop
endfacet
facet normal 0.0 0.0 1.0
  outer loop
    vertex 204.6989604906938 -26.429849494308943 7.999999999999991
    vertex 215.66670534109244 -28.541499192522373 7.999999999999991
    vertex 211.30784239119362 -26.429849494308943 7.999999999999991
  endloop
endfacet
facet normal 0.0 0.0 1.0
  outer loop
    vertex 211.30784239119362 -26.429849494308943 7.999999999999991
    vertex 215.66670534109244 -28.541499192522373 7.999999999999991
    vertex 212.35210814524098 -25.628556198606216 7.999999999999991
  endloop
endfacet
facet normal 0.0 0.0 1.0
  outer loop
    vertex 212.35210814524098 -25.628556198606216 7.999999999999991
    vertex 215.66670534109244 -28.541499192522373 7.999999999999991
    vertex 213.0034014409437 -24.779774250485044 7.999999999999991
  endloop
endfacet
facet normal 0.0 0.0 1.0
  outer loop
    vertex 213.0034014409437 -24.779774250485044 7.999999999999991
    vertex 215.66670534109244 -28.541499192522373 7.999999999999991
    vertex 213.329457674218 -24.35484949430895 7.999999999999991
  endloop
endfacet
facet normal 0.0 0.0 1.0
  outer loop
    vertex 213.329457674218 -24.35484949430895 7.999999999999991
    vertex 215.66670534109244 -28.541499192522373 7.999999999999991
    vertex 213.94384527262147 -22.871586621689456 7.999999999999991
  endloop
endfacet
facet normal 0.0 0.0 1.0
  outer loop
    vertex 213.94384527262147 -22.871586621689456 7.999999999999991
    vertex 215.66670534109244 -28.541499192522373 7.999999999999991
    vertex 214.1534014409437 -21.27984949430895 7.999999999999991
  endloop
endfacet
facet normal 0.0 0.0 1.0
  outer loop
    vertex 200.6667053410924 -13.541499192522378 7.999999999999991
    vertex 204.6989604906938 -16.12984949430895 7.999999999999991
    vertex 215.66670534109244 -13.541499192522378 7.999999999999991
  endloop
endfacet
facet normal 0.0 0.0 1.0
  outer loop
    vertex 204.6989604906938 -16.12984949430895 7.999999999999991
    vertex 200.6667053410924 -13.541499192522378 7.999999999999991
    vertex 203.65469473664646 -16.931142790011688 7.999999999999991
  endloop
endfacet
facet normal 0.0 0.0 1.0
  outer loop
    vertex 203.65469473664646 -16.931142790011688 7.999999999999991
    vertex 200.6667053410924 -13.541499192522378 7.999999999999991
    vertex 203.0034014409437 -17.779924738132863 7.999999999999991
  endloop
endfacet
facet normal 0.0 0.0 1.0
  outer loop
    vertex 203.0034014409437 -17.779924738132863 7.999999999999991
    vertex 200.6667053410924 -13.541499192522378 7.999999999999991
    vertex 202.6773452076694 -18.20484949430894 7.999999999999991
  endloop
endfacet
facet normal 0.0 0.0 1.0
  outer loop
    vertex 202.6773452076694 -18.20484949430894 7.999999999999991
    vertex 200.6667053410924 -13.541499192522378 7.999999999999991
    vertex 202.06295760926594 -19.688112366928447 7.999999999999991
  endloop
endfacet
facet normal 0.0 0.0 1.0
  outer loop
    vertex 202.06295760926594 -19.688112366928447 7.999999999999991
    vertex 200.6667053410924 -13.541499192522378 7.999999999999991
    vertex 201.85340144094368 -21.27984949430895 7.999999999999991
  endloop
endfacet
facet normal 0.0 0.0 1.0
  outer loop
    vertex 215.66670534109244 -13.541499192522378 7.999999999999991
    vertex 204.6989604906938 -16.12984949430895 7.999999999999991
    vertex 211.30784239119362 -16.12984949430895 7.999999999999991
  endloop
endfacet
facet normal 0.0 0.0 1.0
  outer loop
    vertex 215.66670534109244 -13.541499192522378 7.999999999999991
    vertex 211.30784239119362 -16.12984949430895 7.999999999999991
    vertex 212.35210814524098 -16.931142790011688 7.999999999999991
  endloop
endfacet
facet normal 0.0 0.0 1.0
  outer loop
    vertex 215.66670534109244 -13.541499192522378 7.999999999999991
    vertex 212.35210814524098 -16.931142790011688 7.999999999999991
    vertex 213.0034014409437 -17.779924738132863 7.999999999999991
  endloop
endfacet
facet normal 0.0 0.0 1.0
  outer loop
    vertex 215.66670534109244 -13.541499192522378 7.999999999999991
    vertex 213.0034014409437 -17.779924738132863 7.999999999999991
    vertex 213.329457674218 -18.204849494308952 7.999999999999991
  endloop
endfacet
facet normal 0.0 0.0 1.0
  outer loop
    vertex 215.66670534109244 -13.541499192522378 7.999999999999991
    vertex 213.329457674218 -18.204849494308952 7.999999999999991
    vertex 213.94384527262147 -19.688112366928447 7.999999999999991
  endloop
endfacet
facet normal 0.0 0.0 1.0
  outer loop
    vertex 215.66670534109244 -13.541499192522378 7.999999999999991
    vertex 213.94384527262147 -19.688112366928447 7.999999999999991
    vertex 214.1534014409437 -21.27984949430895 7.999999999999991
  endloop
endfacet
facet normal 0.0 0.0 1.0
  outer loop
    vertex 215.66670534109244 -13.541499192522378 7.999999999999991
    vertex 214.1534014409437 -21.27984949430895 7.999999999999991
    vertex 215.66670534109244 -28.541499192522373 7.999999999999991
  endloop
endfacet
facet normal -1.0 0.0 0.0
  outer loop
    vertex 200.6667053410924 -13.541499192522378 7.999999999999991
    vertex 200.6667053410924 -28.541499192522373 -5.639932965095795e-15
    vertex 200.6667053410924 -28.541499192522373 7.999999999999991
  endloop
endfacet
facet normal -1.0 0.0 0.0
  outer loop
    vertex 200.6667053410924 -28.541499192522373 -5.639932965095795e-15
    vertex 200.6667053410924 -13.541499192522378 7.999999999999991
    vertex 200.6667053410924 -13.541499192522378 -5.639932965095795e-15
  endloop
endfacet
facet normal 1.0 0.0 0.0
  outer loop
    vertex 215.66670534109244 -13.541499192522378 -5.639932965095795e-15
    vertex 215.66670534109244 -28.541499192522373 7.999999999999991
    vertex 215.66670534109244 -28.541499192522373 -5.639932965095795e-15
  endloop
endfacet
facet normal 1.0 0.0 0.0
  outer loop
    vertex 215.66670534109244 -28.541499192522373 7.999999999999991
    vertex 215.66670534109244 -13.541499192522378 -5.639932965095795e-15
    vertex 215.66670534109244 -13.541499192522378 7.999999999999991
  endloop
endfacet
facet normal -0.9914448613738105 0.13052619222005138 3.743339628157932e-16
  outer loop
    vertex 214.1534014409437 -21.27984949430895 7.999999999999991
    vertex 213.94384527262147 -22.871586621689456 -5.639932965095795e-15
    vertex 213.94384527262147 -22.871586621689456 7.999999999999991
  endloop
endfacet
facet normal -0.9914448613738105 0.13052619222005138 3.743339628157932e-16
  outer loop
    vertex 213.94384527262147 -22.871586621689456 -5.639932965095795e-15
    vertex 214.1534014409437 -21.27984949430895 7.999999999999991
    vertex 214.1534014409437 -21.27984949430894 -5.639932965095795e-15
  endloop
endfacet
facet normal -0.9238795325112843 -0.3826834323650957 0.0
  outer loop
    vertex 213.329457674218 -18.204849494308952 7.999999999999991
    vertex 213.94384527262147 -19.688112366928447 -5.639932965095795e-15
    vertex 213.94384527262147 -19.688112366928447 7.999999999999991
  endloop
endfacet
facet normal -0.9238795325112843 -0.3826834323650957 0.0
  outer loop
    vertex 213.94384527262147 -19.688112366928447 -5.639932965095795e-15
    vertex 213.329457674218 -18.204849494308952 7.999999999999991
    vertex 213.329457674218 -18.204849494308952 -5.639932965095795e-15
  endloop
endfacet
facet normal -0.7933533402912338 -0.6087614290087224 0.0
  outer loop
    vertex 213.0034014409437 -17.779924738132863 7.999999999999991
    vertex 213.329457674218 -18.204849494308952 -5.639932965095795e-15
    vertex 213.329457674218 -18.204849494308952 7.999999999999991
  endloop
endfacet
facet normal -0.7933533402912338 -0.6087614290087224 0.0
  outer loop
    vertex 213.329457674218 -18.204849494308952 -5.639932965095795e-15
    vertex 213.0034014409437 -17.779924738132863 7.999999999999991
    vertex 213.0034014409437 -17.779924738132863 -5.639932965095795e-15
  endloop
endfacet
facet normal 0.0 0.0 1.0
  outer loop
    vertex 215.66670534109244 -83.54149919252237 -20.000000000000004
    vertex 200.6667053410924 -80.54149919252237 -20.000000000000004
    vertex 200.6667053410924 -83.54149919252237 -20.000000000000004
  endloop
endfacet
facet normal 0.0 0.0 1.0
  outer loop
    vertex 200.6667053410924 -80.54149919252237 -20.000000000000004
    vertex 215.66670534109244 -83.54149919252237 -20.000000000000004
    vertex 215.66670534109244 -80.54149919252237 -20.000000000000004
  endloop
endfacet
facet normal 1.0 0.0 0.0
  outer loop
    vertex 215.66670534109244 -80.54149919252237 -20.000000000000004
    vertex 215.66670534109244 -83.54149919252237 27.99999999999999
    vertex 215.66670534109244 -83.54149919252237 -20.000000000000004
  endloop
endfacet
facet normal 1.0 0.0 0.0
  outer loop
    vertex 215.66670534109244 -83.54149919252237 27.99999999999999
    vertex 215.66670534109244 -80.54149919252237 -20.000000000000004
    vertex 215.66670534109244 -80.54149919252237 27.99999999999999
  endloop
endfacet
facet normal 1.0 0.0 0.0
  outer loop
    vertex 215.66670534109244 -80.54149919252237 27.99999999999999
    vertex 215.66670534109244 -80.54149919252237 -20.000000000000004
    vertex 215.66670534109244 -80.54149919252237 -5.639932965095795e-15
  endloop
endfacet
facet normal 1.0 0.0 0.0
  outer loop
    vertex 215.66670534109244 -80.54149919252237 27.99999999999999
    vertex 215.66670534109244 -80.54149919252237 -5.639932965095795e-15
    vertex 215.66670534109244 -80.54149919252237 7.999999999999991
  endloop
endfacet
facet normal 0.0 1.0 0.0
  outer loop
    vertex 200.6667053410924 -80.54149919252237 7.999999999999991
    vertex 215.66670534109244 -80.54149919252237 -5.639932965095795e-15
    vertex 200.6667053410924 -80.54149919252237 -5.639932965095795e-15
  endloop
endfacet
facet normal 0.0 1.0 0.0
  outer loop
    vertex 215.66670534109244 -80.54149919252237 -5.639932965095795e-15
    vertex 200.6667053410924 -80.54149919252237 7.999999999999991
    vertex 215.66670534109244 -80.54149919252237 7.999999999999991
  endloop
endfacet
facet normal -1.0 0.0 0.0
  outer loop
    vertex 200.6667053410924 -80.54149919252237 27.99999999999999
    vertex 200.6667053410924 -83.54149919252237 -20.000000000000004
    vertex 200.6667053410924 -83.54149919252237 27.99999999999999
  endloop
endfacet
facet normal -1.0 0.0 0.0
  outer loop
    vertex 200.6667053410924 -83.54149919252237 -20.000000000000004
    vertex 200.6667053410924 -80.54149919252237 27.99999999999999
    vertex 200.6667053410924 -80.54149919252237 -20.000000000000004
  endloop
endfacet
facet normal -1.0 0.0 0.0
  outer loop
    vertex 200.6667053410924 -80.54149919252237 -20.000000000000004
    vertex 200.6667053410924 -80.54149919252237 27.99999999999999
    vertex 200.6667053410924 -80.54149919252237 7.999999999999991
  endloop
endfacet
facet normal -1.0 0.0 0.0
  outer loop
    vertex 200.6667053410924 -80.54149919252237 -20.000000000000004
    vertex 200.6667053410924 -80.54149919252237 7.999999999999991
    vertex 200.6667053410924 -80.54149919252237 -5.639932965095795e-15
  endloop
endfacet
facet normal 0.0 -1.0 0.0
  outer loop
    vertex 215.66670534109244 -83.54149919252237 27.99999999999999
    vertex 200.6667053410924 -83.54149919252237 -20.000000000000004
    vertex 215.66670534109244 -83.54149919252237 -20.000000000000004
  endloop
endfacet
facet normal 0.0 -1.0 0.0
  outer loop
    vertex 200.6667053410924 -83.54149919252237 -20.000000000000004
    vertex 215.66670534109244 -83.54149919252237 27.99999999999999
    vertex 200.6667053410924 -83.54149919252237 27.99999999999999
  endloop
endfacet
facet normal -0.0 -1.0 -0.0
  outer loop
    vertex 215.66670534109244 -80.54149919252237 -5.639932965095795e-15
    vertex 200.6667053410924 -80.54149919252237 -20.000000000000004
    vertex 215.66670534109244 -80.54149919252237 -20.000000000000004
  endloop
endfacet
facet normal -0.0 -1.0 -0.0
  outer loop
    vertex 200.6667053410924 -80.54149919252237 -20.000000000000004
    vertex 215.66670534109244 -80.54149919252237 -5.639932965095795e-15
    vertex 200.6667053410924 -80.54149919252237 -5.639932965095795e-15
  endloop
endfacet
facet normal -1.0 0.0 0.0
  outer loop
    vertex 200.6667053410924 -28.541499192522373 7.999999999999991
    vertex 200.6667053410924 -80.54149919252237 -5.639932965095795e-15
    vertex 200.6667053410924 -80.54149919252237 7.999999999999991
  endloop
endfacet
facet normal -1.0 0.0 0.0
  outer loop
    vertex 200.6667053410924 -80.54149919252237 -5.639932965095795e-15
    vertex 200.6667053410924 -28.541499192522373 7.999999999999991
    vertex 200.6667053410924 -28.541499192522373 -5.639932965095795e-15
  endloop
endfacet
facet normal 1.0 0.0 0.0
  outer loop
    vertex 215.66670534109244 -28.541499192522373 -5.639932965095795e-15
    vertex 215.66670534109244 -80.54149919252237 7.999999999999991
    vertex 215.66670534109244 -80.54149919252237 -5.639932965095795e-15
  endloop
endfacet
facet normal 1.0 0.0 0.0
  outer loop
    vertex 215.66670534109244 -80.54149919252237 7.999999999999991
    vertex 215.66670534109244 -28.541499192522373 -5.639932965095795e-15
    vertex 215.66670534109244 -28.541499192522373 7.999999999999991
  endloop
endfacet
facet normal 0.0 0.0 1.0
  outer loop
    vertex 215.66670534109244 -80.54149919252237 -5.639932965095795e-15
    vertex 200.6667053410924 -28.541499192522373 -5.639932965095795e-15
    vertex 200.6667053410924 -80.54149919252237 -5.639932965095795e-15
  endloop
endfacet
facet normal 0.0 0.0 1.0
  outer loop
    vertex 200.6667053410924 -28.541499192522373 -5.639932965095795e-15
    vertex 215.66670534109244 -80.54149919252237 -5.639932965095795e-15
    vertex 215.66670534109244 -28.541499192522373 -5.639932965095795e-15
  endloop
endfacet
facet normal 0.0 1.0 0.0
  outer loop
    vertex 200.6667053410924 -80.54149919252237 27.99999999999999
    vertex 215.66670534109244 -80.54149919252237 7.999999999999991
    vertex 200.6667053410924 -80.54149919252237 7.999999999999991
  endloop
endfacet
facet normal 0.0 1.0 0.0
  outer loop
    vertex 215.66670534109244 -80.54149919252237 7.999999999999991
    vertex 200.6667053410924 -80.54149919252237 27.99999999999999
    vertex 215.66670534109244 -80.54149919252237 27.99999999999999
  endloop
endfacet
facet normal 0.0 0.0 1.0
  outer loop
    vertex 215.66670534109244 -83.54149919252237 27.99999999999999
    vertex 200.6667053410924 -80.54149919252237 27.99999999999999
    vertex 200.6667053410924 -83.54149919252237 27.99999999999999
  endloop
endfacet
facet normal 0.0 0.0 1.0
  outer loop
    vertex 200.6667053410924 -80.54149919252237 27.99999999999999
    vertex 215.66670534109244 -83.54149919252237 27.99999999999999
    vertex 215.66670534109244 -80.54149919252237 27.99999999999999
  endloop
endfacet
facet normal 0.0 0.0 1.0
  outer loop
    vertex 215.66670534109244 -80.54149919252237 7.999999999999991
    vertex 200.6667053410924 -28.541499192522373 7.999999999999991
    vertex 200.6667053410924 -80.54149919252237 7.999999999999991
  endloop
endfacet
facet normal 0.0 0.0 1.0
  outer loop
    vertex 200.6667053410924 -28.541499192522373 7.999999999999991
    vertex 215.66670534109244 -80.54149919252237 7.999999999999991
    vertex 215.66670534109244 -28.541499192522373 7.999999999999991
  endloop
endfacet
facet normal -0.9238795325112844 0.38268343236509544 5.353617792671336e-16
  outer loop
    vertex 213.94384527262147 -22.871586621689456 7.999999999999991
    vertex 213.329457674218 -24.35484949430895 -5.639932965095795e-15
    vertex 213.329457674218 -24.35484949430895 7.999999999999991
  endloop
endfacet
facet normal -0.9238795325112844 0.38268343236509544 5.353617792671336e-16
  outer loop
    vertex 213.329457674218 -24.35484949430895 -5.639932965095795e-15
    vertex 213.94384527262147 -22.871586621689456 7.999999999999991
    vertex 213.94384527262147 -22.871586621689456 -5.639932965095795e-15
  endloop
endfacet
facet normal -0.7933533402912338 0.6087614290087224 0.0
  outer loop
    vertex 213.329457674218 -24.35484949430895 7.999999999999991
    vertex 213.0034014409437 -24.779774250485044 -5.639932965095795e-15
    vertex 213.0034014409437 -24.779774250485044 7.999999999999991
  endloop
endfacet
facet normal -0.7933533402912338 0.6087614290087224 0.0
  outer loop
    vertex 213.0034014409437 -24.779774250485044 -5.639932965095795e-15
    vertex 213.329457674218 -24.35484949430895 7.999999999999991
    vertex 213.329457674218 -24.35484949430895 -5.639932965095795e-15
  endloop
endfacet
endsolid contador rpm
